<svg width="36" height="34" viewBox="0 0 36 34" fill="none" xmlns="http://www.w3.org/2000/svg">
<path d="M25.0848 26.681C26.5842 25.4771 27.4764 24.5454 28.7445 22.3865L33.3222 27.719C34.3353 28.8991 34.1943 30.6783 33.0081 31.6841C31.8274 32.6853 30.0588 32.5403 29.057 31.3601L25.0848 26.681Z" fill="#1E90FF"/>
<path d="M25.076 26.6704C26.5754 25.4665 27.4676 24.5348 28.7357 22.3759L33.3134 27.7084C34.3265 28.8885 34.1856 30.6676 32.9993 31.6735C31.8187 32.6747 30.05 32.5297 29.0482 31.3495L25.076 26.6704Z" fill="#1E90FF"/>
<path d="M25.1009 26.6958C26.2239 27.9585 28.1861 28.0856 29.2171 26.7467C31.1358 24.2549 32.3068 21.2419 32.5536 18.0631C32.8799 13.8595 31.5649 9.69295 28.8846 6.43833C26.2043 3.18371 22.3672 1.09419 18.179 0.608513C13.9908 0.122837 9.7774 1.27879 6.4234 3.83364C3.06939 6.38849 0.835741 10.1435 0.191452 14.3102C-0.452837 18.4769 0.542358 22.7312 2.96807 26.1798C5.39378 29.6283 9.06131 32.0029 13.2006 32.8049C16.3307 33.4113 19.5465 33.0828 22.4585 31.895C24.0232 31.2567 24.4219 29.3312 23.5028 27.9131C22.5838 26.495 20.6878 26.1436 19.0612 26.6017C17.5455 27.0285 15.9377 27.1018 14.3646 26.797C11.7792 26.2961 9.48853 24.8129 7.97345 22.659C6.45837 20.5051 5.83678 17.8479 6.23919 15.2454C6.64161 12.6429 8.03673 10.2975 10.1316 8.70178C12.2265 7.10604 14.8582 6.38404 17.4741 6.68739C20.09 6.99074 22.4866 8.29584 24.1607 10.3286C25.8348 12.3615 26.6562 14.9638 26.4523 17.5894C26.3283 19.187 25.8305 20.7175 25.0164 22.0654C24.1428 23.5119 23.9779 25.433 25.1009 26.6958Z" fill="#1E90FF"/>
</svg>
