<svg width="78" height="78" viewBox="0 0 78 78" fill="none" xmlns="http://www.w3.org/2000/svg">
<path d="M50.4551 54.2329L58.5167 47.202L69.7837 60.1098C71.7268 62.3358 71.4967 65.7156 69.2699 67.6578V67.6578C67.0444 69.5987 63.667 69.3688 61.7251 67.1441L50.4551 54.2329Z" fill="#1E90FF"/>
<mask id="path-2-inside-1" fill="white">
<path d="M59.2488 62.339C65.3565 57.0257 69.1839 49.5648 69.9367 41.5045C70.6894 33.4442 68.3098 25.4036 63.2916 19.0512C58.2734 12.6989 51.002 8.52259 42.9864 7.38912C34.9707 6.25565 26.8265 8.25201 20.2437 12.9639C13.6609 17.6758 9.14512 24.7414 7.63349 32.6943C6.12186 40.6473 7.73047 48.877 12.1255 55.6754C16.5205 62.4739 23.3644 67.319 31.2369 69.2054C39.869 71.2738 49.1842 69.5695 56.1423 64.695L48.4294 55.5264C44.0727 58.0589 38.9082 58.8166 34.0076 57.6423C29.1071 56.4681 24.8468 53.452 22.111 49.2201C19.3751 44.9881 18.3738 39.8652 19.3148 34.9146C20.2557 29.964 23.0668 25.5657 27.1645 22.6326C31.2622 19.6995 36.3319 18.4568 41.3215 19.1624C46.3111 19.868 50.8375 22.4676 53.9613 26.4219C57.0851 30.3762 58.5664 35.3814 58.0978 40.3988C57.6292 45.4163 55.2467 50.0606 51.4447 53.3681L59.2488 62.339Z"/>
</mask>
<path d="M59.2488 62.339L-16.9525 128.629L49.3375 204.83L125.539 138.54L59.2488 62.339ZM31.2369 69.2054L7.70168 167.425L31.2369 69.2054ZM56.1423 64.695L114.092 147.416L204.46 84.1095L133.431 -0.323551L56.1423 64.695ZM48.4294 55.5264L125.718 -9.49211L71.068 -74.4563L-2.32743 -31.7933L48.4294 55.5264ZM51.4447 53.3681L-14.8452 -22.8332L-91.0465 43.4567L-24.7566 119.658L51.4447 53.3681ZM125.539 138.54C151.232 116.189 167.332 84.8033 170.499 50.8963L-30.6257 32.1127C-28.9646 14.3263 -20.5188 -2.13761 -7.04114 -13.8623L125.539 138.54ZM170.499 50.8963C173.666 16.9894 163.655 -16.8351 142.545 -43.5574L-15.9622 81.6598C-27.0358 67.6422 -32.2868 49.8991 -30.6257 32.1127L170.499 50.8963ZM142.545 -43.5574C121.435 -70.2797 90.8469 -87.8478 57.1278 -92.616L28.8449 107.394C11.157 104.893 -4.88866 95.6774 -15.9622 81.6598L142.545 -43.5574ZM57.1278 -92.616C23.4088 -97.3841 -10.8516 -88.9861 -38.5432 -69.1647L79.0305 95.0925C64.5045 105.49 46.5327 109.895 28.8449 107.394L57.1278 -92.616ZM-38.5432 -69.1647C-66.2348 -49.3433 -85.2312 -19.6207 -91.5901 13.8349L106.857 51.5538C103.521 69.1035 93.5565 84.6949 79.0305 95.0925L-38.5432 -69.1647ZM-91.5901 13.8349C-97.949 47.2904 -91.1822 81.9099 -72.6938 110.509L96.9447 0.842125C106.643 15.8441 110.193 34.0042 106.857 51.5538L-91.5901 13.8349ZM-72.6938 110.509C-54.2055 139.108 -25.4153 159.49 7.70168 167.425L54.7721 -29.0142C72.1441 -24.8515 87.2464 -14.1598 96.9447 0.842125L-72.6938 110.509ZM7.70168 167.425C43.258 175.945 82.4495 169.584 114.092 147.416L-1.80781 -18.0261C15.9188 -30.4445 36.48 -33.3973 54.7721 -29.0142L7.70168 167.425ZM133.431 -0.323551L125.718 -9.49211L-28.8596 120.545L-21.1467 129.714L133.431 -0.323551ZM-2.32743 -31.7933C15.7589 -42.3065 37.1988 -45.4521 57.5428 -40.5773L10.4724 155.862C40.6175 163.085 72.3864 158.424 99.1862 142.846L-2.32743 -31.7933ZM57.5428 -40.5773C77.8868 -35.7025 95.5727 -23.1817 106.93 -5.61322L-62.7083 104.053C-45.8791 130.086 -19.6727 148.639 10.4724 155.862L57.5428 -40.5773ZM106.93 -5.61322C118.288 11.9552 122.445 33.2221 118.538 53.7741L-79.9088 16.0551C-85.6971 46.5084 -79.5375 78.021 -62.7083 104.053L106.93 -5.61322ZM118.538 53.7741C114.632 74.3261 102.962 92.5849 85.9513 104.761L-31.6224 -59.496C-56.8289 -41.4534 -74.1206 -14.3981 -79.9088 16.0551L118.538 53.7741ZM85.9513 104.761C68.9402 116.938 47.8938 122.097 27.18 119.167L55.463 -80.8427C24.77 -85.1829 -6.41584 -77.5386 -31.6224 -59.496L85.9513 104.761ZM27.18 119.167C6.46618 116.238 -12.3245 105.446 -25.2925 89.0305L133.215 -36.1867C114 -60.5109 86.1561 -76.5024 55.463 -80.8427L27.18 119.167ZM-25.2925 89.0305C-38.2605 72.6148 -44.4099 51.8363 -42.4646 31.007L158.66 49.7906C161.543 18.9265 152.431 -11.8625 133.215 -36.1867L-25.2925 89.0305ZM-42.4646 31.007C-40.5193 10.1778 -30.6286 -9.10274 -14.8452 -22.8332L117.735 129.569C141.122 109.224 155.778 80.6548 158.66 49.7906L-42.4646 31.007ZM-24.7566 119.658L-16.9525 128.629L135.45 -3.95093L127.646 -12.9219L-24.7566 119.658Z" fill="#1E90FF" mask="url(#path-2-inside-1)"/>
</svg>
