<svg width="78" height="78" viewBox="0 0 78 78" fill="none" xmlns="http://www.w3.org/2000/svg">
<path d="M50.4541 54.2329L58.5157 47.202L69.7827 60.1098C71.7258 62.3358 71.4957 65.7156 69.2689 67.6578C67.0434 69.5987 63.666 69.3688 61.7241 67.1441L50.4541 54.2329Z" fill="#61C79F"/>
<mask id="path-2-inside-1" fill="white">
<path d="M59.2483 62.339C65.356 57.0257 69.1834 49.5648 69.9362 41.5045C70.689 33.4442 68.3093 25.4036 63.2911 19.0512C58.2729 12.6989 51.0015 8.52259 42.9859 7.38912C34.9702 6.25565 26.826 8.25201 20.2432 12.9639C13.6604 17.6758 9.14463 24.7414 7.633 32.6943C6.12138 40.6473 7.72998 48.877 12.125 55.6754C16.52 62.4739 23.3639 67.319 31.2364 69.2054C39.8685 71.2738 49.1837 69.5695 56.1419 64.695L48.4289 55.5264C44.0722 58.0589 38.9077 58.8166 34.0071 57.6423C29.1066 56.4681 24.8463 53.452 22.1105 49.2201C19.3746 44.9881 18.3733 39.8653 19.3143 34.9146C20.2552 29.964 23.0663 25.5657 27.164 22.6326C31.2617 19.6995 36.3314 18.4568 41.321 19.1624C46.3107 19.868 50.837 22.4676 53.9608 26.4219C57.0846 30.3762 58.5659 35.3814 58.0973 40.3988C57.6287 45.4163 55.2462 50.0606 51.4442 53.3681L59.2483 62.339Z"/>
</mask>
<path d="M59.2483 62.339L-16.953 128.629L49.337 204.83L125.538 138.54L59.2483 62.339ZM31.2364 69.2054L7.70119 167.425L31.2364 69.2054ZM56.1419 64.695L114.092 147.416L204.459 84.1095L133.431 -0.323552L56.1419 64.695ZM48.4289 55.5264L125.718 -9.49211L71.0675 -74.4563L-2.32792 -31.7933L48.4289 55.5264ZM51.4442 53.3681L-14.8457 -22.8332L-91.047 43.4567L-24.7571 119.658L51.4442 53.3681ZM125.538 138.54C151.231 116.189 167.332 84.8033 170.499 50.8963L-30.6262 32.1127C-28.9651 14.3263 -20.5193 -2.13761 -7.04162 -13.8623L125.538 138.54ZM170.499 50.8963C173.665 16.9894 163.655 -16.8351 142.545 -43.5574L-15.9627 81.6598C-27.0363 67.6422 -32.2873 49.8991 -30.6262 32.1127L170.499 50.8963ZM142.545 -43.5574C121.435 -70.2797 90.8464 -87.8478 57.1274 -92.616L28.8444 107.394C11.1565 104.893 -4.88914 95.6774 -15.9627 81.6598L142.545 -43.5574ZM57.1274 -92.616C23.4083 -97.3841 -10.8521 -88.9861 -38.5436 -69.1647L79.03 95.0925C64.504 105.49 46.5322 109.895 28.8444 107.394L57.1274 -92.616ZM-38.5436 -69.1647C-66.2352 -49.3433 -85.2317 -19.6207 -91.5906 13.8349L106.857 51.5538C103.521 69.1035 93.5561 84.6949 79.03 95.0925L-38.5436 -69.1647ZM-91.5906 13.8349C-97.9495 47.2904 -91.1826 81.9099 -72.6943 110.509L96.9443 0.842124C106.643 15.8441 110.192 34.0042 106.857 51.5538L-91.5906 13.8349ZM-72.6943 110.509C-54.2059 139.108 -25.4158 159.49 7.70119 167.425L54.7716 -29.0142C72.1436 -24.8515 87.2459 -14.1598 96.9443 0.842124L-72.6943 110.509ZM7.70119 167.425C43.2576 175.945 82.449 169.584 114.092 147.416L-1.8083 -18.0261C15.9184 -30.4445 36.4795 -33.3973 54.7716 -29.0142L7.70119 167.425ZM133.431 -0.323552L125.718 -9.49211L-28.8601 120.545L-21.1471 129.714L133.431 -0.323552ZM-2.32792 -31.7933C15.7584 -42.3065 37.1983 -45.4521 57.5423 -40.5773L10.4719 155.862C40.617 163.085 72.3859 158.424 99.1857 142.846L-2.32792 -31.7933ZM57.5423 -40.5773C77.8863 -35.7025 95.5723 -23.1817 106.93 -5.61323L-62.7088 104.053C-45.8796 130.086 -19.6732 148.639 10.4719 155.862L57.5423 -40.5773ZM106.93 -5.61323C118.287 11.9552 122.444 33.2221 118.538 53.7741L-79.9093 16.0551C-85.6976 46.5084 -79.538 78.021 -62.7088 104.053L106.93 -5.61323ZM118.538 53.7741C114.632 74.3261 102.962 92.5849 85.9508 104.761L-31.6229 -59.496C-56.8294 -41.4534 -74.121 -14.3981 -79.9093 16.0551L118.538 53.7741ZM85.9508 104.761C68.9397 116.938 47.8933 122.097 27.1795 119.167L55.4625 -80.8427C24.7695 -85.1829 -6.41632 -77.5386 -31.6229 -59.496L85.9508 104.761ZM27.1795 119.167C6.46569 116.238 -12.325 105.446 -25.293 89.0305L133.215 -36.1867C113.999 -60.5109 86.1556 -76.5024 55.4625 -80.8427L27.1795 119.167ZM-25.293 89.0305C-38.261 72.6149 -44.4104 51.8363 -42.4651 31.007L158.66 49.7906C161.542 18.9265 152.43 -11.8625 133.215 -36.1867L-25.293 89.0305ZM-42.4651 31.007C-40.5198 10.1778 -30.6291 -9.10274 -14.8457 -22.8332L117.734 129.569C141.122 109.224 155.777 80.6548 158.66 49.7906L-42.4651 31.007ZM-24.7571 119.658L-16.953 128.629L135.45 -3.95093L127.646 -12.9219L-24.7571 119.658Z" fill="#61C79F" mask="url(#path-2-inside-1)"/>
</svg>
