<svg width="644" height="482" viewBox="0 0 644 482" fill="none" xmlns="http://www.w3.org/2000/svg">
<g clip-path="url(#clip0)">
<path opacity="0.18" d="M160.927 52.3792C141.105 76.6235 128.761 106.767 111.677 133.249C99.038 153.038 83.6184 170.756 70.7688 190.461C45.1537 229.704 29.692 277.544 32.5147 325.342C35.3375 373.141 57.7927 420.332 95.2252 446.501C118.207 462.587 145.402 470.223 172.449 475.18C263.513 491.915 361.529 479.029 439.343 425.667C452.698 416.504 465.484 406.171 479.977 399.226C517.199 381.362 565.48 385.503 592.464 352.704C608.705 332.957 612.286 304.717 611.739 278.381C611.086 246.752 604.85 213.534 585.449 189.813C560.172 158.707 518.884 150.382 484.717 131.241C451.413 112.687 424.555 83.5057 395.949 57.4414C327.13 -5.29263 228.124 -29.8089 160.927 52.3792Z" fill="#FDA085"/>
<path d="M491.1 311.997C491.104 313.932 490.708 315.848 489.936 317.626C489.164 319.403 488.033 321.005 486.613 322.33C484.181 324.625 481.042 326.039 477.702 326.347C477.079 326.399 476.451 326.399 475.828 326.347L371.198 324.255C367.187 324.212 363.351 322.616 360.506 319.807C357.662 316.998 356.033 313.198 355.968 309.215C355.96 307.279 356.351 305.363 357.115 303.582C357.879 301.802 359.001 300.195 360.413 298.86C363.318 296.117 367.19 294.615 371.198 294.676H374.758C374.022 292.111 373.646 289.457 373.641 286.79C373.636 282.978 374.413 279.204 375.927 275.701C377.442 272.198 379.66 269.038 382.447 266.416C384.906 264.08 387.757 262.19 390.873 260.831C394.909 259.084 399.278 258.227 403.68 258.32L412.569 258.509C418.1 258.621 423.498 260.206 428.2 263.098C432.903 265.99 436.736 270.084 439.301 274.95C441.864 273.74 444.679 273.145 447.516 273.214H449.812C454.575 273.262 459.13 275.154 462.509 278.486C465.888 281.819 467.825 286.329 467.907 291.057V291.915C467.906 293.545 467.664 295.166 467.191 296.726L475.849 296.894C479.869 296.948 483.711 298.555 486.558 301.374C489.405 304.194 491.034 308.004 491.1 311.997Z" fill="white"/>
<path d="M477.702 326.347C477.079 326.4 476.451 326.4 475.828 326.347L371.198 324.255C367.187 324.212 363.351 322.616 360.506 319.807C357.662 316.998 356.033 313.198 355.968 309.215C355.96 307.28 356.351 305.363 357.115 303.582C357.879 301.802 359.001 300.195 360.413 298.86C356.2 324.527 383.268 320.846 383.268 320.846H451.245L477.702 326.347Z" fill="url(#paint0_linear)"/>
<path d="M382.426 297.772L374.821 294.906C374.085 292.341 373.709 289.687 373.705 287.02C373.699 283.207 374.477 279.434 375.991 275.93C377.505 272.427 379.723 269.267 382.51 266.645C384.969 264.31 387.821 262.42 390.936 261.06C369.892 278.966 382.426 297.772 382.426 297.772Z" fill="url(#paint1_linear)"/>
<path opacity="0.23" d="M255.488 458.048C329.409 458.048 389.334 404.3 389.334 337.998C389.334 271.696 329.409 217.948 255.488 217.948C181.566 217.948 121.641 271.696 121.641 337.998C121.641 404.3 181.566 458.048 255.488 458.048Z" fill="#FDA085"/>
<path d="M421.669 318.105C421.704 345.975 412.569 373.095 395.654 395.335L395.38 395.711C376.844 419.971 350.228 436.897 320.285 443.467C290.342 450.037 259.022 445.823 231.919 431.579C204.816 417.334 183.695 393.985 172.327 365.703C160.96 337.421 160.087 306.047 169.864 277.184C179.641 248.322 199.432 223.851 225.701 208.141C251.97 192.431 283.008 186.506 313.271 191.424C343.533 196.342 371.05 211.783 390.907 234.988C410.763 258.194 421.666 287.653 421.669 318.105Z" fill="#FDA085"/>
<path d="M250.79 254.953C243.691 257.86 235.855 258.551 228.566 260.935C221.278 263.32 213.968 268.131 212.094 275.578C211.125 279.322 211.63 283.485 209.776 286.874C207.312 291.434 201.54 293.149 198.043 296.915C191.387 304.194 195.768 316.683 203.899 322.31C212.03 327.937 222.415 328.794 232.147 330.447C234.811 330.658 237.349 331.656 239.436 333.313C245.102 338.689 238.825 348.416 241.226 355.821C242.575 360.004 246.556 362.87 248.367 366.886C251.843 374.543 246.577 382.994 243.101 390.65C236.832 404.617 236.266 420.455 241.521 434.829C241.279 435.176 241.012 435.505 240.721 435.812C226.858 429.771 214.162 421.376 203.204 411.003C192.524 396.13 184.077 379.919 184.962 362.096C185.446 352.432 188.69 343.102 189.301 333.48C190.312 317.854 184.625 300.889 192.335 287.25C196.548 279.699 204.763 271.415 200.171 264.094C192.061 265.265 183.319 265.454 175.883 262.65C185.007 243.774 198.641 227.4 215.596 214.953C232.55 202.506 252.313 194.363 273.161 191.235C281.166 213.953 274.804 244.912 250.79 254.953Z" fill="url(#paint2_linear)"/>
<path d="M421.669 318.106C421.678 326.227 420.909 334.331 419.373 342.308C415.938 345.082 412.72 348.11 409.746 351.366C399.53 363.247 397.318 379.731 395.654 395.294C395.654 395.629 395.654 395.964 395.548 396.277C395.548 396.068 395.548 395.88 395.38 395.671C394.567 391.674 392.813 387.925 390.261 384.731C387.354 381.614 382.193 380.066 378.654 382.513C376.969 378.33 375.277 374.181 373.578 370.067C363.045 370.067 352.176 370.067 342.275 366.364C332.375 362.662 324.18 355.57 316.26 348.646C317.3 336.649 317.074 324.576 315.586 312.625C346.353 309.309 374.812 294.855 395.527 272.023C377.001 271.105 358.632 275.812 342.865 285.515C339.495 287.607 336.082 289.95 332.143 290.284C329.647 290.346 327.157 290.007 324.77 289.28L299.303 282.858C296.122 266.584 307.476 250.247 322.074 242.193C333.028 236.169 346.32 237.34 356.831 232.069C364.035 228.471 366.142 222.174 372.44 217.551H372.567C387.867 229.542 400.233 244.818 408.738 262.233C417.242 279.649 421.663 298.751 421.669 318.106Z" fill="url(#paint3_linear)"/>
<path d="M332.395 292.104C331.637 294.572 330.92 297.459 332.395 299.53C333.12 300.415 334.074 301.088 335.154 301.475C336.413 302.072 337.812 302.311 339.199 302.167C340.585 302.023 341.905 301.501 343.012 300.659C344.168 299.403 344.986 297.878 345.392 296.225C347.361 290.223 348.771 284.054 349.605 277.796C349.764 277.22 349.764 276.614 349.605 276.038C349.276 275.435 348.748 274.962 348.109 274.7C344.76 272.922 339.515 271.499 337.577 275.432C335.197 280.494 334.08 286.749 332.395 292.104Z" fill="#FBC4D6"/>
<path d="M342.528 294.969C343.235 294.873 343.955 294.937 344.634 295.157C345.097 295.412 345.499 295.761 345.814 296.182L353.081 304.278C354.493 305.847 355.967 308.001 354.977 309.863C354.628 310.381 354.167 310.815 353.628 311.134C353.089 311.452 352.484 311.647 351.86 311.704C348.34 312.023 344.801 311.334 341.664 309.716C339.431 308.754 337.219 307.625 335.05 306.579C333.438 305.852 332.028 304.746 330.942 303.357C329.278 300.847 328.836 294.823 331.743 292.898C333.238 291.957 334.544 292.626 335.956 293.275C337.973 294.366 340.23 294.948 342.528 294.969Z" fill="#FDA085"/>
<path d="M372.672 319.674C372.729 320.139 372.678 320.611 372.524 321.054C372.273 321.485 371.909 321.839 371.471 322.079C370.09 323.024 368.47 323.567 366.795 323.648C365.958 323.679 365.125 323.518 364.361 323.177C363.598 322.836 362.924 322.324 362.392 321.682C361.617 320.464 361.147 319.08 361.023 317.645C360.406 314.559 360.102 311.419 360.117 308.273C360.08 308.088 360.084 307.898 360.129 307.715C360.174 307.532 360.259 307.36 360.377 307.213C360.495 307.066 360.645 306.946 360.814 306.862C360.984 306.777 361.17 306.731 361.36 306.725C363.972 306.181 369.175 304.822 370.502 308.001C371.854 311.751 372.587 315.692 372.672 319.674Z" fill="#FBC4D6"/>
<path d="M383.731 319.36C385.976 319.48 388.194 319.903 390.325 320.615C391.384 320.979 392.356 321.555 393.183 322.307C394.009 323.059 394.671 323.971 395.128 324.987C395.553 325.982 395.605 327.095 395.275 328.125C394.548 329.653 393.27 330.854 391.694 331.493C384.207 335.444 375.761 337.247 367.301 336.701C365.13 336.788 363.009 336.039 361.382 334.61C360.207 332.882 359.657 330.81 359.823 328.731L359.528 318.9C361.434 318.984 363.294 319.507 364.963 320.427C368.08 321.473 369.302 318.963 371.872 318.335C375.221 317.561 380.319 319.025 383.731 319.36Z" fill="#FDA085"/>
<path d="M342.528 294.969C343.235 294.873 343.955 294.937 344.634 295.157C345.097 295.412 345.499 295.761 345.814 296.182L353.081 304.278C354.493 305.847 355.967 308.001 354.977 309.863C354.628 310.381 354.167 310.815 353.628 311.134C353.089 311.452 352.484 311.647 351.86 311.704C348.34 312.023 344.801 311.334 341.664 309.716C339.431 308.754 337.219 307.625 335.05 306.579C333.438 305.852 332.028 304.746 330.942 303.357C329.278 300.847 328.836 294.823 331.743 292.898C333.238 291.957 334.544 292.626 335.956 293.275C337.973 294.366 340.23 294.948 342.528 294.969Z" fill="url(#paint4_linear)"/>
<path d="M383.731 319.36C385.976 319.48 388.194 319.903 390.325 320.615C391.384 320.979 392.356 321.555 393.183 322.307C394.009 323.059 394.671 323.971 395.128 324.987C395.553 325.982 395.605 327.095 395.275 328.125C394.548 329.653 393.27 330.854 391.694 331.493C384.207 335.444 375.761 337.247 367.301 336.701C365.13 336.788 363.009 336.039 361.382 334.61C360.207 332.882 359.657 330.81 359.823 328.731L359.528 318.9C361.434 318.984 363.294 319.507 364.963 320.427C368.08 321.473 369.302 318.963 371.872 318.335C375.221 317.561 380.319 319.025 383.731 319.36Z" fill="url(#paint5_linear)"/>
<path d="M263.724 212.844C259.193 212.454 254.633 212.524 250.116 213.053C249.526 213.083 248.953 213.263 248.452 213.576C248.164 213.846 247.934 214.169 247.775 214.529C247.616 214.888 247.531 215.276 247.525 215.668C246.893 221.734 251.738 227.006 256.963 230.206C271.097 238.908 288.918 238.574 304.527 244.264C306.017 244.655 307.339 245.514 308.298 246.711C308.949 248.009 309.267 249.446 309.225 250.895C309.92 259.074 314.491 266.437 316.008 274.49C317.524 282.544 315.902 290.974 317.145 299.09C322.264 293.673 330.985 292.815 336.104 287.46C340.906 282.523 341.854 275.16 342.571 268.34L344.509 249.64C344.868 248.291 344.719 246.859 344.091 245.611C343.463 244.363 342.398 243.386 341.096 242.862C318.051 228.073 291.046 215.187 263.724 212.844Z" fill="url(#paint6_linear)"/>
<path d="M356.916 210.961C359.045 211.385 361.018 212.376 362.625 213.827C364.272 216.105 365.021 218.903 364.731 221.692C364.681 241.541 360.902 261.206 353.588 279.678C353.519 280.327 353.291 280.95 352.924 281.491C352.557 282.033 352.062 282.477 351.482 282.784C350.902 283.092 350.255 283.253 349.598 283.255C348.94 283.257 348.292 283.099 347.711 282.795C343.33 281.62 339.013 280.224 334.777 278.611L340.506 240.958C340.78 239.913 340.721 238.81 340.338 237.799C339.915 237.083 339.322 236.48 338.611 236.042C332.075 231.321 325.172 227.125 317.967 223.491C312.216 220.604 305.623 217.216 304.064 211.107C303.741 210.064 303.675 208.958 303.873 207.884C304.071 206.81 304.527 205.799 305.202 204.937C306.113 204.048 307.185 203.338 308.361 202.845C312.174 200.983 316.977 198.661 321.358 199.038C324.876 199.393 326.224 201.401 329.152 202.887C337.284 206.903 348.09 208.409 356.916 210.961Z" fill="#282328"/>
<path d="M317.776 151.072C320.599 158.791 321.989 166.97 324.475 174.773C325.019 176.841 325.995 178.772 327.34 180.442C329.126 182.144 331.291 183.405 333.659 184.123C336.959 185.392 340.316 186.501 343.728 187.449C346.003 188.056 348.72 189.102 348.973 191.403C349.027 192.17 348.867 192.937 348.51 193.62C347.63 195.179 346.362 196.487 344.828 197.421C343.294 198.355 341.545 198.883 339.747 198.954C336.158 199.05 332.584 198.468 329.214 197.239C326.146 196.622 323.331 195.115 321.125 192.909C319.872 191.074 318.991 189.013 318.534 186.843C315.077 174.657 310.281 162.886 304.231 151.742C302.422 148.799 301.005 145.634 300.018 142.328C298.628 136.555 298.607 122.874 304.61 127.895C309.455 131.953 315.648 145.341 317.776 151.072Z" fill="#FBC4D6"/>
<path d="M294.795 210.229C298.346 208.863 301.802 207.262 305.138 205.439C317.777 198.494 307.434 195.084 303.221 186.738C300.209 180.818 301.431 173.727 302.989 167.305C305.749 156.009 309.435 144.295 306.781 133.02C306.449 131.19 305.731 129.45 304.675 127.916C303.902 126.964 303.01 126.113 302.02 125.385C299.352 123.096 296.281 121.316 292.962 120.134C286.643 118.042 279.481 119.569 273.477 122.561C249.885 134.317 244.85 164 245.798 187.742C246.051 194.331 247.083 201.297 251.359 206.338C255.635 211.38 261.681 213.304 267.874 214.057C277.028 214.987 286.272 213.672 294.795 210.229Z" fill="white"/>
<path d="M259.616 196.8C259.807 199.028 260.529 201.179 261.723 203.075C263.829 206.025 267.705 207.112 271.265 207.97L287.296 211.903C289.25 212.491 291.279 212.794 293.32 212.802C297.702 212.593 301.473 209.811 304.948 207.133C305.837 206.53 306.607 205.771 307.223 204.895C298.376 204.058 289.55 203.18 280.745 201.904C275.563 201.151 270.086 200.105 266.273 196.57C264.303 194.637 262.805 192.283 261.891 189.687C261.26 188.077 260.965 183.977 259.132 183.621C258.67 188.015 258.834 192.451 259.616 196.8Z" fill="url(#paint7_linear)"/>
<path d="M291.256 138.521C291.254 139.181 290.989 139.813 290.518 140.278C290.08 140.534 289.569 140.637 289.065 140.571C287.414 140.494 285.799 140.067 284.329 139.318C282.858 138.569 281.566 137.516 280.54 136.23C279.514 134.943 278.778 133.453 278.381 131.86C277.983 130.267 277.934 128.608 278.237 126.995C278.616 124.903 279.522 123.104 280.091 121.138C281.208 117.205 281.018 112.771 283.525 109.528C285.695 114.459 288.171 119.252 290.94 123.878C291.647 124.798 292.139 125.863 292.38 126.996C292.62 128.129 292.603 129.3 292.33 130.426L291.256 138.521Z" fill="#FBC4D6"/>
<path d="M292.499 128.396L291.551 134.672C291.551 134.672 280.703 129.338 282.114 119.443C283.525 109.549 292.499 128.396 292.499 128.396Z" fill="url(#paint8_linear)"/>
<path d="M305.179 122.288C304.623 124.299 303.444 126.084 301.809 127.393C301.029 127.917 300.158 128.293 299.239 128.501C296.014 129.123 292.673 128.715 289.695 127.336C286.717 125.957 284.255 123.677 282.661 120.824C281.159 117.934 280.302 114.756 280.149 111.507C279.997 108.258 280.552 105.014 281.776 101.998C282.779 98.6892 285.048 95.9029 288.096 94.237C289.762 93.5844 291.565 93.3517 293.344 93.5598C295.123 93.7678 296.823 94.4101 298.291 95.4293C302.281 98.1959 305.365 102.066 307.16 106.558C308.697 111.139 306.759 117.917 305.179 122.288Z" fill="#FBC4D6"/>
<path d="M352.807 237.256C355.507 240.67 357.641 244.49 359.127 248.573C367.411 268.412 372.795 289.326 375.115 310.679C368.351 311.516 361.509 311.516 354.745 310.679C354.216 295.605 351.875 280.647 347.773 266.123C347.048 262.997 345.802 260.014 344.087 257.296C341.074 252.966 336.124 250.455 331.448 248.113C320.505 242.832 309.069 238.629 297.301 235.562C292.33 234.202 287.316 232.947 282.429 231.378C278.322 229.997 266.799 224.935 263.471 222.195C261.727 220.882 260.268 219.232 259.182 217.345C258.096 215.457 257.405 213.372 257.151 211.213C257.151 212.3 289.254 214.476 291.55 214.225C299.281 213.409 308.402 209.016 316.028 212.133C321.989 214.56 327.445 219.622 332.88 223.115C339.473 227.215 347.52 231.19 352.807 237.256Z" fill="#473F47"/>
<path d="M317.63 235.645L278.449 216.63L324.392 197.281L363.594 214.287L317.63 235.645Z" fill="#FDA085"/>
<path d="M257.952 146.365C257.952 147.097 257.762 147.809 257.678 148.457C256.519 159.167 257.572 169.668 257.973 180.316C258.225 186.905 259.089 199.456 266.146 202.824C279.333 209.099 304.779 206.715 304.779 206.715C307.73 206.245 310.745 206.366 313.647 207.07C315.227 207.551 316.681 208.367 318.219 208.953C323.78 211.045 329.994 209.999 335.85 208.953C336.859 208.834 337.833 208.514 338.715 208.012C339.737 207.11 340.36 205.846 340.451 204.491C340.542 203.137 340.092 201.802 339.199 200.774C337.298 198.79 334.826 197.439 332.121 196.904C324.726 194.507 316.805 194.202 309.245 196.025C308.279 196.349 307.294 196.614 306.296 196.82C305.126 197.009 303.942 197.093 302.757 197.071H293.783C283.461 197.071 273.729 197.197 272.171 185.211C271.595 180.771 271.482 176.285 271.833 171.823C272.444 163.769 274.572 155.778 274.13 147.725C274.103 145.171 273.46 142.66 272.255 140.404C271.644 139.283 270.754 138.337 269.669 137.656C268.585 136.974 267.343 136.581 266.062 136.513C264.735 136.611 263.456 137.048 262.349 137.781C261.242 138.514 260.344 139.518 259.742 140.696C258.81 142.465 258.203 144.385 257.952 146.365Z" fill="#FBC4D6"/>
<path d="M379.729 175.923L324.96 203.598L317.629 235.645L363.593 214.287L379.729 175.923Z" fill="#FDA085"/>
<path d="M307.876 110.742C307.816 108.75 307.073 106.839 305.77 105.324C305.108 104.562 304.326 103.912 303.453 103.4C302.231 102.688 301.936 102.626 301.136 103.776C300.104 105.261 299.766 106.998 298.819 108.546C297.781 110.262 296.334 111.699 294.606 112.729C292.663 113.926 290.402 114.517 288.118 114.424C287.21 114.287 286.287 114.287 285.379 114.424C285.074 114.481 284.786 114.604 284.535 114.785C284.283 114.966 284.075 115.2 283.926 115.469C283.708 116.252 283.63 117.066 283.694 117.875C283.504 119.967 281.419 121.452 280.26 123.272C279.102 125.092 278.765 127.79 277.374 129.736C277.116 130.126 276.761 130.443 276.342 130.656C275.352 131.075 274.236 130.531 273.204 130.342C270.149 129.819 267.684 132.643 265.072 134.359C259.827 137.789 252.96 136.911 246.767 135.886C244.871 135.658 243.023 135.136 241.29 134.338C239.419 133.241 237.757 131.825 236.382 130.154C234.086 127.644 231.811 125.092 229.557 122.54C228.719 121.723 228.053 120.749 227.598 119.674C227.357 118.925 227.292 118.13 227.408 117.352C227.614 115.899 228.047 114.488 228.693 113.168C230.336 109.508 232.253 105.533 235.961 103.881C239.668 102.228 244.05 103.462 248.136 103.044C248.634 103.043 249.12 102.89 249.526 102.605C249.852 102.24 250.083 101.802 250.201 101.329C251.907 95.7017 254.034 89.5935 259.132 86.6859C263.06 84.8121 267.488 84.2331 271.771 85.0333C276.011 85.829 280.338 86.0751 284.642 85.7655C286.748 85.4308 288.855 84.7405 290.961 84.3221C295.887 83.2352 301.044 83.9794 305.454 86.4139C307.631 87.7002 309.452 89.5032 310.753 91.661C312.055 93.8189 312.796 96.2639 312.911 98.7767C312.827 99.758 312.827 100.745 312.911 101.726C313.058 102.647 313.459 103.546 313.606 104.466C313.692 105.262 313.608 106.067 313.359 106.828C313.109 107.588 312.701 108.288 312.159 108.881C311.618 109.474 310.957 109.946 310.219 110.267C309.48 110.588 308.682 110.749 307.876 110.742Z" fill="#FF681C"/>
<path d="M256.035 152.306C255.386 158.227 255.315 164.195 255.824 170.129C255.799 170.644 255.931 171.154 256.204 171.593C256.651 172.08 257.269 172.379 257.931 172.43C261.342 173.061 264.804 173.39 268.274 173.413C268.761 173.568 269.276 173.614 269.783 173.548C270.29 173.482 270.776 173.306 271.206 173.032C271.637 172.759 272.001 172.394 272.273 171.964C272.546 171.535 272.719 171.051 272.782 170.547C274.678 162.682 276.552 154.817 277.985 146.847C278.554 143.646 278.954 140.048 277.016 137.454C274.214 133.689 266.652 133.271 263.008 136.011C258.605 139.379 256.73 147.244 256.035 152.306Z" fill="white"/>
<path d="M315.65 142.265L321.611 156.448C321.906 156.999 322.023 157.627 321.948 158.247C321.796 158.756 321.504 159.212 321.105 159.565C318.193 162.623 314.737 165.119 310.91 166.928C307.382 163.798 304.517 160 302.484 155.758C300.504 150.716 300.946 145.11 301.536 139.734C301.894 136.324 301.768 125.363 307.603 129.61C311.668 132.517 313.817 137.893 315.65 142.265Z" fill="white"/>
<path d="M207.818 275.306C207.82 277.239 207.425 279.153 206.657 280.929C205.89 282.706 204.765 284.309 203.353 285.639C200.918 287.93 197.781 289.344 194.442 289.656C193.818 289.687 193.192 289.687 192.567 289.656L87.9376 287.564C83.9207 287.521 80.0794 285.923 77.231 283.11C74.3826 280.297 72.7522 276.491 72.6865 272.503C72.6846 270.569 73.0796 268.656 73.8475 266.879C74.6153 265.102 75.7398 263.5 77.1523 262.169C78.5846 260.801 80.2745 259.728 82.1252 259.01C83.9759 258.292 85.9511 257.944 87.9376 257.985H91.4976C90.7513 255.415 90.3754 252.753 90.3811 250.078C90.374 246.266 91.1513 242.492 92.6655 238.988C94.1796 235.485 96.3986 232.325 99.1863 229.704C101.642 227.37 104.495 225.486 107.612 224.139C111.648 222.391 116.018 221.534 120.42 221.629L129.309 221.817C134.805 221.919 140.174 223.472 144.865 226.318C149.556 229.164 153.399 233.199 155.999 238.008C158.569 236.817 161.378 236.223 164.214 236.272H166.51C171.27 236.331 175.82 238.23 179.195 241.565C182.569 244.9 184.502 249.409 184.584 254.136V254.994C184.592 256.616 184.358 258.23 183.889 259.784L192.546 259.972C196.614 260.011 200.501 261.644 203.362 264.516C206.222 267.388 207.824 271.266 207.818 275.306Z" fill="white"/>
<path d="M194.442 289.656C193.818 289.688 193.192 289.688 192.567 289.656L87.9376 287.564C83.9207 287.521 80.0794 285.923 77.231 283.11C74.3826 280.297 72.7522 276.492 72.6865 272.503C72.6846 270.57 73.0796 268.656 73.8475 266.879C74.6153 265.103 75.7398 263.5 77.1523 262.169C73.0446 287.815 100.008 284.155 100.008 284.155H167.984L194.442 289.656Z" fill="url(#paint9_linear)"/>
<path d="M99.0798 261.082L91.4964 258.216C90.7501 255.646 90.3742 252.984 90.3799 250.309C90.3728 246.496 91.1502 242.722 92.6643 239.219C94.1784 235.715 96.3974 232.556 99.1851 229.934C101.641 227.601 104.494 225.717 107.611 224.37C86.6093 242.276 99.0798 261.082 99.0798 261.082Z" fill="url(#paint10_linear)"/>
<path d="M483.81 153.728C483.811 155.664 483.414 157.579 482.643 159.356C481.871 161.133 480.741 162.735 479.323 164.062C476.88 166.352 473.736 167.766 470.391 168.078C469.768 168.131 469.14 168.131 468.517 168.078L363.908 165.986C359.925 165.934 356.119 164.35 353.287 161.569C350.455 158.788 348.818 155.026 348.72 151.072C348.698 149.119 349.082 147.182 349.846 145.383C350.611 143.583 351.741 141.959 353.165 140.613C356.079 137.871 359.957 136.369 363.971 136.429H367.51C366.774 133.864 366.398 131.21 366.394 128.543C366.388 124.73 367.166 120.957 368.68 117.453C370.194 113.95 372.412 110.79 375.199 108.168C377.656 105.83 380.508 103.939 383.625 102.583C387.66 100.832 392.03 99.9759 396.432 100.073L405.322 100.261C410.818 100.362 416.187 101.918 420.875 104.767C425.563 107.617 429.4 111.658 431.99 116.473C434.554 115.264 437.368 114.67 440.205 114.737H442.501C447.264 114.785 451.819 116.676 455.198 120.009C458.577 123.341 460.514 127.851 460.596 132.58V133.438C460.595 135.067 460.353 136.688 459.88 138.249L468.538 138.416C472.598 138.466 476.476 140.099 479.334 142.964C482.191 145.829 483.799 149.696 483.81 153.728Z" fill="white"/>
<path d="M470.412 168.079C469.789 168.132 469.162 168.132 468.538 168.079L363.929 165.987C359.943 165.939 356.131 164.358 353.294 161.577C350.458 158.795 348.818 155.029 348.72 151.072C348.698 149.119 349.082 147.182 349.846 145.383C350.611 143.584 351.741 141.96 353.165 140.613C348.952 166.28 376.02 162.598 376.02 162.598H443.997L470.412 168.079Z" fill="url(#paint11_linear)"/>
<path d="M375.073 139.504L367.469 136.638C366.733 134.073 366.357 131.419 366.353 128.752C366.347 124.94 367.125 121.166 368.639 117.663C370.153 114.16 372.371 111 375.158 108.378C377.614 106.039 380.467 104.149 383.584 102.792C362.603 120.699 375.073 139.504 375.073 139.504Z" fill="url(#paint12_linear)"/>
<path d="M285.526 114.465C285.222 114.522 284.933 114.646 284.682 114.827C284.431 115.007 284.223 115.241 284.073 115.511C283.856 116.293 283.777 117.107 283.841 117.917C283.652 120.008 281.566 121.494 280.408 123.313C279.249 125.133 278.912 127.832 277.522 129.777C277.264 130.168 276.908 130.485 276.49 130.698C275.5 131.116 274.383 130.572 273.351 130.384C270.297 129.861 267.832 132.685 265.22 134.4C259.975 137.831 253.108 136.952 246.914 135.927C244.966 135.701 243.066 135.165 241.29 134.337C239.419 133.241 237.757 131.824 236.382 130.154C234.086 127.644 231.811 125.092 229.557 122.539C228.719 121.722 228.053 120.748 227.598 119.674C227.357 118.924 227.292 118.13 227.408 117.352C228.391 116.763 229.411 116.239 230.463 115.783C233.692 114.062 237.467 113.65 240.995 114.632C243.818 115.72 245.819 118.209 248.242 119.987C251.62 122.336 255.729 123.416 259.835 123.032C263.941 122.649 267.776 120.828 270.655 117.896C271.716 116.507 272.963 115.268 274.362 114.214C276.869 112.854 281.967 113.063 285.526 114.465Z" fill="url(#paint13_linear)"/>
</g>
<defs>
<linearGradient id="paint0_linear" x1="421.122" y1="372.995" x2="411.711" y2="250.905" gradientUnits="userSpaceOnUse">
<stop offset="0.01"/>
<stop offset="0.13" stop-opacity="0.69"/>
<stop offset="0.25" stop-opacity="0.32"/>
<stop offset="1" stop-opacity="0"/>
</linearGradient>
<linearGradient id="paint1_linear" x1="3154.47" y1="5792.4" x2="4177.45" y2="5569" gradientUnits="userSpaceOnUse">
<stop offset="0.01"/>
<stop offset="0.13" stop-opacity="0.69"/>
<stop offset="0.25" stop-opacity="0.32"/>
<stop offset="1" stop-opacity="0"/>
</linearGradient>
<linearGradient id="paint2_linear" x1="12436.6" y1="63813" x2="119.066" y2="-25813.9" gradientUnits="userSpaceOnUse">
<stop offset="0.01"/>
<stop offset="0.13" stop-opacity="0.69"/>
<stop offset="0.25" stop-opacity="0.32"/>
<stop offset="1" stop-opacity="0"/>
</linearGradient>
<linearGradient id="paint3_linear" x1="22882.5" y1="46085.8" x2="17433.5" y2="-20200.7" gradientUnits="userSpaceOnUse">
<stop offset="0.01"/>
<stop offset="0.13" stop-opacity="0.69"/>
<stop offset="0.25" stop-opacity="0.32"/>
<stop offset="1" stop-opacity="0"/>
</linearGradient>
<linearGradient id="paint4_linear" x1="-22501.9" y1="3108.78" x2="-22931.5" y2="3391.63" gradientUnits="userSpaceOnUse">
<stop offset="0.01"/>
<stop offset="0.13" stop-opacity="0.69"/>
<stop offset="0.25" stop-opacity="0.32"/>
<stop offset="1" stop-opacity="0"/>
</linearGradient>
<linearGradient id="paint5_linear" x1="-31795.2" y1="3505.51" x2="-31918.5" y2="2971.67" gradientUnits="userSpaceOnUse">
<stop offset="0.01"/>
<stop offset="0.13" stop-opacity="0.69"/>
<stop offset="0.25" stop-opacity="0.32"/>
<stop offset="1" stop-opacity="0"/>
</linearGradient>
<linearGradient id="paint6_linear" x1="-91005.2" y1="7691.79" x2="-96874.4" y2="16836.2" gradientUnits="userSpaceOnUse">
<stop offset="0.01"/>
<stop offset="0.13" stop-opacity="0.69"/>
<stop offset="0.25" stop-opacity="0.32"/>
<stop offset="1" stop-opacity="0"/>
</linearGradient>
<linearGradient id="paint7_linear" x1="7740.63" y1="2413.64" x2="6779.66" y2="4732.77" gradientUnits="userSpaceOnUse">
<stop offset="0.01"/>
<stop offset="0.13" stop-opacity="0.69"/>
<stop offset="0.25" stop-opacity="0.32"/>
<stop offset="1" stop-opacity="0"/>
</linearGradient>
<linearGradient id="paint8_linear" x1="-8266.53" y1="1138.7" x2="-8480.01" y2="1409.61" gradientUnits="userSpaceOnUse">
<stop offset="0.01"/>
<stop offset="0.13" stop-opacity="0.69"/>
<stop offset="0.25" stop-opacity="0.32"/>
<stop offset="1" stop-opacity="0"/>
</linearGradient>
<linearGradient id="paint9_linear" x1="8826.91" y1="4789.03" x2="8798.53" y2="3174.02" gradientUnits="userSpaceOnUse">
<stop offset="0.01"/>
<stop offset="0.13" stop-opacity="0.69"/>
<stop offset="0.25" stop-opacity="0.32"/>
<stop offset="1" stop-opacity="0"/>
</linearGradient>
<linearGradient id="paint10_linear" x1="553.9" y1="5111.42" x2="1576.91" y2="4888.14" gradientUnits="userSpaceOnUse">
<stop offset="0.01"/>
<stop offset="0.13" stop-opacity="0.69"/>
<stop offset="0.25" stop-opacity="0.32"/>
<stop offset="1" stop-opacity="0"/>
</linearGradient>
<linearGradient id="paint11_linear" x1="25042.7" y1="3068.03" x2="25014.3" y2="1453.59" gradientUnits="userSpaceOnUse">
<stop offset="0.01"/>
<stop offset="0.13" stop-opacity="0.69"/>
<stop offset="0.25" stop-opacity="0.32"/>
<stop offset="1" stop-opacity="0"/>
</linearGradient>
<linearGradient id="paint12_linear" x1="3087.49" y1="2856.54" x2="4110.47" y2="2633.13" gradientUnits="userSpaceOnUse">
<stop offset="0.01"/>
<stop offset="0.13" stop-opacity="0.69"/>
<stop offset="0.25" stop-opacity="0.32"/>
<stop offset="1" stop-opacity="0"/>
</linearGradient>
<linearGradient id="paint13_linear" x1="9179.24" y1="2006.22" x2="7983.89" y2="-245.429" gradientUnits="userSpaceOnUse">
<stop offset="0.01"/>
<stop offset="0.13" stop-opacity="0.69"/>
<stop offset="0.25" stop-opacity="0.32"/>
<stop offset="1" stop-opacity="0"/>
</linearGradient>
<clipPath id="clip0">
<rect width="644" height="482" fill="white"/>
</clipPath>
</defs>
</svg>
