<svg width="644" height="482" viewBox="0 0 644 482" fill="none" xmlns="http://www.w3.org/2000/svg">
<g clip-path="url(#clip0)">
<path opacity="0.18" d="M160.926 52.3792C141.104 76.6235 128.76 106.767 111.676 133.249C99.0375 153.038 83.6179 170.756 70.7683 190.461C45.1532 229.704 29.6915 277.544 32.5143 325.342C35.337 373.141 57.7922 420.332 95.2247 446.501C118.207 462.587 145.402 470.223 172.449 475.18C263.513 491.915 361.528 479.029 439.342 425.667C452.697 416.504 465.484 406.171 479.977 399.226C517.198 381.362 565.479 385.503 592.464 352.704C608.705 332.957 612.286 304.717 611.738 278.381C611.085 246.752 604.85 213.534 585.449 189.813C560.171 158.707 518.884 150.382 484.716 131.241C451.412 112.687 424.555 83.5056 395.948 57.4414C327.129 -5.29263 228.124 -29.8089 160.926 52.3792Z" fill="#1E90FF"/>
<path d="M491.099 311.997C491.103 313.932 490.707 315.848 489.935 317.626C489.163 319.403 488.032 321.005 486.612 322.33C484.18 324.625 481.042 326.039 477.701 326.347C477.078 326.399 476.45 326.399 475.827 326.347L371.197 324.255C367.186 324.212 363.35 322.616 360.505 319.807C357.661 316.998 356.033 313.198 355.967 309.215C355.959 307.279 356.35 305.363 357.114 303.582C357.878 301.802 359 300.195 360.412 298.86C363.317 296.117 367.189 294.615 371.197 294.676H374.757C374.021 292.111 373.645 289.457 373.64 286.79C373.635 282.978 374.412 279.204 375.927 275.701C377.441 272.198 379.659 269.038 382.446 266.416C384.905 264.08 387.756 262.19 390.872 260.831C394.908 259.084 399.277 258.227 403.679 258.32L412.569 258.509C418.099 258.621 423.497 260.206 428.199 263.098C432.902 265.99 436.735 270.084 439.3 274.95C441.863 273.74 444.678 273.145 447.515 273.214H449.811C454.574 273.262 459.129 275.154 462.508 278.486C465.888 281.819 467.824 286.329 467.906 291.057V291.915C467.905 293.545 467.663 295.166 467.19 296.726L475.848 296.894C479.868 296.948 483.71 298.555 486.557 301.374C489.404 304.194 491.033 308.004 491.099 311.997V311.997Z" fill="white"/>
<path d="M477.701 326.347C477.078 326.4 476.45 326.4 475.827 326.347L371.197 324.255C367.186 324.212 363.35 322.616 360.505 319.807C357.661 316.998 356.033 313.198 355.967 309.215C355.959 307.28 356.35 305.363 357.114 303.582C357.878 301.802 359 300.195 360.412 298.86C356.199 324.527 383.267 320.846 383.267 320.846H451.244L477.701 326.347Z" fill="url(#paint0_linear)"/>
<path d="M382.426 297.772L374.822 294.906C374.085 292.341 373.71 289.687 373.705 287.02C373.699 283.207 374.477 279.434 375.991 275.93C377.505 272.427 379.724 269.267 382.51 266.645C384.969 264.31 387.821 262.42 390.936 261.06C369.892 278.966 382.426 297.772 382.426 297.772Z" fill="url(#paint1_linear)"/>
<path opacity="0.23" d="M255.488 458.048C329.409 458.048 389.334 404.3 389.334 337.998C389.334 271.696 329.409 217.948 255.488 217.948C181.566 217.948 121.641 271.696 121.641 337.998C121.641 404.3 181.566 458.048 255.488 458.048Z" fill="#1E90FF"/>
<path d="M421.669 318.105C421.704 345.975 412.569 373.095 395.654 395.335V395.335L395.38 395.711C376.844 419.971 350.228 436.897 320.285 443.467C290.342 450.037 259.022 445.823 231.919 431.579C204.816 417.334 183.695 393.985 172.327 365.703C160.96 337.421 160.087 306.047 169.864 277.184C179.641 248.322 199.432 223.851 225.701 208.141C251.97 192.431 283.008 186.506 313.271 191.424C343.533 196.342 371.05 211.783 390.907 234.988C410.763 258.194 421.666 287.653 421.669 318.105V318.105Z" fill="#1E90FF"/>
<path d="M250.79 254.953C243.691 257.86 235.855 258.551 228.566 260.935C221.278 263.32 213.968 268.131 212.094 275.578C211.125 279.322 211.63 283.485 209.776 286.874C207.312 291.434 201.54 293.149 198.043 296.915C191.387 304.194 195.768 316.683 203.899 322.31C212.03 327.937 222.415 328.794 232.147 330.447C234.811 330.658 237.349 331.656 239.436 333.313C245.102 338.689 238.825 348.416 241.226 355.821C242.575 360.004 246.556 362.87 248.367 366.886C251.843 374.543 246.577 382.994 243.101 390.65C236.832 404.617 236.266 420.455 241.521 434.829C241.279 435.176 241.012 435.505 240.721 435.812C226.858 429.771 214.162 421.376 203.204 411.003C192.524 396.13 184.077 379.919 184.962 362.096C185.446 352.432 188.69 343.102 189.301 333.48C190.312 317.854 184.625 300.889 192.335 287.25C196.548 279.699 204.763 271.415 200.171 264.094C192.061 265.265 183.319 265.454 175.883 262.65C185.007 243.774 198.641 227.4 215.596 214.953C232.55 202.506 252.313 194.363 273.161 191.235C281.166 213.953 274.804 244.912 250.79 254.953Z" fill="url(#paint2_linear)"/>
<path d="M421.668 318.106C421.677 326.227 420.908 334.331 419.372 342.308C415.937 345.082 412.719 348.11 409.745 351.366C399.529 363.247 397.317 379.731 395.653 395.294C395.653 395.629 395.653 395.964 395.547 396.277C395.547 396.068 395.547 395.88 395.379 395.671C394.566 391.674 392.812 387.925 390.26 384.731C387.353 381.614 382.192 380.066 378.653 382.513C376.968 378.33 375.276 374.181 373.577 370.067C363.044 370.067 352.175 370.067 342.274 366.364C332.374 362.662 324.179 355.57 316.259 348.646C317.299 336.649 317.073 324.576 315.585 312.625C346.352 309.309 374.811 294.855 395.526 272.023C377 271.105 358.631 275.812 342.864 285.515C339.494 287.607 336.081 289.95 332.142 290.284C329.646 290.346 327.156 290.007 324.769 289.28L299.302 282.858C296.121 266.584 307.475 250.247 322.073 242.193C333.027 236.169 346.319 237.34 356.83 232.069C364.034 228.471 366.141 222.174 372.439 217.551H372.566C387.866 229.542 400.232 244.818 408.737 262.233C417.241 279.649 421.662 298.751 421.668 318.106Z" fill="url(#paint3_linear)"/>
<path d="M332.395 292.104C331.637 294.572 330.92 297.459 332.395 299.53C333.12 300.415 334.074 301.088 335.154 301.475C336.413 302.072 337.812 302.311 339.199 302.167C340.585 302.023 341.905 301.501 343.012 300.659C344.168 299.403 344.986 297.878 345.392 296.225C347.361 290.223 348.771 284.054 349.605 277.796C349.764 277.22 349.764 276.614 349.605 276.038C349.276 275.435 348.748 274.962 348.109 274.7C344.76 272.922 339.515 271.499 337.577 275.432C335.197 280.494 334.08 286.749 332.395 292.104Z" fill="#FBC4D6"/>
<path d="M342.527 294.969C343.235 294.873 343.955 294.937 344.634 295.157C345.096 295.412 345.498 295.761 345.813 296.182L353.081 304.278C354.492 305.847 355.967 308.001 354.977 309.863C354.628 310.381 354.167 310.815 353.628 311.134C353.088 311.452 352.484 311.647 351.859 311.704C348.339 312.023 344.801 311.334 341.664 309.716C339.431 308.754 337.219 307.625 335.049 306.579C333.437 305.852 332.027 304.746 330.942 303.357C329.277 300.847 328.835 294.823 331.742 292.898C333.238 291.957 334.544 292.626 335.955 293.275C337.973 294.366 340.23 294.948 342.527 294.969V294.969Z" fill="#1E90FF"/>
<path d="M372.671 319.674C372.728 320.139 372.678 320.611 372.524 321.054C372.273 321.485 371.909 321.839 371.471 322.079C370.089 323.024 368.47 323.567 366.794 323.648C365.957 323.679 365.125 323.518 364.361 323.177C363.597 322.836 362.923 322.324 362.392 321.682C361.616 320.464 361.147 319.08 361.022 317.645C360.405 314.559 360.102 311.419 360.117 308.273C360.08 308.088 360.084 307.898 360.129 307.715C360.174 307.532 360.258 307.36 360.377 307.213C360.495 307.066 360.644 306.946 360.814 306.862C360.984 306.777 361.17 306.731 361.359 306.725C363.971 306.181 369.175 304.822 370.502 308.001C371.854 311.751 372.586 315.692 372.671 319.674V319.674Z" fill="#FBC4D6"/>
<path d="M383.731 319.36C385.976 319.48 388.194 319.903 390.324 320.615C391.383 320.979 392.356 321.555 393.182 322.307C394.008 323.059 394.67 323.971 395.127 324.987C395.553 325.982 395.605 327.095 395.275 328.125C394.547 329.653 393.269 330.854 391.693 331.493C384.207 335.444 375.761 337.247 367.3 336.701C365.129 336.788 363.009 336.039 361.381 334.61C360.206 332.882 359.657 330.81 359.822 328.731L359.527 318.9C361.434 318.984 363.294 319.507 364.962 320.427C368.08 321.473 369.301 318.963 371.871 318.335C375.221 317.561 380.318 319.025 383.731 319.36Z" fill="#1E90FF"/>
<path d="M342.527 294.969C343.235 294.873 343.955 294.937 344.634 295.157C345.096 295.412 345.498 295.761 345.813 296.182L353.081 304.278C354.492 305.847 355.967 308.001 354.977 309.863C354.628 310.381 354.167 310.815 353.628 311.134C353.088 311.452 352.484 311.647 351.859 311.704C348.339 312.023 344.801 311.334 341.664 309.716C339.431 308.754 337.219 307.625 335.049 306.579C333.437 305.852 332.027 304.746 330.942 303.357C329.277 300.847 328.835 294.823 331.742 292.898C333.238 291.957 334.544 292.626 335.955 293.275C337.973 294.366 340.23 294.948 342.527 294.969V294.969Z" fill="url(#paint4_linear)"/>
<path d="M383.731 319.36C385.976 319.48 388.194 319.903 390.324 320.615C391.383 320.979 392.356 321.555 393.182 322.307C394.008 323.059 394.67 323.971 395.127 324.987C395.553 325.982 395.605 327.095 395.275 328.125C394.547 329.653 393.269 330.854 391.693 331.493C384.207 335.444 375.761 337.247 367.3 336.701C365.129 336.788 363.009 336.039 361.381 334.61C360.206 332.882 359.657 330.81 359.822 328.731L359.527 318.9C361.434 318.984 363.294 319.507 364.962 320.427C368.08 321.473 369.301 318.963 371.871 318.335C375.221 317.561 380.318 319.025 383.731 319.36Z" fill="url(#paint5_linear)"/>
<path d="M263.723 212.844C259.192 212.454 254.632 212.524 250.115 213.053C249.525 213.083 248.952 213.263 248.451 213.576C248.164 213.846 247.933 214.169 247.774 214.529C247.615 214.888 247.53 215.276 247.524 215.668C246.893 221.734 251.737 227.006 256.962 230.206C271.096 238.908 288.917 238.574 304.526 244.264C306.016 244.655 307.338 245.514 308.297 246.711C308.948 248.009 309.266 249.446 309.224 250.895C309.919 259.074 314.49 266.437 316.007 274.49C317.523 282.544 315.901 290.974 317.144 299.09C322.263 293.673 330.984 292.815 336.103 287.46C340.905 282.523 341.853 275.16 342.57 268.34L344.508 249.64C344.867 248.291 344.718 246.859 344.09 245.611C343.462 244.363 342.397 243.386 341.095 242.862C318.05 228.073 291.045 215.187 263.723 212.844Z" fill="url(#paint6_linear)"/>
<path d="M356.917 210.961C359.046 211.385 361.019 212.376 362.625 213.827C364.272 216.105 365.022 218.903 364.732 221.692C364.682 241.541 360.903 261.206 353.588 279.678C353.52 280.327 353.292 280.95 352.925 281.491C352.557 282.033 352.062 282.477 351.482 282.784C350.902 283.092 350.255 283.253 349.598 283.255C348.941 283.257 348.293 283.099 347.711 282.795C343.331 281.62 339.014 280.224 334.777 278.611L340.507 240.958C340.78 239.913 340.722 238.81 340.338 237.799C339.915 237.083 339.322 236.48 338.611 236.042C332.076 231.321 325.173 227.125 317.967 223.491C312.217 220.604 305.623 217.216 304.065 211.107C303.741 210.064 303.676 208.958 303.874 207.884C304.072 206.81 304.527 205.799 305.202 204.937C306.113 204.048 307.185 203.338 308.362 202.845C312.175 200.983 316.977 198.661 321.359 199.038C324.877 199.393 326.225 201.401 329.153 202.887C337.284 206.903 348.09 208.409 356.917 210.961Z" fill="#282328"/>
<path d="M317.775 151.072C320.598 158.791 321.989 166.97 324.474 174.773C325.018 176.841 325.995 178.772 327.339 180.442C329.126 182.144 331.291 183.405 333.659 184.123C336.959 185.392 340.315 186.501 343.728 187.449C346.003 188.056 348.72 189.102 348.973 191.403C349.026 192.17 348.866 192.937 348.509 193.62C347.629 195.179 346.362 196.487 344.828 197.421C343.293 198.355 341.544 198.883 339.746 198.954C336.158 199.05 332.584 198.468 329.214 197.239C326.145 196.622 323.33 195.115 321.125 192.909C319.871 191.074 318.991 189.013 318.534 186.843C315.077 174.657 310.28 162.886 304.231 151.742C302.421 148.799 301.005 145.634 300.018 142.328C298.627 136.555 298.606 122.874 304.61 127.895C309.455 131.953 315.648 145.341 317.775 151.072Z" fill="#FBC4D6"/>
<path d="M294.796 210.229C298.347 208.863 301.802 207.262 305.139 205.439C317.777 198.494 307.435 195.084 303.222 186.738C300.209 180.818 301.431 173.727 302.99 167.305C305.749 156.009 309.436 144.295 306.782 133.02C306.45 131.19 305.732 129.45 304.675 127.916C303.902 126.964 303.01 126.113 302.021 125.385C299.353 123.096 296.282 121.316 292.963 120.134C286.643 118.042 279.481 119.569 273.478 122.561C249.885 134.317 244.851 164 245.798 187.742C246.051 194.331 247.083 201.297 251.36 206.338C255.636 211.38 261.681 213.304 267.875 214.057C277.028 214.987 286.272 213.672 294.796 210.229Z" fill="white"/>
<path d="M259.617 196.8C259.808 199.028 260.53 201.179 261.724 203.075C263.83 206.025 267.706 207.112 271.266 207.97L287.297 211.903C289.251 212.491 291.28 212.794 293.321 212.802C297.703 212.593 301.474 209.811 304.949 207.133C305.838 206.53 306.608 205.771 307.224 204.895C298.377 204.058 289.551 203.18 280.746 201.904C275.564 201.151 270.087 200.105 266.274 196.57C264.304 194.637 262.805 192.283 261.892 189.687C261.261 188.077 260.966 183.977 259.133 183.621C258.671 188.015 258.835 192.451 259.617 196.8V196.8Z" fill="url(#paint7_linear)"/>
<path d="M291.255 138.521C291.253 139.181 290.988 139.813 290.518 140.278C290.08 140.534 289.568 140.637 289.064 140.571C287.414 140.494 285.799 140.067 284.328 139.318C282.858 138.569 281.566 137.516 280.54 136.23C279.514 134.943 278.777 133.453 278.38 131.86C277.983 130.267 277.934 128.608 278.237 126.995C278.616 124.903 279.522 123.104 280.091 121.138C281.207 117.205 281.017 112.771 283.524 109.528C285.694 114.459 288.171 119.252 290.939 123.878C291.647 124.798 292.139 125.863 292.379 126.996C292.62 128.129 292.603 129.3 292.329 130.426L291.255 138.521Z" fill="#FBC4D6"/>
<path d="M292.498 128.396L291.55 134.672C291.55 134.672 280.702 129.338 282.113 119.443C283.524 109.549 292.498 128.396 292.498 128.396Z" fill="url(#paint8_linear)"/>
<path d="M305.18 122.288C304.624 124.299 303.444 126.084 301.81 127.393C301.03 127.917 300.158 128.293 299.24 128.501C296.014 129.123 292.673 128.715 289.695 127.336C286.717 125.957 284.255 123.677 282.661 120.824C281.159 117.934 280.302 114.756 280.15 111.507C279.997 108.258 280.552 105.014 281.777 101.998C282.779 98.6892 285.048 95.9029 288.096 94.237C289.763 93.5844 291.566 93.3517 293.345 93.5598C295.124 93.7678 296.823 94.4101 298.292 95.4293C302.282 98.1959 305.366 102.066 307.16 106.558C308.698 111.139 306.76 117.917 305.18 122.288Z" fill="#FBC4D6"/>
<path d="M352.807 237.256C355.506 240.67 357.64 244.49 359.126 248.573C367.41 268.412 372.794 289.326 375.114 310.679C368.351 311.516 361.508 311.516 354.744 310.679C354.215 295.605 351.874 280.647 347.772 266.123C347.047 262.997 345.801 260.014 344.086 257.296C341.073 252.966 336.123 250.455 331.447 248.113C320.504 242.832 309.068 238.629 297.3 235.562C292.329 234.202 287.315 232.947 282.428 231.378C278.321 229.997 266.798 224.935 263.47 222.195C261.726 220.882 260.267 219.232 259.181 217.345C258.095 215.457 257.404 213.372 257.15 211.213C257.15 212.3 289.253 214.476 291.55 214.225C299.28 213.409 308.401 209.016 316.027 212.133C321.988 214.56 327.444 219.622 332.879 223.115C339.472 227.215 347.519 231.19 352.807 237.256Z" fill="#473F47"/>
<path d="M317.63 235.645L278.449 216.63L324.392 197.281L363.594 214.287L317.63 235.645Z" fill="#1E90FF"/>
<path d="M257.952 146.365C257.952 147.097 257.762 147.809 257.678 148.457C256.519 159.167 257.572 169.668 257.973 180.316C258.225 186.905 259.089 199.456 266.146 202.824C279.333 209.099 304.779 206.715 304.779 206.715C307.73 206.245 310.745 206.366 313.647 207.07C315.227 207.551 316.681 208.367 318.219 208.953C323.78 211.045 329.994 209.999 335.85 208.953C336.859 208.834 337.833 208.514 338.715 208.012C339.737 207.11 340.36 205.846 340.451 204.491C340.542 203.137 340.092 201.802 339.199 200.774C337.298 198.79 334.826 197.439 332.121 196.904C324.726 194.507 316.805 194.202 309.245 196.025C308.279 196.349 307.294 196.614 306.296 196.82C305.126 197.009 303.942 197.093 302.757 197.071H293.783C283.461 197.071 273.729 197.197 272.171 185.211C271.595 180.771 271.482 176.285 271.833 171.823C272.444 163.769 274.572 155.778 274.13 147.725C274.103 145.171 273.46 142.66 272.255 140.404C271.644 139.283 270.754 138.337 269.669 137.656C268.585 136.974 267.343 136.581 266.062 136.513C264.735 136.611 263.456 137.048 262.349 137.781C261.242 138.514 260.344 139.518 259.742 140.696C258.81 142.465 258.203 144.385 257.952 146.365Z" fill="#FBC4D6"/>
<path d="M379.728 175.923L324.96 203.598L317.629 235.645L363.593 214.287L379.728 175.923Z" fill="#1E90FF"/>
<path d="M307.876 110.742C307.816 108.75 307.073 106.839 305.77 105.324C305.108 104.562 304.325 103.912 303.452 103.4C302.231 102.688 301.936 102.626 301.135 103.776C300.103 105.261 299.766 106.998 298.818 108.546C297.781 110.262 296.334 111.699 294.605 112.729C292.662 113.926 290.402 114.517 288.117 114.424C287.209 114.287 286.286 114.287 285.379 114.424C285.074 114.481 284.785 114.604 284.534 114.785C284.283 114.966 284.075 115.2 283.925 115.469C283.708 116.252 283.629 117.066 283.693 117.875C283.504 119.967 281.418 121.452 280.26 123.272C279.101 125.092 278.764 127.79 277.374 129.736C277.116 130.126 276.76 130.443 276.342 130.656C275.352 131.075 274.235 130.531 273.203 130.342C270.149 129.819 267.684 132.643 265.072 134.359C259.827 137.789 252.96 136.911 246.766 135.886C244.87 135.658 243.022 135.136 241.29 134.338C239.418 133.241 237.757 131.825 236.381 130.154C234.085 127.644 231.81 125.092 229.556 122.54C228.719 121.723 228.053 120.749 227.597 119.674C227.356 118.925 227.291 118.13 227.408 117.352C227.613 115.899 228.047 114.488 228.693 113.168C230.336 109.508 232.253 105.533 235.96 103.881C239.668 102.228 244.049 103.462 248.136 103.044C248.634 103.043 249.119 102.89 249.526 102.605C249.851 102.24 250.083 101.802 250.2 101.329C251.906 95.7017 254.034 89.5935 259.132 86.6859C263.06 84.8121 267.488 84.2331 271.771 85.0333C276.011 85.829 280.337 86.0751 284.641 85.7655C286.748 85.4308 288.854 84.7405 290.961 84.3221C295.887 83.2352 301.043 83.9794 305.454 86.4139C307.63 87.7002 309.451 89.5032 310.753 91.661C312.054 93.8189 312.796 96.2639 312.911 98.7767C312.826 99.758 312.826 100.745 312.911 101.726C313.058 102.647 313.458 103.546 313.606 104.466C313.692 105.262 313.608 106.067 313.358 106.828C313.109 107.588 312.7 108.288 312.159 108.881C311.618 109.474 310.956 109.946 310.218 110.267C309.48 110.588 308.682 110.749 307.876 110.742V110.742Z" fill="#FF681C"/>
<path d="M256.035 152.306C255.385 158.227 255.315 164.195 255.824 170.129C255.798 170.644 255.931 171.154 256.203 171.593C256.651 172.08 257.268 172.379 257.93 172.43C261.342 173.061 264.803 173.39 268.273 173.413C268.76 173.568 269.275 173.614 269.782 173.548C270.289 173.482 270.775 173.306 271.206 173.032C271.636 172.759 272 172.394 272.273 171.964C272.545 171.535 272.719 171.051 272.781 170.547C274.677 162.682 276.552 154.817 277.984 146.847C278.553 143.646 278.953 140.048 277.015 137.454C274.214 133.689 266.651 133.271 263.007 136.011C258.604 139.379 256.73 147.244 256.035 152.306Z" fill="white"/>
<path d="M315.65 142.265L321.611 156.448C321.906 156.999 322.024 157.627 321.948 158.247C321.797 158.756 321.505 159.212 321.106 159.565C318.194 162.623 314.737 165.119 310.91 166.928C307.382 163.798 304.518 160 302.484 155.758C300.504 150.716 300.947 145.11 301.536 139.734C301.895 136.324 301.768 125.363 307.603 129.61C311.669 132.517 313.817 137.893 315.65 142.265Z" fill="white"/>
<path d="M207.817 275.306C207.819 277.239 207.424 279.153 206.657 280.929C205.889 282.706 204.764 284.309 203.352 285.639C200.917 287.93 197.78 289.344 194.441 289.656C193.817 289.687 193.191 289.687 192.566 289.656L87.9366 287.564C83.9198 287.521 80.0784 285.923 77.23 283.11C74.3817 280.297 72.7512 276.491 72.6856 272.503C72.6836 270.569 73.0787 268.656 73.8465 266.879C74.6143 265.102 75.7388 263.5 77.1513 262.169C78.5836 260.801 80.2735 259.728 82.1242 259.01C83.9749 258.292 85.9501 257.944 87.9366 257.985H91.4966C90.7503 255.415 90.3744 252.753 90.3801 250.078C90.373 246.266 91.1504 242.492 92.6645 238.988C94.1786 235.485 96.3976 232.325 99.1853 229.704C101.641 227.37 104.494 225.486 107.611 224.139C111.647 222.391 116.017 221.534 120.419 221.629L129.308 221.817C134.804 221.919 140.174 223.472 144.864 226.318C149.555 229.164 153.398 233.199 155.998 238.008C158.568 236.817 161.377 236.223 164.213 236.272H166.509C171.269 236.331 175.819 238.23 179.194 241.565C182.568 244.9 184.501 249.409 184.583 254.136V254.994C184.591 256.616 184.357 258.23 183.888 259.784L192.545 259.972C196.613 260.011 200.5 261.644 203.361 264.516C206.221 267.388 207.823 271.266 207.817 275.306V275.306Z" fill="white"/>
<path d="M194.441 289.656C193.817 289.688 193.191 289.688 192.566 289.656L87.9366 287.564C83.9197 287.521 80.0784 285.923 77.23 283.11C74.3817 280.297 72.7512 276.492 72.6856 272.503C72.6836 270.57 73.0787 268.656 73.8465 266.879C74.6143 265.103 75.7388 263.5 77.1513 262.169C73.0437 287.815 100.007 284.155 100.007 284.155H167.983L194.441 289.656Z" fill="url(#paint9_linear)"/>
<path d="M99.0808 261.082L91.4974 258.216C90.7511 255.646 90.3752 252.984 90.3809 250.309C90.3738 246.496 91.1511 242.722 92.6653 239.219C94.1794 235.715 96.3984 232.556 99.1861 229.934C101.642 227.601 104.495 225.717 107.612 224.37C86.6103 242.276 99.0808 261.082 99.0808 261.082Z" fill="url(#paint10_linear)"/>
<path d="M483.809 153.728C483.811 155.664 483.414 157.579 482.642 159.356C481.871 161.133 480.741 162.735 479.322 164.062C476.88 166.352 473.736 167.766 470.391 168.078C469.767 168.131 469.14 168.131 468.516 168.078L363.907 165.986C359.925 165.934 356.118 164.35 353.286 161.569C350.454 158.788 348.817 155.026 348.72 151.072C348.698 149.119 349.081 147.182 349.846 145.383C350.61 143.583 351.74 141.959 353.164 140.613C356.078 137.871 359.957 136.369 363.971 136.429H367.51C366.773 133.864 366.398 131.21 366.393 128.543C366.387 124.73 367.165 120.957 368.679 117.453C370.193 113.95 372.412 110.79 375.198 108.168C377.655 105.83 380.507 103.939 383.624 102.583C387.659 100.832 392.03 99.9759 396.432 100.073L405.321 100.261C410.817 100.362 416.186 101.918 420.874 104.767C425.562 107.617 429.4 111.658 431.989 116.473C434.554 115.264 437.367 114.67 440.205 114.737H442.501C447.263 114.785 451.818 116.676 455.198 120.009C458.577 123.341 460.514 127.851 460.596 132.58V133.438C460.594 135.067 460.353 136.688 459.88 138.249L468.537 138.416C472.598 138.466 476.476 140.099 479.333 142.964C482.191 145.829 483.799 149.696 483.809 153.728V153.728Z" fill="white"/>
<path d="M470.412 168.079C469.788 168.132 469.161 168.132 468.537 168.079L363.929 165.987C359.942 165.939 356.13 164.358 353.294 161.577C350.457 158.795 348.818 155.029 348.72 151.072C348.698 149.119 349.081 147.182 349.846 145.383C350.61 143.584 351.74 141.96 353.164 140.613C348.951 166.28 376.02 162.598 376.02 162.598H443.997L470.412 168.079Z" fill="url(#paint11_linear)"/>
<path d="M375.072 139.504L367.468 136.638C366.732 134.073 366.356 131.419 366.352 128.752C366.346 124.94 367.124 121.166 368.638 117.663C370.152 114.16 372.37 111 375.157 108.378C377.613 106.039 380.466 104.149 383.583 102.792C362.602 120.699 375.072 139.504 375.072 139.504Z" fill="url(#paint12_linear)"/>
<path d="M285.526 114.465C285.221 114.522 284.933 114.646 284.681 114.827C284.43 115.007 284.222 115.241 284.073 115.511C283.855 116.293 283.777 117.107 283.841 117.917C283.651 120.008 281.566 121.494 280.407 123.313C279.249 125.133 278.912 127.832 277.521 129.777C277.263 130.168 276.908 130.485 276.489 130.698C275.499 131.116 274.383 130.572 273.35 130.384C270.296 129.861 267.831 132.685 265.219 134.4C259.974 137.831 253.107 136.952 246.914 135.927C244.965 135.701 243.066 135.165 241.29 134.337C239.418 133.241 237.757 131.824 236.381 130.154C234.085 127.644 231.81 125.092 229.556 122.539C228.719 121.722 228.053 120.748 227.597 119.674C227.356 118.924 227.291 118.13 227.408 117.352C228.39 116.763 229.41 116.239 230.462 115.783C233.691 114.062 237.466 113.65 240.995 114.632C243.817 115.72 245.819 118.209 248.241 119.987C251.619 122.336 255.729 123.416 259.835 123.032C263.941 122.649 267.776 120.828 270.654 117.896C271.716 116.507 272.963 115.268 274.362 114.214C276.868 112.854 281.966 113.063 285.526 114.465Z" fill="url(#paint13_linear)"/>
</g>
<defs>
<linearGradient id="paint0_linear" x1="421.121" y1="372.995" x2="411.71" y2="250.905" gradientUnits="userSpaceOnUse">
<stop offset="0.01"/>
<stop offset="0.13" stop-opacity="0.69"/>
<stop offset="0.25" stop-opacity="0.32"/>
<stop offset="1" stop-opacity="0"/>
</linearGradient>
<linearGradient id="paint1_linear" x1="3154.47" y1="5792.4" x2="4177.45" y2="5569" gradientUnits="userSpaceOnUse">
<stop offset="0.01"/>
<stop offset="0.13" stop-opacity="0.69"/>
<stop offset="0.25" stop-opacity="0.32"/>
<stop offset="1" stop-opacity="0"/>
</linearGradient>
<linearGradient id="paint2_linear" x1="12436.6" y1="63813" x2="119.066" y2="-25813.9" gradientUnits="userSpaceOnUse">
<stop offset="0.01"/>
<stop offset="0.13" stop-opacity="0.69"/>
<stop offset="0.25" stop-opacity="0.32"/>
<stop offset="1" stop-opacity="0"/>
</linearGradient>
<linearGradient id="paint3_linear" x1="22882.5" y1="46085.8" x2="17433.5" y2="-20200.7" gradientUnits="userSpaceOnUse">
<stop offset="0.01"/>
<stop offset="0.13" stop-opacity="0.69"/>
<stop offset="0.25" stop-opacity="0.32"/>
<stop offset="1" stop-opacity="0"/>
</linearGradient>
<linearGradient id="paint4_linear" x1="-22501.9" y1="3108.78" x2="-22931.5" y2="3391.63" gradientUnits="userSpaceOnUse">
<stop offset="0.01"/>
<stop offset="0.13" stop-opacity="0.69"/>
<stop offset="0.25" stop-opacity="0.32"/>
<stop offset="1" stop-opacity="0"/>
</linearGradient>
<linearGradient id="paint5_linear" x1="-31795.2" y1="3505.51" x2="-31918.5" y2="2971.67" gradientUnits="userSpaceOnUse">
<stop offset="0.01"/>
<stop offset="0.13" stop-opacity="0.69"/>
<stop offset="0.25" stop-opacity="0.32"/>
<stop offset="1" stop-opacity="0"/>
</linearGradient>
<linearGradient id="paint6_linear" x1="-91005.2" y1="7691.79" x2="-96874.4" y2="16836.2" gradientUnits="userSpaceOnUse">
<stop offset="0.01"/>
<stop offset="0.13" stop-opacity="0.69"/>
<stop offset="0.25" stop-opacity="0.32"/>
<stop offset="1" stop-opacity="0"/>
</linearGradient>
<linearGradient id="paint7_linear" x1="7740.63" y1="2413.64" x2="6779.66" y2="4732.77" gradientUnits="userSpaceOnUse">
<stop offset="0.01"/>
<stop offset="0.13" stop-opacity="0.69"/>
<stop offset="0.25" stop-opacity="0.32"/>
<stop offset="1" stop-opacity="0"/>
</linearGradient>
<linearGradient id="paint8_linear" x1="-8266.53" y1="1138.7" x2="-8480.01" y2="1409.61" gradientUnits="userSpaceOnUse">
<stop offset="0.01"/>
<stop offset="0.13" stop-opacity="0.69"/>
<stop offset="0.25" stop-opacity="0.32"/>
<stop offset="1" stop-opacity="0"/>
</linearGradient>
<linearGradient id="paint9_linear" x1="8826.91" y1="4789.03" x2="8798.53" y2="3174.02" gradientUnits="userSpaceOnUse">
<stop offset="0.01"/>
<stop offset="0.13" stop-opacity="0.69"/>
<stop offset="0.25" stop-opacity="0.32"/>
<stop offset="1" stop-opacity="0"/>
</linearGradient>
<linearGradient id="paint10_linear" x1="553.901" y1="5111.42" x2="1576.91" y2="4888.14" gradientUnits="userSpaceOnUse">
<stop offset="0.01"/>
<stop offset="0.13" stop-opacity="0.69"/>
<stop offset="0.25" stop-opacity="0.32"/>
<stop offset="1" stop-opacity="0"/>
</linearGradient>
<linearGradient id="paint11_linear" x1="25042.7" y1="3068.03" x2="25014.3" y2="1453.59" gradientUnits="userSpaceOnUse">
<stop offset="0.01"/>
<stop offset="0.13" stop-opacity="0.69"/>
<stop offset="0.25" stop-opacity="0.32"/>
<stop offset="1" stop-opacity="0"/>
</linearGradient>
<linearGradient id="paint12_linear" x1="3087.49" y1="2856.54" x2="4110.47" y2="2633.13" gradientUnits="userSpaceOnUse">
<stop offset="0.01"/>
<stop offset="0.13" stop-opacity="0.69"/>
<stop offset="0.25" stop-opacity="0.32"/>
<stop offset="1" stop-opacity="0"/>
</linearGradient>
<linearGradient id="paint13_linear" x1="9179.23" y1="2006.22" x2="7983.88" y2="-245.429" gradientUnits="userSpaceOnUse">
<stop offset="0.01"/>
<stop offset="0.13" stop-opacity="0.69"/>
<stop offset="0.25" stop-opacity="0.32"/>
<stop offset="1" stop-opacity="0"/>
</linearGradient>
<clipPath id="clip0">
<rect width="644" height="482" fill="white"/>
</clipPath>
</defs>
</svg>
