<svg width="783" height="590" viewBox="0 0 783 590" fill="none" xmlns="http://www.w3.org/2000/svg">
<g clip-path="url(#clip0)">
<path opacity="0.18" d="M339.093 52.698C332.974 55.5313 326.962 58.6008 321.058 61.9707C252.033 101.251 203.726 174.981 128.153 199.472C107.692 206.105 85.7287 207.929 69.1971 222.439C57.2692 233.322 46.8888 245.787 38.3451 259.487C20.2803 287.875 8.29177 319.695 3.13478 352.943C-7.19215 417.337 7.25695 489.844 58.5051 533.954C97.0218 567.138 154.346 568.812 202.588 559.84C230.263 554.71 256.778 544.707 284.173 538.118C332.069 526.644 381.893 525.757 430.167 535.521C462.007 541.96 492.773 553.057 524.634 559.861C547.521 564.777 571.352 567.503 594.711 564.476C617.125 561.578 634.409 550.889 654.826 542.26C693.665 525.797 732.976 504.805 757.731 469.41C776.773 441.673 785.57 408.177 782.614 374.666C779.393 341.205 765.696 309.613 743.475 284.386C733.62 273.053 720.738 263.05 715.929 248.626C711.12 234.202 710.368 217.374 708.865 202.585C705.602 170.152 701.695 136.796 685.893 108.291C668.331 76.6095 637.221 53.9215 603.278 41.1501C569.334 28.3787 532.642 24.7298 496.38 24.3005C442.684 23.7639 387.571 30.2032 339.093 52.698Z" fill="#61C79F"/>
<path d="M697.271 335.536L660.773 361.293L498.719 475.119C486.274 484.086 473.312 492.313 459.902 499.761C448.974 505.663 442.726 516.932 429.501 519.937C422.933 521.079 416.209 520.962 409.685 519.594C399.017 517.858 388.521 515.193 378.317 511.63C377.072 511.201 375.29 510.944 374.732 512.146C374.174 513.348 377.179 513.219 376.127 512.403C281.124 499.524 190.35 465.181 96.2054 447.151C95.1116 446.949 94.1133 446.396 93.3608 445.577C92.6083 444.758 92.1425 443.716 92.0335 442.61C91.9245 441.503 92.1782 440.391 92.7564 439.44C93.3346 438.49 94.206 437.754 95.2393 437.342C102.818 434.251 111.084 433.049 119.436 431.418C134.464 428.649 149.279 425.944 164.264 423.497C194.467 418.267 224.96 414.883 255.575 413.366C306.415 411.219 357.728 416.65 408.01 408.773C455.78 401.303 500.738 382.221 545.18 363.118C555.915 358.524 566.843 353.759 575.237 345.688C581.829 339.356 587.11 331.007 595.505 326.842C604.222 322.55 614.828 323.301 624.188 323.73C648.879 324.825 673.268 329.848 697.271 335.536Z" fill="url(#paint0_linear)"/>
<path d="M100.328 415.191L312.534 322.893C317.131 320.587 322.318 319.727 327.413 320.425L589.88 342.726C594.904 343.435 594.002 365.028 589.88 368.484L434.869 500.405C430.2 504.525 424.611 507.467 418.571 508.983C412.53 510.499 406.214 510.546 400.152 509.119L102.196 436.677C98.3956 435.754 96.7639 416.951 100.328 415.191Z" fill="#61C79F"/>
<path d="M100.328 415.191L312.534 322.893C317.131 320.587 322.318 319.727 327.413 320.425L589.88 342.726C594.904 343.435 594.002 365.028 589.88 368.484L434.869 500.405C430.2 504.525 424.611 507.467 418.571 508.983C412.53 510.499 406.214 510.546 400.152 509.119L102.196 436.677C98.3956 435.754 96.7639 416.951 100.328 415.191Z" fill="url(#paint1_linear)"/>
<path d="M589.945 353.18L434.933 485.1C430.268 489.228 424.68 492.175 418.639 493.695C412.598 495.215 406.28 495.264 400.217 493.836L102.196 421.372C98.3957 420.449 97.9019 414.439 101.444 412.658L183.115 366.573L204.585 354.51L269.874 317.828C274.47 315.52 279.658 314.66 284.753 315.359L587.304 341.675C592.328 342.276 594.002 349.724 589.945 353.18Z" fill="#61C79F"/>
<path d="M284.731 322.55L561.282 363.44L476.155 432.555L192.347 375.138L284.731 322.55Z" fill="url(#paint2_linear)"/>
<path d="M564.632 370.909C563.816 373.378 561.133 374.644 558.707 375.61C541.02 382.244 522.987 387.919 504.689 392.61C487.32 397.397 469.199 402.226 451.466 399.049C449.239 398.47 446.929 398.281 444.638 398.491C440.859 399.178 438.068 402.248 435.127 404.673C420.463 416.736 399.036 413.989 380.358 410.597C381.166 404.441 381.567 398.239 381.56 392.03C331.601 392.928 281.657 389.524 232.281 381.856C221.546 380.204 192.541 378.894 185.22 369.986C184.315 369.004 183.588 367.87 183.073 366.638L204.542 354.575C205.515 354.617 206.48 354.769 207.419 355.026C264.546 370.863 323.921 377.03 383.085 373.27C384.609 365.565 376.644 355.927 382.698 350.819C384.691 349.401 387.104 348.698 389.547 348.822C398.611 348.47 407.622 350.357 415.783 354.317C420.614 356.678 425.165 359.769 430.382 361.1C435.487 362.113 440.724 362.28 445.883 361.594C478.822 359.129 511.872 358.499 544.88 359.705C550.312 359.898 556.001 360.22 560.617 363.075C563.323 364.706 565.663 367.883 564.632 370.909Z" fill="url(#paint3_linear)"/>
<path d="M255.79 392.266L369.751 415.298L310.817 463.357L192.347 436.784L255.79 392.266Z" fill="url(#paint4_linear)"/>
<path d="M198.809 445.112C199.974 447.453 201.624 449.518 203.649 451.172C205.674 452.827 208.027 454.031 210.553 454.707C218.926 456.725 267.727 469.217 267.727 469.217C267.727 469.217 275.671 470.161 280.072 464.924L198.809 445.112Z" fill="url(#paint5_linear)"/>
<path d="M276.057 315.23L588.184 359.641C590.471 359.959 592.794 359.392 594.678 358.056C596.561 356.719 597.863 354.714 598.317 352.45L642.846 127.652C643.322 125.253 643.288 122.78 642.745 120.395C642.202 118.01 641.162 115.766 639.694 113.81C638.225 111.854 636.361 110.229 634.222 109.041C632.083 107.854 629.717 107.13 627.28 106.917L319.039 79.8936C314.503 79.4963 309.991 80.8916 306.471 83.7805C302.952 86.6695 300.704 90.822 300.211 95.348L276.057 315.23Z" fill="#61C79F"/>
<path d="M276.057 315.23L587.368 359.512C589.883 359.868 592.439 359.248 594.511 357.779C596.583 356.31 598.015 354.103 598.511 351.613L642.846 127.652C643.322 125.253 643.288 122.78 642.745 120.395C642.202 118.01 641.162 115.766 639.694 113.81C638.225 111.854 636.361 110.229 634.222 109.041C632.083 107.854 629.717 107.13 627.28 106.917L319.039 79.8936C314.503 79.4963 309.991 80.8916 306.471 83.7805C302.952 86.6695 300.704 90.822 300.211 95.348L276.057 315.23Z" fill="url(#paint6_linear)"/>
<path d="M582.537 346.719L626.872 119.903L312.534 90.8833L287.543 305.636L582.537 346.719Z" fill="white"/>
<path d="M556.688 161.137L336.215 138.191L341.218 110.287L561.755 133.233C563.618 133.353 565.436 133.864 567.09 134.732C568.743 135.6 570.196 136.806 571.354 138.271C572.511 139.736 573.348 141.428 573.81 143.237C574.272 145.046 574.349 146.932 574.035 148.773C573.189 152.616 570.946 156.008 567.741 158.292C564.536 160.577 560.598 161.59 556.688 161.137Z" fill="#61C79F"/>
<path opacity="0.56" d="M336.215 138.191L514.307 156.758L519.309 128.768L341.218 110.18L336.215 138.191Z" fill="white"/>
<path d="M545.973 150.244C549.739 148.772 551.696 144.777 550.344 141.321C548.992 137.865 544.844 136.258 541.078 137.73C537.312 139.202 535.356 143.197 536.707 146.653C538.059 150.108 542.208 151.716 545.973 150.244Z" stroke="white" stroke-width="1.15777" stroke-miterlimit="10"/>
<path d="M548.1 155.599C547.949 155.234 546.082 150.147 546.082 150.147" stroke="white" stroke-width="1.15777" stroke-miterlimit="10"/>
<path opacity="0.18" d="M554.562 201.533L329.56 177.45L330.74 173.758L555.721 197.841L554.562 201.533Z" fill="#61C79F"/>
<path opacity="0.18" d="M409.556 171.998L333.575 163.004L335.121 156.393L411.123 164.678L409.556 171.998Z" fill="#61C79F"/>
<path opacity="0.18" d="M551.771 216.408L326.769 192.325L327.928 188.633L552.93 212.716L551.771 216.408Z" fill="#61C79F"/>
<g opacity="0.66">
<path opacity="0.18" d="M397.468 231.411L321.486 222.439L323.032 215.807L399.035 224.092L397.468 231.411Z" fill="#61C79F"/>
<path opacity="0.18" d="M541.873 262.277L316.871 238.194L318.051 234.481L543.054 258.586L541.873 262.277Z" fill="#61C79F"/>
<path opacity="0.18" d="M536.742 279.492L311.74 255.409L312.921 251.717L537.902 275.8L536.742 279.492Z" fill="#61C79F"/>
</g>
<path opacity="0.18" d="M532.384 316.69L307.618 287.348L308.778 283.678L533.544 313.02L532.384 316.69Z" fill="#61C79F"/>
<path d="M407.667 295.011C407.667 295.011 177.726 371.124 146.295 302.802C114.863 234.481 286.985 215.764 286.985 215.764C286.985 215.764 85.8573 235.79 130.987 320.189C176.116 404.587 421.386 321.133 421.386 321.133L407.667 295.011Z" fill="white"/>
<path d="M408.204 291.855C408.3 294.982 409.155 298.039 410.694 300.763L416.362 312.869C417.571 315.881 419.268 318.673 421.386 321.133C423.046 322.809 425.076 324.071 427.314 324.817C429.552 325.562 431.934 325.771 434.268 325.426C435.369 325.353 436.433 325 437.357 324.398C438.282 323.797 439.037 322.968 439.549 321.991C440.516 319.48 438.884 316.797 437.574 314.457C434.053 308.168 432.55 300.999 430.876 294.002C429.587 288.55 426.968 280.865 420.313 280.093C414.43 279.406 408.547 286.124 408.204 291.855Z" fill="#61C79F"/>
<path d="M465.957 263.651C465.957 263.651 417.306 219.155 369.751 263.651C369.751 263.651 406.507 258.907 417.843 279.148L465.957 263.651Z" fill="#61C79F"/>
<path d="M485.838 304.327C485.838 304.327 483.519 370.223 418.445 373.013C418.445 373.013 447.579 350.11 441.074 327.83L485.838 304.327Z" fill="#61C79F"/>
<path d="M417.843 279.191C417.843 279.191 571.244 191.187 657.488 205.268C657.488 205.268 637.994 268.631 441.009 327.83L417.843 279.191Z" fill="white"/>
<path d="M657.595 205.225C657.595 205.225 638.101 268.588 441.116 327.787L434.096 313.041L417.843 279.192C417.843 279.192 554.004 200.975 641.88 203.765C647.144 203.908 652.394 204.396 657.595 205.225Z" fill="url(#paint7_linear)"/>
<path d="M657.596 205.225C643.963 223.105 596.901 256.053 500.159 291.19C494.691 293.194 489.059 295.197 483.262 297.2C468.018 302.466 451.63 307.746 434.096 313.041L417.865 279.192C417.865 279.192 434.633 269.125 460.268 256.332C473.794 249.571 489.789 242.058 507.093 234.867C555.379 214.798 613.905 197.09 657.596 205.225Z" fill="white"/>
<path d="M539.383 238.087C531.203 241.5 522.014 240.942 513.169 241.521C510.54 241.626 507.931 242.037 505.397 242.745C500.394 244.68 495.831 247.6 491.978 251.33C491.455 251.69 491.063 252.21 490.862 252.812C490.804 253.437 490.955 254.063 491.291 254.593C493.249 258.583 495.503 262.422 498.033 266.077C501.038 270.369 504.581 274.941 504.474 280.222C504.169 284.265 502.599 288.11 499.986 291.211L499.342 292.113C496.245 296.282 492.882 300.247 489.273 303.983C486.611 306.73 488.328 315.123 481.888 313.105C476.284 311.367 479.011 304.713 480.921 301.214L483.068 297.222L486.675 290.546C489.423 285.502 492.214 279.513 489.896 274.255C488.264 270.584 484.507 268.373 480.986 266.399C474.341 262.461 467.374 259.093 460.16 256.332C473.686 249.57 489.681 242.058 506.986 234.867C518.282 235.815 529.631 235.98 540.951 235.361C541.895 236.262 540.564 237.593 539.383 238.087Z" fill="url(#paint8_linear)"/>
<path d="M520.275 275.993C530.022 275.993 537.923 268.094 537.923 258.349C537.923 248.605 530.022 240.706 520.275 240.706C510.528 240.706 502.627 248.605 502.627 258.349C502.627 268.094 510.528 275.993 520.275 275.993Z" fill="#61C79F"/>
<path d="M520.275 269.769C526.915 269.769 532.298 264.387 532.298 257.749C532.298 251.11 526.915 245.729 520.275 245.729C513.635 245.729 508.252 251.11 508.252 257.749C508.252 264.387 513.635 269.769 520.275 269.769Z" fill="url(#paint9_linear)"/>
<path d="M493.889 219.928C493.889 220.035 491.355 219.606 491.42 219.734C491.999 220.417 492.736 220.947 493.567 221.28C496.604 222.506 499.716 223.538 502.884 224.371C506.041 224.693 507.565 221.709 508.552 219.198C509.347 217.18 510.163 215.163 511 213.166C511.642 211.882 512.05 210.494 512.202 209.067C512.234 208.739 512.19 208.409 512.074 208.101C511.869 207.705 511.524 207.399 511.107 207.242C510.474 206.984 509.765 206.984 509.132 207.242C507.973 207.736 507.436 209.045 506.856 210.161C505.504 212.716 503.378 214.798 502.219 217.438C501.352 217.492 500.497 217.207 499.836 216.644L496.079 214.197C495.898 214.053 495.684 213.957 495.456 213.918C495.27 213.908 495.085 213.944 494.917 214.023C494.748 214.101 494.602 214.22 494.49 214.368C493.815 215.184 493.409 216.189 493.33 217.245C493.223 217.783 493.223 218.337 493.33 218.876C493.465 219.252 493.653 219.606 493.889 219.928Z" fill="#FCAB9A"/>
<path d="M496.787 214.09L498.119 214.905C498.312 214.905 498.505 215.12 498.569 215.335C498.612 215.489 498.612 215.652 498.569 215.807L497.689 219.713C497.421 221.462 496.793 223.136 495.843 224.629C495.327 225.337 491.549 222.718 490.905 222.375C489.298 221.309 487.895 219.964 486.761 218.404C486.237 217.769 485.836 217.041 485.58 216.258C485.193 214.278 485.496 212.225 486.439 210.441C487.942 207.5 490.475 208.96 492.386 210.763C493.746 212.007 495.219 213.121 496.787 214.09Z" fill="#61C79F"/>
<path d="M472.549 311.581C472.614 311.863 472.764 312.117 472.978 312.311C476.04 315.296 479.688 317.613 483.692 319.115C483.935 319.251 484.208 319.325 484.486 319.33C484.753 319.274 484.991 319.124 485.156 318.907C485.322 318.69 485.404 318.421 485.388 318.149C485.334 317.605 485.133 317.086 484.808 316.647C484.02 315.4 483.137 314.216 482.167 313.105C481.263 312.358 480.685 311.288 480.557 310.122C480.641 309.541 480.793 308.972 481.008 308.426C481.652 306 477.616 305.507 475.92 306.086C474.961 306.668 474.155 307.47 473.568 308.425C472.982 309.381 472.632 310.463 472.549 311.581Z" fill="#FCAB9A"/>
<path d="M462.672 243.41C462.672 243.41 455.35 253.627 462.886 262.728C468.103 269.039 475.94 273.332 483.154 276.938C484.42 277.582 485.923 278.097 487.147 278.87C489.53 280.372 488.07 281.638 486.804 283.635C483.626 288.743 480.42 293.816 477.185 298.853C475.315 301.403 474.033 304.335 473.428 307.439L481.608 309.929C486.015 302.418 491.042 295.288 496.637 288.614C499.063 285.738 502.197 282.175 501.746 278.183C501.181 274.487 499.555 271.035 497.066 268.245L481.758 250.472L462.672 243.41Z" fill="#473F47"/>
<path d="M498.226 194.578C498.484 195.33 499.214 195.931 499.321 196.725C499.429 197.519 498.613 198.463 498.076 199.343C497.539 200.223 497.174 201.919 496.444 203.1C496.314 203.359 496.103 203.57 495.843 203.701C495.609 203.786 495.362 203.829 495.113 203.829C494.137 203.801 493.17 203.643 492.236 203.357C492.07 203.252 491.873 203.206 491.678 203.228C491.515 203.325 491.393 203.477 491.335 203.658C490.243 205.916 489.719 208.406 489.81 210.913C489.81 211.728 489.81 212.759 489.145 213.167C488.903 213.325 488.617 213.4 488.329 213.381C486.439 213.381 485.001 211.685 484.035 210.011C483.244 208.506 482.632 206.914 482.21 205.268C482.056 204.79 481.998 204.287 482.038 203.787C482.138 203.204 482.342 202.644 482.639 202.134C483.592 200.274 484.361 198.326 484.937 196.317C485.437 193.685 486.335 191.145 487.599 188.783C488.089 188.033 488.803 187.455 489.638 187.13C490.594 186.921 491.587 186.973 492.515 187.28C494.455 187.591 496.2 188.637 497.389 190.199C497.754 190.758 497.926 193.612 498.226 194.578Z" fill="#FCAB9A"/>
<path d="M479.397 251.803C477.757 252.064 476.08 251.969 474.48 251.523C472.135 251.054 469.736 250.917 467.352 251.116C465.936 251.471 464.551 251.937 463.209 252.511C462.12 252.804 460.98 252.858 459.868 252.669C458.756 252.48 457.699 252.052 456.768 251.416C456.768 251.094 456.768 250.751 456.768 250.429C457.09 247.553 455.887 243.474 456.768 240.705C459.924 229.651 462.607 221.387 468.898 211.9C470.702 209.174 477.808 205.675 480.728 204.216C481.392 203.859 482.123 203.647 482.875 203.593C483.74 203.628 484.585 203.864 485.344 204.28C487.942 205.547 488.951 207.908 490.218 210.355C491.693 212.847 492.698 215.59 493.18 218.447C493.502 222.139 494.812 225.594 492.708 229.029C489.81 233.858 485 237.121 482.317 242.337C481.841 243.09 481.574 243.957 481.544 244.848C481.544 246.093 482.424 247.231 482.424 248.476C482.336 249.279 481.996 250.034 481.452 250.632C480.908 251.229 480.188 251.639 479.397 251.803Z" fill="#61C79F"/>
<path d="M495.95 234.395C496.98 234.867 498.097 235.275 498.977 235.618C504.023 237.226 509.254 238.178 514.542 238.452C521.194 239.291 527.917 239.414 534.595 238.817C537.323 238.607 539.966 237.778 542.324 236.391C543.011 235.94 543.72 235.125 543.376 234.373C543.177 234.039 542.876 233.776 542.518 233.622C539.939 232.262 537.031 231.652 534.123 231.862C534.123 230.853 533.865 229.565 532.878 229.479C531.89 229.394 531.31 230.746 530.731 231.626C529.442 233.772 526.437 234.009 524.032 233.987C518.474 234.069 512.926 233.499 507.5 232.291C504.781 231.643 502.144 230.685 499.642 229.437C498.032 228.621 494.79 225.251 493.202 227.054C491.613 228.857 490.131 230.059 492.278 231.969C493.372 232.959 494.61 233.777 495.95 234.395Z" fill="#FCAB9A"/>
<path d="M487.577 213.682C487.577 213.682 495.994 225.552 497.217 226.26C498.441 226.969 489.66 235.597 489.66 235.597C489.66 235.597 479.483 224.586 478.303 218.962C477.122 213.339 482.382 209.475 487.577 213.682Z" fill="#61C79F"/>
<path d="M497.325 189.04C496.963 189.534 496.504 189.949 495.976 190.259C495.448 190.569 494.862 190.768 494.254 190.843C493.196 191.012 492.127 191.105 491.055 191.122C491.055 191.122 490.862 191.122 490.798 191.122C490.759 191.166 490.729 191.217 490.711 191.272C490.692 191.328 490.685 191.386 490.69 191.444C490.645 192.269 490.432 193.075 490.062 193.814C489.693 194.552 489.176 195.207 488.543 195.737C488.377 195.842 488.243 195.99 488.157 196.167C488.07 196.417 488.07 196.689 488.157 196.939C488.307 197.799 488.307 198.677 488.157 199.537C488.035 200.409 487.627 201.217 486.998 201.833C486.841 201.941 486.727 202.101 486.676 202.284C486.675 202.443 486.719 202.6 486.804 202.735C487.1 203.632 487.039 204.608 486.633 205.461C485.825 204.841 484.89 204.408 483.895 204.193C482.9 203.978 481.87 203.986 480.879 204.216C480.276 204.268 479.705 204.508 479.247 204.903C476.37 207.929 474.008 211.514 470.981 214.433C469.693 215.678 468.255 216.773 467.052 218.125C465.239 220.336 463.79 222.821 462.758 225.487C461.971 227.577 460.925 229.56 459.645 231.39C459.002 232.299 458.185 233.073 457.242 233.666C456.299 234.259 455.248 234.66 454.149 234.846C453.109 234.931 452.062 234.8 451.075 234.46C450.089 234.12 449.183 233.579 448.417 232.871C447.076 231.643 446.12 230.053 445.662 228.293C445.205 226.534 445.267 224.68 445.84 222.954C446.12 222.42 446.196 221.802 446.055 221.216C445.888 220.891 445.654 220.606 445.368 220.379C444.052 219.008 443.317 217.181 443.317 215.281C443.317 213.381 444.052 211.554 445.368 210.183C446.806 208.831 450.263 207.521 450.456 205.289C450.649 203.057 448.653 200.846 449.469 198.27C449.764 197.487 450.192 196.761 450.735 196.124C451.77 194.603 453.174 193.37 454.815 192.539C456.475 191.98 458.215 191.697 459.967 191.702C465.592 191.316 471.475 189.556 475.189 185.263C476.025 184.15 476.944 183.103 477.937 182.129C479.102 181.228 480.429 180.558 481.845 180.154C485.251 178.851 489.009 178.798 492.451 180.004C493.647 180.503 494.714 181.266 495.573 182.237C496.432 183.207 497.06 184.359 497.41 185.606C497.643 186.151 497.755 186.74 497.74 187.333C497.726 187.925 497.584 188.507 497.325 189.04Z" fill="#FC682D"/>
<path d="M496.701 198.335C495.875 198.307 495.051 198.235 494.232 198.12C493.996 198.571 495.07 200.267 495.306 200.395C495.419 200.493 495.564 200.548 495.714 200.548C495.864 200.548 496.009 200.493 496.122 200.395C496.216 200.26 496.282 200.107 496.315 199.945L496.701 198.313" fill="white"/>
<path d="M494.769 194.686C495.125 194.686 495.413 194.397 495.413 194.042C495.413 193.686 495.125 193.398 494.769 193.398C494.413 193.398 494.125 193.686 494.125 194.042C494.125 194.397 494.413 194.686 494.769 194.686Z" fill="#231F20"/>
<path d="M510.107 202.159L509.179 201.982C508.596 201.872 508.034 202.254 507.923 202.836L506.743 209.035C506.632 209.617 507.014 210.179 507.596 210.29L508.524 210.467C509.107 210.578 509.669 210.196 509.78 209.613L510.96 203.414C511.071 202.832 510.689 202.27 510.107 202.159Z" fill="#61C79F"/>
<path d="M508.23 202.67C507.666 202.73 507.129 202.944 506.679 203.288C506.228 203.633 505.881 204.095 505.675 204.623C505.498 205.312 505.534 206.038 505.78 206.705C506.025 207.372 506.468 207.949 507.049 208.358C508.23 209.15 509.586 209.644 511 209.796C511.206 209.867 511.427 209.888 511.643 209.859C511.859 209.829 512.065 209.749 512.245 209.625C512.43 209.421 512.55 209.167 512.589 208.895C512.926 207.938 513.065 206.923 512.997 205.911C512.702 204.902 512.065 204.026 511.196 203.435C510.326 202.844 509.278 202.573 508.23 202.67Z" fill="#FCAB9A"/>
<path d="M504.323 198.056L504.108 200.503C504.037 200.827 504.097 201.166 504.273 201.447C504.45 201.728 504.73 201.929 505.053 202.005C509.168 202.293 513.193 203.341 516.926 205.096C518.95 206.235 520.875 207.542 522.68 209.003C523.41 209.582 524.462 209.003 524.633 207.758L526.544 194.879C526.716 193.741 525.9 192.947 525.041 193.377C521.456 195.201 513.405 198.549 505.955 196.489C505.16 196.296 504.409 197.047 504.323 198.056Z" fill="#61C79F"/>
<path d="M473.063 308.941C472.035 309.602 471.275 310.606 470.916 311.774C470.798 312.137 470.798 312.528 470.916 312.89C471.067 313.213 471.296 313.494 471.582 313.706C475.015 316.764 478.878 319.302 483.047 321.24C483.575 321.511 484.151 321.678 484.743 321.734C485.036 321.767 485.333 321.723 485.604 321.606C485.875 321.49 486.111 321.304 486.289 321.068C486.493 320.725 486.597 320.331 486.589 319.931C486.612 319.194 486.486 318.46 486.219 317.773C485.951 317.086 485.548 316.461 485.033 315.933C484.517 315.406 483.901 314.989 483.22 314.705C482.54 314.422 481.809 314.279 481.071 314.286C480.543 314.329 480.011 314.329 479.483 314.286C478.988 314.16 478.522 313.941 478.109 313.642C476.981 312.984 475.917 312.223 474.931 311.366C474.266 310.591 473.643 309.782 473.063 308.941Z" fill="#473F47"/>
</g>
<defs>
<linearGradient id="paint0_linear" x1="-229.812" y1="-76.7762" x2="1381.94" y2="1128.96" gradientUnits="userSpaceOnUse">
<stop offset="0.01"/>
<stop offset="0.08" stop-opacity="0.69"/>
<stop offset="0.21" stop-opacity="0.32"/>
<stop offset="1" stop-opacity="0"/>
</linearGradient>
<linearGradient id="paint1_linear" x1="83891.6" y1="30454.6" x2="90062.7" y2="81517" gradientUnits="userSpaceOnUse">
<stop offset="0.01"/>
<stop offset="0.08" stop-opacity="0.69"/>
<stop offset="0.21" stop-opacity="0.32"/>
<stop offset="1" stop-opacity="0"/>
</linearGradient>
<linearGradient id="paint2_linear" x1="69880.6" y1="8054.84" x2="68282.5" y2="44284.7" gradientUnits="userSpaceOnUse">
<stop offset="0.01"/>
<stop offset="0.08" stop-opacity="0.69"/>
<stop offset="0.21" stop-opacity="0.32"/>
<stop offset="1" stop-opacity="0"/>
</linearGradient>
<linearGradient id="paint3_linear" x1="69328.5" y1="8044.46" x2="69984.8" y2="25939.9" gradientUnits="userSpaceOnUse">
<stop offset="0.01"/>
<stop offset="0.08" stop-opacity="0.69"/>
<stop offset="0.21" stop-opacity="0.32"/>
<stop offset="1" stop-opacity="0"/>
</linearGradient>
<linearGradient id="paint4_linear" x1="25298.6" y1="8598.95" x2="24230.7" y2="26611.5" gradientUnits="userSpaceOnUse">
<stop offset="0.01"/>
<stop offset="0.08" stop-opacity="0.69"/>
<stop offset="0.21" stop-opacity="0.32"/>
<stop offset="1" stop-opacity="0"/>
</linearGradient>
<linearGradient id="paint5_linear" x1="11627.6" y1="6017.97" x2="11467.7" y2="7400.94" gradientUnits="userSpaceOnUse">
<stop offset="0.01"/>
<stop offset="0.08" stop-opacity="0.69"/>
<stop offset="0.21" stop-opacity="0.32"/>
<stop offset="1" stop-opacity="0"/>
</linearGradient>
<linearGradient id="paint6_linear" x1="83712" y1="8867.8" x2="101701" y2="215019" gradientUnits="userSpaceOnUse">
<stop offset="0.01"/>
<stop offset="0.08" stop-opacity="0.69"/>
<stop offset="0.21" stop-opacity="0.32"/>
<stop offset="1" stop-opacity="0"/>
</linearGradient>
<linearGradient id="paint7_linear" x1="65242" y1="15024.3" x2="66825.5" y2="29997.6" gradientUnits="userSpaceOnUse">
<stop offset="0.01"/>
<stop offset="0.08" stop-opacity="0.69"/>
<stop offset="0.21" stop-opacity="0.32"/>
<stop offset="1" stop-opacity="0"/>
</linearGradient>
<linearGradient id="paint8_linear" x1="17933.1" y1="12859.9" x2="28739.3" y2="11995.8" gradientUnits="userSpaceOnUse">
<stop offset="0.01"/>
<stop offset="0.08" stop-opacity="0.69"/>
<stop offset="0.21" stop-opacity="0.32"/>
<stop offset="1" stop-opacity="0"/>
</linearGradient>
<linearGradient id="paint9_linear" x1="5531.95" y1="2156.93" x2="8456.29" y2="4720.8" gradientUnits="userSpaceOnUse">
<stop offset="0.01"/>
<stop offset="0.08" stop-opacity="0.69"/>
<stop offset="0.21" stop-opacity="0.32"/>
<stop offset="1" stop-opacity="0"/>
</linearGradient>
<clipPath id="clip0">
<rect width="783" height="590" fill="white"/>
</clipPath>
</defs>
</svg>
