<svg width="881" height="663" viewBox="0 0 881 663" fill="none" xmlns="http://www.w3.org/2000/svg">
<g clip-path="url(#clip0)">
<path opacity="0.18" d="M381.532 59.2178C374.648 62.4017 367.884 65.8509 361.241 69.6378C283.576 113.778 229.224 196.631 144.191 224.152C121.17 231.605 96.4575 233.656 77.8567 249.961C64.436 262.19 52.7563 276.198 43.1434 291.593C22.8176 323.493 9.32859 359.25 3.52614 396.612C-8.0933 468.973 8.16425 550.452 65.8266 600.019C109.164 637.309 173.663 639.19 227.943 629.108C259.081 623.343 288.915 612.103 319.739 604.698C373.63 591.804 429.69 590.808 484.006 601.78C519.83 609.016 554.447 621.486 590.296 629.132C616.047 634.655 642.861 637.719 669.144 634.318C694.364 631.062 713.81 619.05 736.783 609.353C780.483 590.853 824.714 567.263 852.567 527.489C873.992 496.32 883.89 458.68 880.565 421.022C876.94 383.422 861.53 347.921 836.527 319.572C825.439 306.837 810.945 295.597 805.533 279.388C800.122 263.179 799.277 244.269 797.586 227.65C793.914 191.204 789.517 153.721 771.738 121.689C751.978 86.0878 716.974 60.5927 678.782 46.2411C640.59 31.8895 599.306 27.7891 558.505 27.3067C498.089 26.7037 436.079 33.9398 381.532 59.2178Z" fill="#1E90FF"/>
<path d="M784.542 377.051L743.476 405.996L561.14 533.906C547.137 543.981 532.553 553.227 517.464 561.596C505.168 568.229 498.139 580.892 483.258 584.269C475.868 585.551 468.302 585.42 460.961 583.883C448.958 581.932 437.149 578.938 425.668 574.934C424.267 574.452 422.262 574.162 421.634 575.513C421.006 576.864 424.388 576.719 423.204 575.803C316.31 561.33 214.175 522.738 108.247 502.477C107.017 502.249 105.893 501.628 105.047 500.708C104.2 499.788 103.676 498.617 103.553 497.373C103.431 496.13 103.716 494.88 104.367 493.812C105.017 492.745 105.998 491.917 107.16 491.454C115.688 487.981 124.988 486.63 134.385 484.797C151.295 481.685 167.963 478.646 184.824 475.896C218.807 470.019 253.117 466.217 287.564 464.512C344.767 462.1 402.502 468.202 459.077 459.35C512.826 450.956 563.411 429.513 613.415 408.046C625.494 402.884 637.789 397.53 647.235 388.46C654.651 381.345 660.593 371.962 670.039 367.283C679.846 362.459 691.78 363.303 702.312 363.785C730.093 365.015 757.535 370.66 784.542 377.051Z" fill="url(#paint0_linear)"/>
<path d="M112.885 466.562L351.651 362.844C356.823 360.253 362.659 359.286 368.392 360.071L663.709 385.132C669.362 385.928 668.347 410.193 663.709 414.076L489.297 562.319C484.043 566.949 477.755 570.255 470.958 571.959C464.162 573.663 457.056 573.715 450.235 572.112L114.986 490.706C110.711 489.669 108.875 468.54 112.885 466.562Z" fill="#1E90FF"/>
<path d="M112.885 466.562L351.651 362.844C356.823 360.253 362.659 359.286 368.392 360.071L663.709 385.132C669.362 385.928 668.347 410.193 663.709 414.076L489.297 562.319C484.043 566.949 477.755 570.255 470.958 571.959C464.162 573.663 457.056 573.715 450.235 572.112L114.986 490.706C110.711 489.669 108.875 468.54 112.885 466.562Z" fill="url(#paint1_linear)"/>
<path d="M663.782 396.878L489.369 545.121C484.12 549.759 477.833 553.071 471.036 554.78C464.239 556.488 457.13 556.542 450.308 554.938L114.986 473.508C110.711 472.471 110.155 465.717 114.141 463.715L206.034 411.929L230.19 398.373L303.651 357.152C308.823 354.559 314.659 353.592 320.392 354.378L660.81 383.95C666.463 384.625 668.347 392.995 663.782 396.878Z" fill="#1E90FF"/>
<path d="M320.367 362.458L631.531 408.408L535.749 486.075L216.42 421.553L320.367 362.458Z" fill="url(#paint2_linear)"/>
<path d="M635.302 416.801C634.384 419.575 631.364 420.998 628.634 422.083C608.734 429.538 588.445 435.915 567.856 441.187C548.313 446.566 527.925 451.993 507.971 448.423C505.466 447.772 502.867 447.56 500.289 447.796C496.038 448.568 492.897 452.017 489.588 454.742C473.089 468.298 448.98 465.211 427.964 461.4C428.873 454.482 429.325 447.512 429.316 440.536C373.104 441.544 316.909 437.719 261.354 429.102C249.275 427.245 216.639 425.774 208.402 415.764C207.384 414.66 206.566 413.386 205.986 412.001L230.143 398.446C231.238 398.493 232.323 398.663 233.38 398.952C297.657 416.749 364.464 423.679 431.031 419.454C432.747 410.795 423.784 399.965 430.597 394.225C432.839 392.632 435.554 391.842 438.303 391.981C448.501 391.586 458.64 393.706 467.822 398.156C473.258 400.809 478.379 404.283 484.249 405.778C489.993 406.917 495.885 407.104 501.69 406.333C538.751 403.564 575.938 402.855 613.077 404.21C619.189 404.427 625.591 404.789 630.784 407.997C633.828 409.83 636.461 413.4 635.302 416.801Z" fill="url(#paint3_linear)"/>
<path d="M287.803 440.801L416.028 466.682L349.717 520.687L216.42 490.826L287.803 440.801Z" fill="url(#paint4_linear)"/>
<path d="M223.691 500.185C225.003 502.815 226.859 505.136 229.137 506.995C231.415 508.854 234.063 510.208 236.905 510.967C246.326 513.234 301.235 527.272 301.235 527.272C301.235 527.272 310.173 528.333 315.125 522.448L223.691 500.185Z" fill="url(#paint5_linear)"/>
<path d="M310.609 354.234L661.802 404.138C664.376 404.497 666.989 403.86 669.109 402.358C671.228 400.856 672.693 398.602 673.204 396.058L723.305 143.446C723.841 140.75 723.803 137.972 723.192 135.292C722.581 132.612 721.411 130.09 719.758 127.892C718.106 125.693 716.008 123.867 713.601 122.533C711.195 121.198 708.534 120.385 705.791 120.146L358.971 89.7788C353.867 89.3323 348.791 90.9003 344.83 94.1467C340.87 97.393 338.341 102.059 337.786 107.145L310.609 354.234Z" fill="#1E90FF"/>
<path d="M310.609 354.234L660.884 403.994C663.714 404.394 666.589 403.697 668.921 402.046C671.253 400.396 672.863 397.916 673.421 395.117L723.305 143.446C723.841 140.75 723.803 137.972 723.192 135.292C722.581 132.612 721.411 130.09 719.758 127.892C718.106 125.693 716.008 123.867 713.601 122.533C711.195 121.198 708.534 120.385 705.791 120.146L358.971 89.7788C353.867 89.3323 348.791 90.9003 344.83 94.1467C340.87 97.393 338.341 102.059 337.786 107.145L310.609 354.234Z" fill="url(#paint6_linear)"/>
<path d="M655.446 389.618L705.33 134.739L351.65 102.128L323.531 343.452L655.446 389.618Z" fill="white"/>
<path d="M626.364 181.074L378.297 155.289L383.925 123.933L632.065 149.717C634.162 149.853 636.207 150.427 638.067 151.402C639.928 152.378 641.562 153.732 642.865 155.379C644.168 157.025 645.109 158.926 645.629 160.96C646.149 162.993 646.235 165.112 645.882 167.18C644.93 171.499 642.407 175.311 638.801 177.878C635.195 180.444 630.763 181.583 626.364 181.074Z" fill="#1E90FF"/>
<path opacity="0.56" d="M378.297 155.289L578.678 176.154L584.306 144.701L383.925 123.812L378.297 155.289Z" fill="white"/>
<path d="M614.307 168.833C618.543 167.179 620.745 162.69 619.224 158.807C617.703 154.923 613.036 153.117 608.799 154.771C604.562 156.426 602.36 160.915 603.881 164.798C605.402 168.681 610.07 170.488 614.307 168.833Z" stroke="white" stroke-width="1.15777" stroke-miterlimit="10"/>
<path d="M616.7 174.851C616.531 174.441 614.43 168.725 614.43 168.725" stroke="white" stroke-width="1.15777" stroke-miterlimit="10"/>
<path opacity="0.18" d="M623.972 226.468L370.809 199.405L372.137 195.256L625.277 222.319L623.972 226.468Z" fill="#1E90FF"/>
<path opacity="0.18" d="M460.815 193.279L375.324 183.173L377.064 175.744L462.579 185.054L460.815 193.279Z" fill="#1E90FF"/>
<path opacity="0.18" d="M620.832 243.183L367.668 216.12L368.972 211.972L622.136 239.035L620.832 243.183Z" fill="#1E90FF"/>
<g opacity="0.66">
<path opacity="0.18" d="M447.216 260.044L361.725 249.961L363.464 242.508L448.979 251.819L447.216 260.044Z" fill="#1E90FF"/>
<path opacity="0.18" d="M609.695 294.729L356.531 267.666L357.86 263.493L611.024 290.58L609.695 294.729Z" fill="#1E90FF"/>
<path opacity="0.18" d="M603.922 314.073L350.758 287.011L352.086 282.862L605.226 309.925L603.922 314.073Z" fill="#1E90FF"/>
</g>
<path opacity="0.18" d="M599.017 355.873L346.119 322.901L347.424 318.776L600.322 351.749L599.017 355.873Z" fill="#1E90FF"/>
<path d="M458.689 331.512C458.689 331.512 199.969 417.043 164.604 340.268C129.238 263.493 322.904 242.46 322.904 242.46C322.904 242.46 96.6022 264.964 147.38 359.805C198.158 454.646 474.125 360.866 474.125 360.866L458.689 331.512Z" fill="white"/>
<path d="M459.295 327.966C459.403 331.48 460.365 334.916 462.097 337.976L468.475 351.58C469.834 354.965 471.744 358.103 474.127 360.867C475.994 362.75 478.28 364.168 480.798 365.006C483.316 365.844 485.996 366.079 488.621 365.691C489.86 365.609 491.057 365.212 492.097 364.536C493.138 363.86 493.987 362.929 494.564 361.831C495.651 359.009 493.815 355.994 492.341 353.365C488.38 346.298 486.689 338.242 484.805 330.378C483.355 324.252 480.408 315.617 472.919 314.749C466.3 313.977 459.681 321.526 459.295 327.966Z" fill="#1E90FF"/>
<path d="M524.276 296.273C524.276 296.273 469.537 246.271 416.029 296.273C416.029 296.273 457.386 290.942 470.141 313.687L524.276 296.273Z" fill="#1E90FF"/>
<path d="M546.647 341.98C546.647 341.98 544.038 416.03 470.818 419.165C470.818 419.165 503.599 393.429 496.28 368.392L546.647 341.98Z" fill="#1E90FF"/>
<path d="M470.141 313.736C470.141 313.736 642.741 214.842 739.779 230.665C739.779 230.665 717.845 301.868 496.206 368.392L470.141 313.736Z" fill="white"/>
<path d="M739.9 230.617C739.9 230.617 717.966 301.82 496.327 368.344L488.427 351.773L470.141 313.735C470.141 313.735 623.343 225.841 722.217 228.976C728.141 229.137 734.048 229.685 739.9 230.617V230.617Z" fill="url(#paint7_linear)"/>
<path d="M739.899 230.617C724.56 250.709 671.608 287.734 562.757 327.219C556.605 329.47 550.268 331.721 543.746 333.972C526.594 339.89 508.155 345.823 488.427 351.773L470.164 313.735C470.164 313.735 489.031 302.423 517.874 288.047C533.093 280.449 551.089 272.007 570.56 263.927C624.889 241.374 690.74 221.475 739.899 230.617Z" fill="white"/>
<path d="M606.893 267.545C597.689 271.38 587.35 270.753 577.397 271.404C574.439 271.522 571.504 271.983 568.652 272.779C563.024 274.954 557.89 278.235 553.554 282.427C552.966 282.831 552.525 283.415 552.298 284.091C552.233 284.794 552.403 285.498 552.781 286.093C554.985 290.577 557.52 294.891 560.367 298.998C563.749 303.822 567.734 308.959 567.614 314.893C567.27 319.436 565.504 323.757 562.565 327.243L561.84 328.256C558.355 332.941 554.571 337.396 550.511 341.594C547.515 344.681 549.448 354.112 542.201 351.845C535.896 349.891 538.964 342.414 541.114 338.483L543.529 333.996L547.588 326.495C550.68 320.826 553.82 314.097 551.211 308.187C549.375 304.063 545.148 301.578 541.186 299.359C533.709 294.935 525.871 291.15 517.754 288.047C532.973 280.449 550.97 272.007 570.44 263.927C583.151 264.992 595.92 265.177 608.656 264.482C609.719 265.495 608.221 266.99 606.893 267.545Z" fill="url(#paint8_linear)"/>
<path d="M585.392 310.142C596.359 310.142 605.249 301.265 605.249 290.315C605.249 279.365 596.359 270.488 585.392 270.488C574.425 270.488 565.535 279.365 565.535 290.315C565.535 301.265 574.425 310.142 585.392 310.142Z" fill="#1E90FF"/>
<path d="M585.393 303.147C592.864 303.147 598.921 297.099 598.921 289.639C598.921 282.179 592.864 276.132 585.393 276.132C577.922 276.132 571.865 282.179 571.865 289.639C571.865 297.099 577.922 303.147 585.393 303.147Z" fill="url(#paint9_linear)"/>
<path d="M555.703 247.139C555.703 247.26 552.853 246.777 552.925 246.922C553.577 247.689 554.406 248.285 555.341 248.659C558.759 250.037 562.26 251.197 565.825 252.132C569.376 252.494 571.091 249.141 572.202 246.319C573.096 244.052 574.014 241.785 574.956 239.541C575.679 238.099 576.137 236.538 576.309 234.934C576.345 234.566 576.295 234.195 576.164 233.849C575.934 233.404 575.546 233.061 575.077 232.884C574.365 232.595 573.567 232.595 572.855 232.884C571.55 233.439 570.946 234.91 570.294 236.165C568.772 239.035 566.381 241.375 565.076 244.341C564.1 244.402 563.139 244.082 562.395 243.449L558.167 240.699C557.964 240.537 557.723 240.43 557.467 240.386C557.258 240.375 557.05 240.416 556.86 240.504C556.671 240.592 556.506 240.725 556.38 240.892C555.62 241.809 555.164 242.938 555.075 244.124C554.954 244.729 554.954 245.352 555.075 245.957C555.226 246.38 555.438 246.778 555.703 247.139V247.139Z" fill="#FCAB9A"/>
<path d="M558.964 240.578L560.462 241.495C560.68 241.495 560.897 241.736 560.969 241.977C561.018 242.151 561.018 242.334 560.969 242.508L559.979 246.898C559.678 248.863 558.97 250.744 557.902 252.421C557.322 253.217 553.07 250.275 552.346 249.889C550.538 248.691 548.959 247.179 547.683 245.427C547.093 244.713 546.643 243.894 546.355 243.015C545.919 240.789 546.26 238.482 547.321 236.478C549.012 233.173 551.862 234.814 554.012 236.84C555.542 238.238 557.2 239.49 558.964 240.578V240.578Z" fill="#1E90FF"/>
<path d="M531.691 350.133C531.765 350.449 531.934 350.735 532.175 350.953C535.619 354.307 539.724 356.911 544.229 358.599C544.502 358.752 544.809 358.834 545.123 358.84C545.423 358.777 545.691 358.609 545.877 358.365C546.063 358.122 546.155 357.82 546.137 357.514C546.077 356.902 545.851 356.319 545.485 355.825C544.599 354.424 543.605 353.094 542.514 351.846C541.496 351.006 540.846 349.803 540.702 348.493C540.797 347.84 540.967 347.201 541.209 346.587C541.934 343.862 537.392 343.307 535.484 343.958C534.405 344.612 533.498 345.513 532.838 346.587C532.179 347.661 531.785 348.877 531.691 350.133Z" fill="#FCAB9A"/>
<path d="M520.579 273.527C520.579 273.527 512.341 285.008 520.82 295.235C526.691 302.326 535.508 307.151 543.624 311.203C545.05 311.926 546.741 312.505 548.118 313.374C550.799 315.062 549.156 316.485 547.731 318.728C544.156 324.469 540.548 330.169 536.909 335.83C534.805 338.695 533.362 341.99 532.681 345.478L541.885 348.276C546.844 339.835 552.5 331.824 558.795 324.324C561.525 321.092 565.052 317.088 564.544 312.602C563.908 308.449 562.079 304.569 559.278 301.434L542.054 281.462L520.579 273.527Z" fill="#473F47"/>
<path d="M560.584 218.653C560.873 219.497 561.695 220.173 561.816 221.065C561.936 221.958 561.018 223.019 560.415 224.008C559.811 224.997 559.4 226.902 558.579 228.229C558.432 228.521 558.194 228.757 557.902 228.904C557.639 229 557.361 229.049 557.081 229.049C555.983 229.017 554.894 228.839 553.844 228.518C553.657 228.4 553.436 228.349 553.216 228.374C553.032 228.482 552.894 228.653 552.829 228.856C551.601 231.393 551.012 234.192 551.114 237.009C551.114 237.925 551.114 239.083 550.365 239.541C550.093 239.719 549.771 239.803 549.447 239.782C547.321 239.782 545.703 237.877 544.616 235.995C543.726 234.304 543.037 232.515 542.563 230.665C542.39 230.128 542.324 229.563 542.369 229.001C542.482 228.346 542.711 227.717 543.046 227.143C544.118 225.053 544.983 222.864 545.63 220.607C546.194 217.65 547.204 214.795 548.626 212.141C549.178 211.297 549.98 210.648 550.921 210.283C551.995 210.049 553.114 210.107 554.158 210.452C556.34 210.801 558.304 211.976 559.641 213.733C560.052 214.36 560.245 217.568 560.584 218.653Z" fill="#FCAB9A"/>
<path d="M539.398 282.958C537.552 283.252 535.666 283.145 533.866 282.644C531.227 282.117 528.527 281.963 525.846 282.186C524.253 282.585 522.694 283.109 521.183 283.754C519.958 284.083 518.676 284.144 517.425 283.931C516.174 283.719 514.984 283.239 513.936 282.524C513.936 282.162 513.936 281.776 513.936 281.414C514.299 278.182 512.946 273.599 513.936 270.488C517.487 258.066 520.507 248.779 527.585 238.118C529.614 235.055 537.61 231.123 540.895 229.483C541.642 229.083 542.465 228.844 543.311 228.784C544.284 228.823 545.235 229.087 546.089 229.556C549.012 230.979 550.147 233.632 551.573 236.382C553.233 239.183 554.363 242.265 554.906 245.475C555.269 249.624 556.742 253.507 554.375 257.366C551.114 262.793 545.702 266.46 542.683 272.321C542.147 273.168 541.847 274.142 541.813 275.143C541.813 276.542 542.804 277.82 542.804 279.219C542.705 280.122 542.322 280.97 541.71 281.642C541.098 282.314 540.288 282.775 539.398 282.958V282.958Z" fill="#1E90FF"/>
<path d="M558.023 263.396C559.182 263.927 560.439 264.385 561.429 264.771C567.106 266.577 572.992 267.647 578.943 267.955C586.427 268.899 593.991 269.036 601.505 268.365C604.574 268.13 607.549 267.198 610.202 265.639C610.975 265.133 611.772 264.216 611.385 263.372C611.161 262.996 610.822 262.7 610.419 262.528C607.518 261 604.245 260.314 600.974 260.55C600.974 259.416 600.684 257.969 599.573 257.873C598.461 257.776 597.809 259.296 597.157 260.285C595.708 262.697 592.326 262.962 589.62 262.938C583.367 263.03 577.124 262.39 571.019 261.032C567.959 260.304 564.993 259.227 562.178 257.824C560.366 256.908 556.718 253.121 554.931 255.147C553.143 257.173 551.476 258.524 553.892 260.671C555.123 261.783 556.516 262.702 558.023 263.396V263.396Z" fill="#FCAB9A"/>
<path d="M548.601 240.12C548.601 240.12 558.071 253.459 559.448 254.255C560.825 255.051 550.944 264.747 550.944 264.747C550.944 264.747 539.494 252.373 538.165 246.054C536.837 239.734 542.755 235.393 548.601 240.12Z" fill="#1E90FF"/>
<path d="M559.57 212.43C559.163 212.986 558.647 213.452 558.053 213.8C557.458 214.149 556.799 214.372 556.115 214.456C554.925 214.646 553.722 214.75 552.516 214.77C552.516 214.77 552.299 214.77 552.226 214.77C552.182 214.819 552.149 214.876 552.128 214.938C552.108 215.001 552.1 215.066 552.105 215.132C552.055 216.058 551.814 216.964 551.399 217.794C550.983 218.624 550.402 219.36 549.69 219.956C549.503 220.073 549.352 220.24 549.255 220.438C549.157 220.72 549.157 221.025 549.255 221.307C549.424 222.272 549.424 223.26 549.255 224.225C549.117 225.206 548.659 226.113 547.95 226.806C547.774 226.928 547.646 227.107 547.588 227.313C547.587 227.492 547.637 227.667 547.733 227.819C548.066 228.827 547.996 229.924 547.54 230.882C546.631 230.186 545.579 229.7 544.46 229.458C543.341 229.216 542.181 229.225 541.066 229.483C540.388 229.542 539.745 229.812 539.23 230.255C535.993 233.656 533.336 237.684 529.929 240.965C528.48 242.364 526.862 243.594 525.509 245.113C523.469 247.598 521.838 250.39 520.677 253.387C519.791 255.735 518.615 257.963 517.175 260.02C516.451 261.042 515.532 261.911 514.471 262.577C513.409 263.244 512.227 263.694 510.991 263.903C509.82 263.999 508.642 263.852 507.532 263.47C506.422 263.088 505.403 262.48 504.541 261.684C503.032 260.304 501.956 258.517 501.442 256.54C500.927 254.563 500.997 252.479 501.642 250.54C501.957 249.94 502.043 249.246 501.883 248.587C501.695 248.222 501.432 247.901 501.11 247.646C499.63 246.105 498.803 244.053 498.803 241.917C498.803 239.782 499.63 237.729 501.11 236.189C502.729 234.669 506.618 233.198 506.836 230.689C507.053 228.181 504.806 225.697 505.724 222.802C506.056 221.922 506.539 221.106 507.15 220.39C508.314 218.682 509.893 217.296 511.739 216.362C513.607 215.733 515.566 215.416 517.537 215.421C523.866 214.987 530.485 213.009 534.664 208.185C535.605 206.935 536.638 205.758 537.756 204.664C539.067 203.651 540.559 202.898 542.153 202.445C545.985 200.981 550.214 200.921 554.086 202.276C555.432 202.837 556.633 203.694 557.599 204.785C558.566 205.875 559.272 207.169 559.667 208.571C559.928 209.184 560.054 209.845 560.038 210.511C560.021 211.177 559.862 211.831 559.57 212.43V212.43Z" fill="#FC682D"/>
<path d="M558.869 222.875C557.939 222.843 557.012 222.763 556.091 222.633C555.825 223.14 557.033 225.045 557.299 225.19C557.426 225.3 557.589 225.361 557.758 225.361C557.926 225.361 558.089 225.3 558.216 225.19C558.323 225.038 558.397 224.866 558.434 224.684L558.869 222.85" fill="white"/>
<path d="M556.693 218.774C557.094 218.774 557.418 218.45 557.418 218.05C557.418 217.651 557.094 217.327 556.693 217.327C556.293 217.327 555.969 217.651 555.969 218.05C555.969 218.45 556.293 218.774 556.693 218.774Z" fill="#231F20"/>
<path d="M573.951 227.172L572.907 226.973C572.252 226.849 571.62 227.278 571.495 227.932L570.166 234.899C570.042 235.553 570.472 236.184 571.127 236.309L572.171 236.507C572.826 236.632 573.459 236.202 573.584 235.548L574.912 228.582C575.037 227.928 574.607 227.296 573.951 227.172Z" fill="#1E90FF"/>
<path d="M571.839 227.747C571.205 227.814 570.601 228.054 570.094 228.442C569.587 228.829 569.196 229.348 568.965 229.942C568.765 230.715 568.806 231.531 569.082 232.281C569.358 233.031 569.857 233.679 570.511 234.139C571.839 235.029 573.365 235.583 574.956 235.755C575.188 235.834 575.436 235.858 575.679 235.825C575.923 235.791 576.155 235.701 576.357 235.562C576.565 235.333 576.699 235.047 576.743 234.742C577.123 233.667 577.279 232.526 577.202 231.389C576.871 230.255 576.154 229.271 575.176 228.606C574.197 227.942 573.018 227.638 571.839 227.747Z" fill="#FCAB9A"/>
<path d="M567.444 222.561L567.203 225.31C567.123 225.675 567.19 226.056 567.389 226.371C567.587 226.687 567.902 226.912 568.266 226.999C572.895 227.323 577.425 228.5 581.624 230.472C583.902 231.751 586.068 233.22 588.098 234.862C588.92 235.513 590.104 234.862 590.297 233.463L592.447 218.991C592.64 217.712 591.722 216.82 590.756 217.302C586.722 219.353 577.663 223.115 569.28 220.8C568.386 220.583 567.541 221.427 567.444 222.561Z" fill="#1E90FF"/>
<path d="M532.271 347.166C531.115 347.909 530.259 349.037 529.856 350.35C529.723 350.757 529.723 351.197 529.856 351.604C530.025 351.967 530.282 352.282 530.604 352.521C534.467 355.957 538.813 358.809 543.504 360.987C544.099 361.291 544.747 361.479 545.413 361.542C545.743 361.579 546.077 361.53 546.382 361.398C546.687 361.267 546.952 361.059 547.152 360.794C547.382 360.408 547.499 359.965 547.49 359.516C547.516 358.688 547.374 357.863 547.073 357.091C546.773 356.319 546.319 355.616 545.739 355.024C545.159 354.431 544.465 353.962 543.699 353.644C542.934 353.326 542.111 353.165 541.282 353.172C540.687 353.22 540.089 353.22 539.494 353.172C538.938 353.031 538.413 352.785 537.948 352.448C536.679 351.71 535.482 350.854 534.373 349.892C533.625 349.021 532.923 348.111 532.271 347.166V347.166Z" fill="#473F47"/>
</g>
<defs>
<linearGradient id="paint0_linear" x1="-258.574" y1="-86.2751" x2="1553.25" y2="1270.86" gradientUnits="userSpaceOnUse">
<stop offset="0.01"/>
<stop offset="0.08" stop-opacity="0.69"/>
<stop offset="0.21" stop-opacity="0.32"/>
<stop offset="1" stop-opacity="0"/>
</linearGradient>
<linearGradient id="paint1_linear" x1="94391.5" y1="34222.7" x2="101317" y2="91605.1" gradientUnits="userSpaceOnUse">
<stop offset="0.01"/>
<stop offset="0.08" stop-opacity="0.69"/>
<stop offset="0.21" stop-opacity="0.32"/>
<stop offset="1" stop-opacity="0"/>
</linearGradient>
<linearGradient id="paint2_linear" x1="78626.8" y1="9051.46" x2="76833.3" y2="49764.2" gradientUnits="userSpaceOnUse">
<stop offset="0.01"/>
<stop offset="0.08" stop-opacity="0.69"/>
<stop offset="0.21" stop-opacity="0.32"/>
<stop offset="1" stop-opacity="0"/>
</linearGradient>
<linearGradient id="paint3_linear" x1="78005.6" y1="9039.8" x2="78742.2" y2="29149.4" gradientUnits="userSpaceOnUse">
<stop offset="0.01"/>
<stop offset="0.08" stop-opacity="0.69"/>
<stop offset="0.21" stop-opacity="0.32"/>
<stop offset="1" stop-opacity="0"/>
</linearGradient>
<linearGradient id="paint4_linear" x1="28464.9" y1="9662.88" x2="27266.5" y2="29904.3" gradientUnits="userSpaceOnUse">
<stop offset="0.01"/>
<stop offset="0.08" stop-opacity="0.69"/>
<stop offset="0.21" stop-opacity="0.32"/>
<stop offset="1" stop-opacity="0"/>
</linearGradient>
<linearGradient id="paint5_linear" x1="13082.9" y1="6762.58" x2="12903.5" y2="8316.73" gradientUnits="userSpaceOnUse">
<stop offset="0.01"/>
<stop offset="0.08" stop-opacity="0.69"/>
<stop offset="0.21" stop-opacity="0.32"/>
<stop offset="1" stop-opacity="0"/>
</linearGradient>
<linearGradient id="paint6_linear" x1="94189.3" y1="9965.01" x2="114379" y2="241628" gradientUnits="userSpaceOnUse">
<stop offset="0.01"/>
<stop offset="0.08" stop-opacity="0.69"/>
<stop offset="0.21" stop-opacity="0.32"/>
<stop offset="1" stop-opacity="0"/>
</linearGradient>
<linearGradient id="paint7_linear" x1="73407.7" y1="16883.3" x2="75184.9" y2="33709.7" gradientUnits="userSpaceOnUse">
<stop offset="0.01"/>
<stop offset="0.08" stop-opacity="0.69"/>
<stop offset="0.21" stop-opacity="0.32"/>
<stop offset="1" stop-opacity="0"/>
</linearGradient>
<linearGradient id="paint8_linear" x1="20177.6" y1="14451" x2="32336.1" y2="13477.6" gradientUnits="userSpaceOnUse">
<stop offset="0.01"/>
<stop offset="0.08" stop-opacity="0.69"/>
<stop offset="0.21" stop-opacity="0.32"/>
<stop offset="1" stop-opacity="0"/>
</linearGradient>
<linearGradient id="paint9_linear" x1="6224.33" y1="2423.81" x2="9511.06" y2="5309.05" gradientUnits="userSpaceOnUse">
<stop offset="0.01"/>
<stop offset="0.08" stop-opacity="0.69"/>
<stop offset="0.21" stop-opacity="0.32"/>
<stop offset="1" stop-opacity="0"/>
</linearGradient>
<clipPath id="clip0">
<rect width="881" height="663" fill="white"/>
</clipPath>
</defs>
</svg>
