<svg width="612" height="462" viewBox="0 0 612 462" fill="none" xmlns="http://www.w3.org/2000/svg">
<g clip-path="url(#clip0)">
<path opacity="0.18" d="M152.931 50.2061C134.093 73.4444 122.363 102.337 106.128 127.721C94.1169 146.688 79.4635 163.671 67.2524 182.558C42.9102 220.173 28.2167 266.028 30.8992 311.843C33.5816 357.658 54.9211 402.892 90.4936 427.975C112.334 443.393 138.177 450.712 163.881 455.464C250.42 471.504 343.565 459.153 417.512 408.004C430.204 399.222 442.355 389.318 456.127 382.661C491.5 365.538 537.381 369.508 563.025 338.069C578.459 319.141 581.862 292.073 581.342 266.83C580.721 236.514 574.796 204.674 556.359 181.937C532.337 152.122 493.101 144.142 460.631 125.796C428.983 108.011 403.459 80.041 376.274 55.0583C310.875 -5.07271 216.789 -28.5717 152.931 50.2061Z" fill="#61C79F"/>
<path d="M466.697 299.051C466.701 300.906 466.324 302.743 465.591 304.446C464.857 306.15 463.782 307.685 462.433 308.956C460.122 311.155 457.139 312.511 453.965 312.805C453.372 312.856 452.776 312.856 452.183 312.805L352.753 310.8C348.941 310.759 345.295 309.23 342.592 306.537C339.889 303.845 338.342 300.202 338.279 296.384C338.272 294.529 338.643 292.692 339.369 290.985C340.096 289.279 341.162 287.739 342.503 286.459C345.264 283.831 348.944 282.391 352.753 282.449H356.136C355.436 279.991 355.079 277.447 355.075 274.89C355.069 271.236 355.808 267.619 357.247 264.261C358.686 260.903 360.794 257.875 363.442 255.361C365.779 253.123 368.489 251.311 371.45 250.008C375.285 248.334 379.438 247.513 383.621 247.602L392.068 247.782C397.324 247.89 402.454 249.409 406.923 252.181C411.391 254.953 415.035 258.877 417.472 263.542C419.908 262.381 422.582 261.811 425.279 261.878H427.461C431.986 261.924 436.315 263.737 439.527 266.931C442.738 270.125 444.579 274.448 444.657 278.981V279.803C444.655 281.365 444.426 282.918 443.976 284.414L452.203 284.575C456.024 284.626 459.675 286.167 462.381 288.869C465.086 291.572 466.635 295.224 466.697 299.051Z" fill="white"/>
<path d="M453.965 312.806C453.372 312.856 452.776 312.856 452.183 312.806L352.753 310.801C348.941 310.759 345.295 309.23 342.592 306.537C339.889 303.845 338.342 300.202 338.279 296.384C338.272 294.529 338.643 292.692 339.369 290.986C340.096 289.279 341.162 287.739 342.503 286.459C338.5 311.061 364.223 307.532 364.223 307.532H428.822L453.965 312.806Z" fill="url(#paint0_linear)"/>
<path d="M363.422 285.417L356.196 282.67C355.496 280.211 355.139 277.668 355.135 275.111C355.129 271.457 355.868 267.84 357.307 264.482C358.746 261.124 360.854 258.095 363.502 255.582C365.839 253.343 368.549 251.532 371.51 250.229C351.511 267.392 363.422 285.417 363.422 285.417Z" fill="url(#paint1_linear)"/>
<path opacity="0.23" d="M242.792 439.042C313.041 439.042 369.988 387.524 369.988 323.973C369.988 260.422 313.041 208.904 242.792 208.904C172.544 208.904 115.596 260.422 115.596 323.973C115.596 387.524 172.544 439.042 242.792 439.042Z" fill="#61C79F"/>
<path d="M400.717 304.906C400.75 331.62 392.069 357.614 375.994 378.931L375.734 379.292C358.119 402.545 332.826 418.769 304.371 425.066C275.916 431.364 246.152 427.325 220.396 413.671C194.639 400.017 174.567 377.638 163.765 350.529C152.962 323.42 152.133 293.348 161.424 265.683C170.715 238.019 189.522 214.563 214.486 199.505C239.45 184.447 268.946 178.768 297.705 183.482C326.464 188.196 352.613 202.995 371.483 225.238C390.353 247.481 400.714 275.717 400.717 304.906Z" fill="#61C79F"/>
<path d="M238.329 244.374C231.582 247.161 224.136 247.822 217.209 250.108C210.283 252.394 203.337 257.005 201.555 264.143C200.634 267.732 201.115 271.722 199.353 274.97C197.011 279.341 191.526 280.986 188.203 284.595C181.877 291.572 186.041 303.542 193.768 308.936C201.495 314.329 211.364 315.151 220.612 316.735C223.143 316.938 225.556 317.894 227.539 319.482C232.924 324.635 226.958 333.959 229.24 341.056C230.521 345.066 234.305 347.813 236.026 351.663C239.329 359.001 234.325 367.102 231.022 374.44C225.064 387.828 224.526 403.009 229.52 416.787C229.29 417.119 229.036 417.434 228.76 417.729C215.586 411.939 203.521 403.891 193.107 393.949C182.958 379.693 174.931 364.154 175.771 347.072C176.232 337.808 179.315 328.866 179.895 319.643C180.856 304.665 175.451 288.404 182.778 275.331C186.781 268.093 194.589 260.153 190.225 253.136C182.518 254.258 174.21 254.439 167.144 251.752C175.815 233.659 188.771 217.964 204.883 206.034C220.995 194.103 239.776 186.299 259.588 183.3C267.195 205.075 261.149 234.749 238.329 244.374Z" fill="url(#paint2_linear)"/>
<path d="M400.716 304.905C400.725 312.69 399.994 320.458 398.534 328.104C395.27 330.762 392.212 333.664 389.386 336.785C379.677 348.174 377.575 363.974 375.994 378.891C375.994 379.212 375.994 379.533 375.894 379.834C375.894 379.633 375.894 379.453 375.733 379.252C374.961 375.421 373.294 371.828 370.869 368.766C368.107 365.778 363.202 364.295 359.839 366.64C358.238 362.63 356.629 358.654 355.015 354.71C345.005 354.71 334.676 354.71 325.267 351.162C315.859 347.613 308.072 340.816 300.545 334.179C301.533 322.679 301.318 311.107 299.904 299.652C329.143 296.474 356.188 282.619 375.874 260.735C358.268 259.855 340.812 264.366 325.828 273.667C322.625 275.672 319.382 277.918 315.639 278.238C313.267 278.298 310.901 277.973 308.632 277.276L284.43 271.121C281.407 255.521 292.197 239.862 306.07 232.143C316.479 226.368 329.111 227.491 339.1 222.438C345.946 218.99 347.948 212.955 353.934 208.523H354.054C368.594 220.016 380.346 234.658 388.427 251.351C396.509 268.044 400.71 286.354 400.716 304.905Z" fill="url(#paint3_linear)"/>
<path d="M315.879 279.983C315.158 282.349 314.477 285.116 315.879 287.101C316.567 287.95 317.474 288.594 318.501 288.965C319.697 289.537 321.027 289.767 322.345 289.629C323.662 289.491 324.916 288.99 325.968 288.183C327.067 286.979 327.845 285.518 328.23 283.933C330.101 278.18 331.442 272.267 332.234 266.268C332.384 265.717 332.384 265.135 332.234 264.584C331.921 264.006 331.419 263.553 330.812 263.301C327.629 261.597 322.645 260.233 320.803 264.003C318.541 268.855 317.48 274.85 315.879 279.983Z" fill="#FBC4D6"/>
<path d="M325.508 282.73C326.18 282.638 326.865 282.699 327.51 282.91C327.949 283.154 328.331 283.489 328.631 283.893L335.537 291.652C336.878 293.156 338.279 295.221 337.339 297.006C337.007 297.502 336.569 297.919 336.057 298.224C335.544 298.529 334.97 298.716 334.376 298.77C331.031 299.077 327.668 298.416 324.687 296.865C322.565 295.943 320.463 294.86 318.401 293.858C316.869 293.161 315.53 292.101 314.498 290.77C312.916 288.364 312.496 282.59 315.258 280.745C316.68 279.843 317.921 280.484 319.262 281.106C321.18 282.152 323.324 282.71 325.508 282.73Z" fill="#61C79F"/>
<path d="M354.154 306.41C354.208 306.856 354.16 307.308 354.014 307.733C353.775 308.145 353.429 308.485 353.013 308.715C351.7 309.621 350.161 310.142 348.569 310.219C347.773 310.249 346.982 310.095 346.256 309.768C345.531 309.441 344.89 308.95 344.385 308.334C343.648 307.168 343.202 305.84 343.084 304.465C342.497 301.507 342.209 298.498 342.223 295.482C342.188 295.305 342.192 295.122 342.234 294.947C342.277 294.771 342.357 294.607 342.47 294.466C342.582 294.325 342.724 294.21 342.885 294.129C343.047 294.048 343.224 294.004 343.404 293.998C345.886 293.477 350.831 292.174 352.092 295.222C353.377 298.815 354.073 302.593 354.154 306.41Z" fill="#FBC4D6"/>
<path d="M364.664 306.109C366.797 306.224 368.905 306.629 370.929 307.312C371.936 307.66 372.86 308.212 373.645 308.933C374.43 309.654 375.059 310.528 375.493 311.502C375.898 312.456 375.947 313.523 375.634 314.51C374.942 315.974 373.728 317.126 372.23 317.738C365.116 321.525 357.089 323.254 349.049 322.73C346.986 322.813 344.971 322.095 343.424 320.725C342.308 319.07 341.785 317.083 341.943 315.091L341.663 305.668C343.474 305.748 345.242 306.249 346.827 307.131C349.79 308.134 350.951 305.728 353.393 305.126C356.576 304.384 361.421 305.788 364.664 306.109Z" fill="#61C79F"/>
<path d="M325.508 282.73C326.18 282.638 326.865 282.699 327.51 282.91C327.949 283.154 328.331 283.489 328.631 283.893L335.537 291.652C336.878 293.156 338.279 295.221 337.339 297.006C337.007 297.502 336.569 297.919 336.057 298.224C335.544 298.529 334.97 298.716 334.376 298.77C331.031 299.077 327.668 298.416 324.687 296.865C322.565 295.943 320.463 294.86 318.401 293.858C316.869 293.161 315.53 292.101 314.498 290.77C312.916 288.364 312.496 282.59 315.258 280.745C316.68 279.843 317.921 280.484 319.262 281.106C321.18 282.152 323.324 282.71 325.508 282.73Z" fill="url(#paint4_linear)"/>
<path d="M364.664 306.109C366.797 306.224 368.905 306.629 370.929 307.312C371.936 307.66 372.86 308.212 373.645 308.933C374.43 309.654 375.059 310.528 375.493 311.502C375.898 312.456 375.947 313.523 375.634 314.51C374.942 315.974 373.728 317.126 372.23 317.738C365.116 321.525 357.089 323.254 349.049 322.73C346.986 322.813 344.971 322.095 343.424 320.725C342.308 319.07 341.785 317.083 341.943 315.091L341.663 305.668C343.474 305.748 345.242 306.249 346.827 307.131C349.79 308.134 350.951 305.728 353.393 305.126C356.576 304.384 361.421 305.788 364.664 306.109Z" fill="url(#paint5_linear)"/>
<path d="M250.619 204.012C246.313 203.638 241.98 203.705 237.688 204.213C237.126 204.241 236.582 204.414 236.106 204.714C235.833 204.972 235.614 205.282 235.462 205.627C235.311 205.971 235.23 206.343 235.225 206.719C234.625 212.534 239.229 217.586 244.193 220.654C257.626 228.995 274.561 228.674 289.395 234.128C290.81 234.503 292.067 235.326 292.978 236.474C293.597 237.717 293.899 239.095 293.859 240.484C294.519 248.323 298.863 255.381 300.305 263.1C301.746 270.82 300.205 278.9 301.386 286.68C306.25 281.487 314.538 280.665 319.402 275.532C323.966 270.8 324.867 263.742 325.548 257.206L327.389 239.281C327.731 237.988 327.59 236.615 326.993 235.419C326.396 234.223 325.384 233.286 324.147 232.784C302.247 218.609 276.583 206.258 250.619 204.012Z" fill="url(#paint6_linear)"/>
<path d="M339.18 202.208C341.203 202.614 343.079 203.564 344.605 204.955C346.171 207.138 346.883 209.82 346.607 212.494C346.559 231.519 342.968 250.368 336.017 268.073C335.952 268.695 335.735 269.292 335.386 269.811C335.038 270.33 334.567 270.756 334.016 271.051C333.465 271.346 332.85 271.501 332.225 271.502C331.6 271.504 330.985 271.352 330.432 271.061C326.269 269.935 322.167 268.597 318.141 267.051L323.586 230.96C323.846 229.958 323.79 228.901 323.426 227.932C323.024 227.246 322.46 226.667 321.784 226.248C315.574 221.723 309.014 217.701 302.166 214.218C296.701 211.451 290.436 208.203 288.954 202.348C288.647 201.348 288.585 200.288 288.773 199.258C288.961 198.229 289.394 197.26 290.035 196.433C290.901 195.581 291.92 194.901 293.038 194.428C296.661 192.644 301.225 190.418 305.389 190.779C308.732 191.12 310.013 193.045 312.796 194.468C320.523 198.318 330.792 199.762 339.18 202.208Z" fill="#282328"/>
<path d="M301.987 144.803C304.669 152.202 305.99 160.042 308.352 167.52C308.87 169.503 309.797 171.354 311.075 172.954C312.773 174.585 314.83 175.794 317.08 176.483C320.217 177.699 323.406 178.762 326.649 179.671C328.811 180.252 331.393 181.255 331.634 183.46C331.685 184.196 331.532 184.931 331.193 185.586C330.357 187.079 329.152 188.334 327.694 189.229C326.237 190.124 324.574 190.63 322.866 190.698C319.455 190.79 316.059 190.232 312.857 189.054C309.941 188.463 307.265 187.019 305.17 184.904C303.978 183.145 303.142 181.17 302.707 179.089C299.422 167.409 294.864 156.126 289.115 145.445C287.395 142.624 286.049 139.591 285.111 136.422C283.79 130.888 283.77 117.775 289.475 122.587C294.079 126.477 299.965 139.309 301.987 144.803Z" fill="#FBC4D6"/>
<path d="M280.146 201.506C283.521 200.196 286.804 198.662 289.975 196.914C301.986 190.258 292.157 186.989 288.153 178.989C285.291 173.315 286.452 166.518 287.933 160.363C290.556 149.535 294.059 138.307 291.537 127.5C291.221 125.746 290.539 124.079 289.535 122.608C288.8 121.695 287.953 120.88 287.012 120.182C284.477 117.988 281.559 116.282 278.405 115.149C272.399 113.144 265.593 114.608 259.888 117.475C237.467 128.743 232.683 157.195 233.584 179.952C233.824 186.268 234.805 192.944 238.869 197.777C242.932 202.609 248.677 204.453 254.563 205.175C263.262 206.066 272.046 204.806 280.146 201.506Z" fill="white"/>
<path d="M246.716 188.634C246.897 190.769 247.583 192.831 248.718 194.649C250.72 197.476 254.403 198.518 257.786 199.341L273.02 203.11C274.877 203.674 276.805 203.964 278.745 203.972C282.909 203.772 286.492 201.105 289.795 198.539C290.639 197.96 291.372 197.233 291.957 196.393C283.55 195.591 275.162 194.749 266.794 193.526C261.87 192.804 256.665 191.802 253.042 188.413C251.17 186.561 249.746 184.305 248.878 181.817C248.277 180.273 247.997 176.343 246.255 176.002C245.817 180.213 245.972 184.466 246.716 188.634Z" fill="url(#paint7_linear)"/>
<path d="M276.783 132.773C276.782 133.405 276.53 134.011 276.083 134.457C275.667 134.703 275.18 134.802 274.702 134.738C273.133 134.664 271.598 134.255 270.201 133.537C268.803 132.819 267.576 131.81 266.601 130.577C265.626 129.344 264.926 127.916 264.548 126.389C264.171 124.862 264.124 123.272 264.412 121.725C264.772 119.72 265.633 117.996 266.174 116.111C267.235 112.342 267.055 108.091 269.437 104.983C271.499 109.71 273.853 114.304 276.483 118.738C277.156 119.62 277.623 120.641 277.852 121.726C278.08 122.812 278.064 123.935 277.804 125.014L276.783 132.773Z" fill="#FBC4D6"/>
<path d="M277.964 123.069L277.064 129.084C277.064 129.084 266.754 123.971 268.095 114.488C269.437 105.004 277.964 123.069 277.964 123.069Z" fill="url(#paint8_linear)"/>
<path d="M290.015 117.214C289.487 119.141 288.366 120.853 286.813 122.107C286.071 122.61 285.243 122.97 284.37 123.169C281.305 123.765 278.13 123.374 275.3 122.052C272.47 120.731 270.131 118.546 268.616 115.811C267.188 113.041 266.374 109.994 266.229 106.88C266.084 103.766 266.611 100.657 267.775 97.7656C268.728 94.5943 270.884 91.9237 273.781 90.3269C275.364 89.7014 277.078 89.4784 278.769 89.6778C280.459 89.8772 282.074 90.4929 283.469 91.4698C287.261 94.1215 290.192 97.8307 291.897 102.137C293.359 106.528 291.517 113.024 290.015 117.214Z" fill="#FBC4D6"/>
<path d="M335.277 227.411C337.842 230.683 339.87 234.345 341.282 238.258C349.155 257.274 354.271 277.32 356.476 297.788C350.048 298.59 343.546 298.59 337.118 297.788C336.615 283.338 334.391 269.001 330.492 255.08C329.803 252.084 328.619 249.224 326.989 246.619C324.126 242.469 319.422 240.063 314.978 237.817C304.579 232.756 293.711 228.727 282.528 225.787C277.804 224.484 273.04 223.281 268.395 221.777C264.492 220.453 253.542 215.601 250.379 212.975C248.721 211.716 247.335 210.135 246.303 208.326C245.271 206.517 244.615 204.518 244.374 202.448C244.374 203.491 274.881 205.576 277.063 205.335C284.41 204.554 293.078 200.343 300.325 203.33C305.99 205.656 311.175 210.508 316.339 213.857C322.605 217.787 330.252 221.596 335.277 227.411Z" fill="#473F47"/>
<path d="M301.846 225.867L264.612 207.641L308.272 189.095L345.526 205.396L301.846 225.867Z" fill="#61C79F"/>
<path d="M245.134 140.292C245.134 140.994 244.954 141.676 244.874 142.297C243.773 152.563 244.774 162.628 245.155 172.834C245.395 179.15 246.215 191.18 252.922 194.408C265.453 200.423 289.635 198.138 289.635 198.138C292.439 197.687 295.304 197.803 298.063 198.478C299.564 198.94 300.945 199.722 302.407 200.283C307.692 202.288 313.597 201.285 319.162 200.283C320.121 200.169 321.047 199.862 321.885 199.381C322.856 198.517 323.448 197.305 323.535 196.007C323.621 194.708 323.193 193.428 322.345 192.443C320.538 190.542 318.189 189.246 315.619 188.734C308.591 186.436 301.063 186.145 293.879 187.892C292.961 188.202 292.025 188.456 291.076 188.654C289.965 188.834 288.839 188.915 287.713 188.894H279.186C269.377 188.894 260.128 189.015 258.647 177.526C258.1 173.271 257.993 168.971 258.327 164.694C258.907 156.974 260.929 149.315 260.509 141.596C260.483 139.147 259.872 136.741 258.727 134.578C258.146 133.504 257.3 132.597 256.27 131.944C255.24 131.291 254.059 130.914 252.842 130.849C251.581 130.943 250.365 131.362 249.313 132.064C248.261 132.767 247.408 133.729 246.836 134.859C245.95 136.554 245.374 138.394 245.134 140.292Z" fill="#FBC4D6"/>
<path d="M360.86 168.624L308.813 195.15L301.846 225.867L345.526 205.396L360.86 168.624Z" fill="#61C79F"/>
<path d="M292.577 106.146C292.52 104.238 291.814 102.405 290.576 100.953C289.947 100.223 289.203 99.5995 288.374 99.1088C287.213 98.4271 286.932 98.3669 286.172 99.4697C285.191 100.893 284.87 102.557 283.97 104.041C282.984 105.687 281.609 107.064 279.966 108.051C278.119 109.199 275.971 109.765 273.8 109.675C272.938 109.545 272.06 109.545 271.198 109.675C270.908 109.73 270.634 109.849 270.395 110.022C270.157 110.195 269.959 110.419 269.817 110.678C269.61 111.428 269.536 112.208 269.596 112.984C269.416 114.989 267.434 116.412 266.333 118.157C265.232 119.901 264.912 122.487 263.591 124.352C263.346 124.726 263.008 125.03 262.61 125.234C261.669 125.635 260.608 125.114 259.627 124.934C256.725 124.432 254.383 127.139 251.9 128.783C246.916 132.072 240.39 131.229 234.504 130.247C232.703 130.029 230.946 129.528 229.3 128.763C227.521 127.712 225.942 126.354 224.635 124.753C222.453 122.347 220.291 119.901 218.149 117.455C217.353 116.672 216.721 115.738 216.288 114.708C216.059 113.99 215.997 113.228 216.108 112.482C216.303 111.09 216.715 109.737 217.329 108.472C218.89 104.963 220.712 101.154 224.235 99.5699C227.758 97.986 231.922 99.1689 235.806 98.7679C236.279 98.7669 236.74 98.6199 237.127 98.3469C237.436 97.9971 237.656 97.5774 237.767 97.1238C239.389 91.7303 241.411 85.8756 246.255 83.0886C249.988 81.2925 254.196 80.7375 258.266 81.5046C262.296 82.2672 266.407 82.5031 270.497 82.2063C272.499 81.8855 274.501 81.2239 276.503 80.8229C281.184 79.781 286.084 80.4944 290.275 82.8279C292.344 84.0608 294.074 85.789 295.311 87.8573C296.548 89.9256 297.253 92.2692 297.362 94.6777C297.282 95.6183 297.282 96.5641 297.362 97.5048C297.502 98.387 297.882 99.2491 298.022 100.131C298.104 100.894 298.024 101.665 297.787 102.394C297.55 103.124 297.162 103.795 296.648 104.363C296.133 104.931 295.505 105.384 294.803 105.691C294.102 105.998 293.343 106.154 292.577 106.146Z" fill="#FF681C"/>
<path d="M243.313 145.987C242.696 151.661 242.629 157.382 243.113 163.07C243.089 163.563 243.214 164.052 243.473 164.473C243.899 164.94 244.486 165.226 245.115 165.275C248.357 165.88 251.646 166.195 254.944 166.217C255.406 166.366 255.896 166.41 256.378 166.347C256.859 166.283 257.321 166.115 257.73 165.852C258.139 165.59 258.486 165.241 258.744 164.829C259.003 164.417 259.168 163.953 259.228 163.471C261.029 155.932 262.811 148.393 264.172 140.754C264.713 137.686 265.093 134.237 263.251 131.751C260.589 128.142 253.402 127.741 249.939 130.367C245.755 133.596 243.974 141.134 243.313 145.987Z" fill="white"/>
<path d="M299.964 136.363L305.63 149.957C305.91 150.485 306.022 151.087 305.95 151.681C305.806 152.169 305.528 152.606 305.149 152.944C302.382 155.875 299.097 158.268 295.46 160.002C292.107 157.002 289.385 153.362 287.453 149.295C285.571 144.463 285.992 139.09 286.552 133.937C286.893 130.668 286.772 120.162 292.317 124.232C296.181 127.019 298.223 132.172 299.964 136.363Z" fill="white"/>
<path d="M197.491 263.883C197.493 265.736 197.117 267.57 196.388 269.273C195.658 270.976 194.589 272.512 193.247 273.788C190.934 275.983 187.952 277.338 184.779 277.637C184.186 277.668 183.591 277.668 182.998 277.637L83.567 275.632C79.7497 275.591 76.0992 274.059 73.3924 271.363C70.6856 268.667 69.1361 265.019 69.0737 261.196C69.0719 259.343 69.4473 257.509 70.177 255.806C70.9067 254.103 71.9753 252.567 73.3176 251.291C74.6787 249.98 76.2846 248.951 78.0434 248.263C79.8022 247.575 81.6792 247.241 83.567 247.281H86.9501C86.2409 244.818 85.8837 242.266 85.8891 239.702C85.8823 236.048 86.621 232.43 88.0599 229.072C89.4988 225.714 91.6075 222.686 94.2567 220.173C96.5909 217.936 99.3018 216.13 102.264 214.84C106.099 213.164 110.252 212.343 114.435 212.434L122.883 212.614C128.106 212.711 133.208 214.2 137.666 216.928C142.124 219.655 145.776 223.523 148.246 228.133C150.688 226.991 153.358 226.422 156.053 226.469H158.235C162.759 226.525 167.083 228.345 170.289 231.542C173.496 234.739 175.333 239.061 175.411 243.592V244.414C175.419 245.969 175.196 247.516 174.75 249.005L182.978 249.186C186.843 249.223 190.537 250.788 193.256 253.541C195.974 256.294 197.496 260.011 197.491 263.883Z" fill="white"/>
<path d="M184.779 277.637C184.186 277.668 183.591 277.668 182.998 277.637L83.567 275.632C79.7497 275.591 76.0992 274.059 73.3924 271.363C70.6856 268.667 69.1361 265.019 69.0737 261.196C69.0719 259.343 69.4473 257.509 70.177 255.806C70.9067 254.103 71.9753 252.566 73.3176 251.291C69.4141 275.873 95.0374 272.364 95.0374 272.364H159.636L184.779 277.637Z" fill="url(#paint9_linear)"/>
<path d="M94.1568 250.248L86.9502 247.502C86.241 245.038 85.8838 242.486 85.8892 239.922C85.8825 236.268 86.6212 232.651 88.0601 229.293C89.499 225.935 91.6077 222.906 94.2569 220.393C96.591 218.157 99.3019 216.351 102.264 215.06C82.306 232.223 94.1568 250.248 94.1568 250.248Z" fill="url(#paint10_linear)"/>
<path d="M459.771 147.35C459.772 149.205 459.395 151.041 458.661 152.744C457.928 154.447 456.855 155.982 455.507 157.255C453.185 159.45 450.198 160.805 447.019 161.104C446.426 161.155 445.83 161.155 445.237 161.104L345.827 159.099C342.042 159.049 338.424 157.531 335.733 154.865C333.042 152.2 331.486 148.593 331.393 144.803C331.373 142.931 331.737 141.075 332.464 139.35C333.19 137.626 334.264 136.069 335.617 134.778C338.387 132.15 342.072 130.711 345.887 130.768H349.25C348.55 128.309 348.193 125.766 348.189 123.209C348.183 119.555 348.922 115.938 350.361 112.58C351.8 109.222 353.908 106.194 356.556 103.68C358.891 101.439 361.602 99.6265 364.564 98.3267C368.398 96.6488 372.551 95.8278 376.735 95.9207L385.183 96.1011C390.405 96.1977 395.508 97.6888 399.963 100.42C404.418 103.152 408.064 107.025 410.526 111.64C412.962 110.482 415.636 109.912 418.333 109.976H420.515C425.04 110.022 429.369 111.835 432.581 115.029C435.792 118.224 437.632 122.547 437.71 127.079V127.901C437.709 129.463 437.48 131.017 437.03 132.513L445.257 132.673C449.116 132.72 452.801 134.286 455.517 137.032C458.232 139.779 459.76 143.485 459.771 147.35Z" fill="white"/>
<path d="M447.039 161.104C446.446 161.155 445.85 161.155 445.257 161.104L345.847 159.099C342.059 159.054 338.436 157.539 335.74 154.872C333.045 152.206 331.486 148.597 331.393 144.803C331.373 142.932 331.737 141.075 332.464 139.351C333.19 137.626 334.264 136.069 335.617 134.778C331.614 159.38 357.337 155.851 357.337 155.851H421.936L447.039 161.104Z" fill="url(#paint11_linear)"/>
<path d="M356.436 133.716L349.209 130.969C348.51 128.51 348.153 125.966 348.148 123.41C348.143 119.756 348.882 116.139 350.321 112.781C351.76 109.423 353.868 106.394 356.516 103.881C358.851 101.639 361.561 99.8272 364.523 98.5273C344.585 115.69 356.436 133.716 356.436 133.716Z" fill="url(#paint12_linear)"/>
<path d="M271.338 109.715C271.048 109.77 270.774 109.889 270.535 110.062C270.297 110.235 270.099 110.459 269.957 110.718C269.75 111.468 269.676 112.248 269.737 113.024C269.556 115.029 267.575 116.452 266.474 118.197C265.373 119.941 265.052 122.528 263.731 124.392C263.486 124.766 263.148 125.07 262.75 125.274C261.809 125.675 260.748 125.154 259.767 124.974C256.865 124.472 254.523 127.179 252.04 128.823C247.056 132.112 240.53 131.269 234.645 130.287C232.793 130.071 230.988 129.556 229.3 128.763C227.521 127.712 225.942 126.354 224.635 124.753C222.453 122.347 220.291 119.901 218.149 117.455C217.353 116.672 216.721 115.738 216.288 114.708C216.059 113.99 215.997 113.228 216.108 112.482C217.041 111.918 218.011 111.415 219.01 110.979C222.079 109.329 225.666 108.934 229.019 109.876C231.702 110.918 233.604 113.304 235.906 115.009C239.116 117.26 243.021 118.295 246.923 117.927C250.825 117.56 254.47 115.815 257.205 113.004C258.214 111.672 259.399 110.485 260.728 109.475C263.111 108.171 267.955 108.372 271.338 109.715Z" fill="url(#paint13_linear)"/>
</g>
<defs>
<linearGradient id="paint0_linear" x1="400.196" y1="357.518" x2="391.099" y2="240.506" gradientUnits="userSpaceOnUse">
<stop offset="0.01"/>
<stop offset="0.13" stop-opacity="0.69"/>
<stop offset="0.25" stop-opacity="0.32"/>
<stop offset="1" stop-opacity="0"/>
</linearGradient>
<linearGradient id="paint1_linear" x1="2997.73" y1="5552.06" x2="3970.63" y2="5341.41" gradientUnits="userSpaceOnUse">
<stop offset="0.01"/>
<stop offset="0.13" stop-opacity="0.69"/>
<stop offset="0.25" stop-opacity="0.32"/>
<stop offset="1" stop-opacity="0"/>
</linearGradient>
<linearGradient id="paint2_linear" x1="11818.6" y1="61165.2" x2="-85.8137" y2="-24715.2" gradientUnits="userSpaceOnUse">
<stop offset="0.01"/>
<stop offset="0.13" stop-opacity="0.69"/>
<stop offset="0.25" stop-opacity="0.32"/>
<stop offset="1" stop-opacity="0"/>
</linearGradient>
<linearGradient id="paint3_linear" x1="21745.4" y1="44173.6" x2="16478.1" y2="-19355.1" gradientUnits="userSpaceOnUse">
<stop offset="0.01"/>
<stop offset="0.13" stop-opacity="0.69"/>
<stop offset="0.25" stop-opacity="0.32"/>
<stop offset="1" stop-opacity="0"/>
</linearGradient>
<linearGradient id="paint4_linear" x1="-21383.8" y1="2979.79" x2="-21794.3" y2="3247.67" gradientUnits="userSpaceOnUse">
<stop offset="0.01"/>
<stop offset="0.13" stop-opacity="0.69"/>
<stop offset="0.25" stop-opacity="0.32"/>
<stop offset="1" stop-opacity="0"/>
</linearGradient>
<linearGradient id="paint5_linear" x1="-30215.3" y1="3360.06" x2="-30334.4" y2="2848.82" gradientUnits="userSpaceOnUse">
<stop offset="0.01"/>
<stop offset="0.13" stop-opacity="0.69"/>
<stop offset="0.25" stop-opacity="0.32"/>
<stop offset="1" stop-opacity="0"/>
</linearGradient>
<linearGradient id="paint6_linear" x1="-86483.3" y1="7372.63" x2="-92128.9" y2="16093.5" gradientUnits="userSpaceOnUse">
<stop offset="0.01"/>
<stop offset="0.13" stop-opacity="0.69"/>
<stop offset="0.25" stop-opacity="0.32"/>
<stop offset="1" stop-opacity="0"/>
</linearGradient>
<linearGradient id="paint7_linear" x1="7356" y1="2313.49" x2="6429.32" y2="4530.76" gradientUnits="userSpaceOnUse">
<stop offset="0.01"/>
<stop offset="0.13" stop-opacity="0.69"/>
<stop offset="0.25" stop-opacity="0.32"/>
<stop offset="1" stop-opacity="0"/>
</linearGradient>
<linearGradient id="paint8_linear" x1="-7855.83" y1="1091.45" x2="-8060.86" y2="1349.41" gradientUnits="userSpaceOnUse">
<stop offset="0.01"/>
<stop offset="0.13" stop-opacity="0.69"/>
<stop offset="0.25" stop-opacity="0.32"/>
<stop offset="1" stop-opacity="0"/>
</linearGradient>
<linearGradient id="paint9_linear" x1="8388.31" y1="4590.31" x2="8360.87" y2="3042.32" gradientUnits="userSpaceOnUse">
<stop offset="0.01"/>
<stop offset="0.13" stop-opacity="0.69"/>
<stop offset="0.25" stop-opacity="0.32"/>
<stop offset="1" stop-opacity="0"/>
</linearGradient>
<linearGradient id="paint10_linear" x1="526.377" y1="4899.33" x2="1499.31" y2="4688.8" gradientUnits="userSpaceOnUse">
<stop offset="0.01"/>
<stop offset="0.13" stop-opacity="0.69"/>
<stop offset="0.25" stop-opacity="0.32"/>
<stop offset="1" stop-opacity="0"/>
</linearGradient>
<linearGradient id="paint11_linear" x1="23798.4" y1="2940.73" x2="23770.9" y2="1393.28" gradientUnits="userSpaceOnUse">
<stop offset="0.01"/>
<stop offset="0.13" stop-opacity="0.69"/>
<stop offset="0.25" stop-opacity="0.32"/>
<stop offset="1" stop-opacity="0"/>
</linearGradient>
<linearGradient id="paint12_linear" x1="2934.09" y1="2738.01" x2="3906.99" y2="2527.35" gradientUnits="userSpaceOnUse">
<stop offset="0.01"/>
<stop offset="0.13" stop-opacity="0.69"/>
<stop offset="0.25" stop-opacity="0.32"/>
<stop offset="1" stop-opacity="0"/>
</linearGradient>
<linearGradient id="paint13_linear" x1="8723.13" y1="1922.97" x2="7571.88" y2="-227.057" gradientUnits="userSpaceOnUse">
<stop offset="0.01"/>
<stop offset="0.13" stop-opacity="0.69"/>
<stop offset="0.25" stop-opacity="0.32"/>
<stop offset="1" stop-opacity="0"/>
</linearGradient>
<clipPath id="clip0">
<rect width="612" height="462" fill="white"/>
</clipPath>
</defs>
</svg>
