<svg width="881" height="663" viewBox="0 0 881 663" fill="none" xmlns="http://www.w3.org/2000/svg">
<g clip-path="url(#clip0)">
<path opacity="0.18" d="M381.533 59.2178C374.648 62.4017 367.884 65.8509 361.241 69.6378C283.577 113.778 229.224 196.631 144.192 224.152C121.17 231.605 96.458 233.656 77.8572 249.961C64.4365 262.19 52.7568 276.198 43.1439 291.593C22.8181 323.493 9.32908 359.25 3.52663 396.612C-8.09281 468.973 8.16474 550.452 65.8271 600.019C109.165 637.309 173.663 639.19 227.944 629.108C259.082 623.343 288.916 612.103 319.74 604.698C373.63 591.804 429.69 590.808 484.006 601.779C519.831 609.016 554.448 621.486 590.296 629.132C616.048 634.655 642.862 637.719 669.144 634.318C694.364 631.062 713.81 619.05 736.783 609.353C780.483 590.853 824.714 567.263 852.567 527.489C873.993 496.32 883.891 458.68 880.565 421.022C876.94 383.422 861.53 347.921 836.527 319.572C825.439 306.837 810.945 295.597 805.534 279.388C800.123 263.179 799.277 244.269 797.586 227.65C793.914 191.204 789.518 153.721 771.738 121.689C751.978 86.0878 716.975 60.5927 678.783 46.2411C640.591 31.8895 599.307 27.7891 558.506 27.3067C498.09 26.7037 436.079 33.9398 381.533 59.2178Z" fill="#FDA085"/>
<path d="M784.542 377.051L743.475 405.996L561.139 533.906C547.136 543.981 532.552 553.227 517.464 561.596C505.168 568.229 498.138 580.892 483.258 584.269C475.868 585.551 468.302 585.42 460.961 583.883C448.958 581.932 437.149 578.938 425.668 574.934C424.267 574.452 422.262 574.162 421.634 575.513C421.005 576.864 424.387 576.719 423.204 575.803C316.31 561.33 214.175 522.738 108.247 502.477C107.016 502.249 105.893 501.628 105.046 500.708C104.199 499.788 103.675 498.617 103.553 497.373C103.43 496.13 103.716 494.88 104.366 493.812C105.017 492.745 105.997 491.917 107.16 491.454C115.687 487.981 124.987 486.63 134.385 484.797C151.294 481.685 167.963 478.646 184.824 475.896C218.807 470.019 253.117 466.217 287.563 464.512C344.766 462.1 402.501 468.202 459.077 459.35C512.826 450.956 563.41 429.513 613.415 408.046C625.493 402.884 637.789 397.53 647.234 388.46C654.65 381.345 660.593 371.962 670.038 367.283C679.846 362.459 691.779 363.303 702.312 363.785C730.092 365.015 757.534 370.66 784.542 377.051Z" fill="url(#paint0_linear)"/>
<path d="M112.885 466.562L351.651 362.844C356.822 360.253 362.659 359.286 368.392 360.071L663.709 385.132C669.362 385.928 668.347 410.193 663.709 414.076L489.297 562.319C484.043 566.949 477.755 570.255 470.958 571.959C464.162 573.663 457.056 573.715 450.235 572.112L114.986 490.706C110.711 489.669 108.875 468.54 112.885 466.562Z" fill="#FDA085"/>
<path d="M112.885 466.562L351.651 362.844C356.822 360.253 362.659 359.286 368.392 360.071L663.709 385.132C669.362 385.928 668.347 410.193 663.709 414.076L489.297 562.319C484.043 566.949 477.755 570.255 470.958 571.959C464.162 573.663 457.056 573.715 450.235 572.112L114.986 490.706C110.711 489.669 108.875 468.54 112.885 466.562Z" fill="url(#paint1_linear)"/>
<path d="M663.782 396.878L489.37 545.121C484.121 549.759 477.833 553.071 471.036 554.78C464.239 556.488 457.131 556.542 450.308 554.938L114.987 473.508C110.711 472.471 110.156 465.717 114.141 463.715L206.034 411.929L230.191 398.373L303.652 357.152C308.823 354.559 314.66 353.592 320.393 354.378L660.811 383.95C666.464 384.625 668.348 392.995 663.782 396.878Z" fill="#FDA085"/>
<path d="M320.368 362.458L631.532 408.408L535.75 486.075L216.421 421.553L320.368 362.458Z" fill="url(#paint2_linear)"/>
<path d="M635.301 416.801C634.383 419.575 631.364 420.998 628.634 422.083C608.733 429.538 588.444 435.915 567.855 441.187C548.312 446.566 527.924 451.993 507.971 448.423C505.465 447.772 502.866 447.56 500.289 447.796C496.037 448.568 492.897 452.017 489.587 454.742C473.088 468.298 448.979 465.211 427.963 461.4C428.872 454.482 429.324 447.512 429.316 440.536C373.103 441.544 316.908 437.719 261.353 429.102C249.275 427.245 216.639 425.774 208.402 415.764C207.383 414.66 206.566 413.386 205.986 412.001L230.143 398.446C231.237 398.493 232.323 398.663 233.38 398.952C297.656 416.749 364.463 423.679 431.031 419.454C432.746 410.795 423.784 399.965 430.596 394.225C432.839 392.632 435.554 391.842 438.302 391.981C448.501 391.586 458.64 393.706 467.822 398.156C473.257 400.809 478.378 404.283 484.249 405.778C489.992 406.917 495.885 407.104 501.69 406.333C538.751 403.564 575.937 402.855 613.077 404.21C619.189 404.427 625.59 404.789 630.784 407.997C633.828 409.83 636.461 413.4 635.301 416.801Z" fill="url(#paint3_linear)"/>
<path d="M287.804 440.801L416.029 466.682L349.718 520.687L216.421 490.826L287.804 440.801Z" fill="url(#paint4_linear)"/>
<path d="M223.692 500.185C225.003 502.815 226.859 505.136 229.137 506.995C231.416 508.854 234.064 510.208 236.906 510.967C246.327 513.234 301.235 527.272 301.235 527.272C301.235 527.272 310.173 528.333 315.126 522.448L223.692 500.185Z" fill="url(#paint5_linear)"/>
<path d="M310.608 354.234L661.801 404.138C664.375 404.497 666.988 403.86 669.108 402.358C671.227 400.856 672.692 398.602 673.203 396.058L723.304 143.446C723.84 140.75 723.802 137.972 723.191 135.292C722.58 132.612 721.41 130.09 719.757 127.892C718.105 125.693 716.007 123.867 713.601 122.533C711.194 121.198 708.533 120.385 705.79 120.146L358.97 89.7788C353.866 89.3323 348.79 90.9003 344.829 94.1467C340.869 97.393 338.34 102.059 337.785 107.145L310.608 354.234Z" fill="#FDA085"/>
<path d="M310.608 354.234L660.883 403.994C663.713 404.394 666.588 403.697 668.92 402.046C671.252 400.396 672.862 397.916 673.42 395.117L723.304 143.446C723.84 140.75 723.802 137.972 723.191 135.292C722.58 132.612 721.41 130.09 719.757 127.892C718.105 125.693 716.007 123.867 713.601 122.533C711.194 121.198 708.533 120.385 705.79 120.146L358.97 89.7788C353.866 89.3323 348.79 90.9003 344.829 94.1467C340.869 97.393 338.34 102.059 337.785 107.145L310.608 354.234Z" fill="url(#paint6_linear)"/>
<path d="M655.447 389.618L705.331 134.739L351.651 102.128L323.532 343.452L655.447 389.618Z" fill="white"/>
<path d="M626.363 181.074L378.296 155.289L383.925 123.933L632.064 149.717C634.161 149.853 636.206 150.427 638.067 151.402C639.927 152.378 641.562 153.732 642.865 155.379C644.167 157.025 645.109 158.926 645.629 160.96C646.149 162.993 646.235 165.112 645.882 167.18C644.93 171.499 642.406 175.311 638.8 177.878C635.194 180.444 630.762 181.583 626.363 181.074Z" fill="#FDA085"/>
<path opacity="0.56" d="M378.296 155.289L578.677 176.154L584.306 144.701L383.925 123.812L378.296 155.289Z" fill="white"/>
<path d="M614.307 168.833C618.544 167.179 620.746 162.69 619.225 158.807C617.704 154.923 613.036 153.117 608.799 154.771C604.562 156.426 602.36 160.915 603.881 164.798C605.402 168.681 610.07 170.488 614.307 168.833Z" stroke="white" stroke-width="1.15777" stroke-miterlimit="10"/>
<path d="M616.7 174.851C616.531 174.441 614.429 168.725 614.429 168.725" stroke="white" stroke-width="1.15777" stroke-miterlimit="10"/>
<path opacity="0.18" d="M623.971 226.468L370.808 199.405L372.136 195.256L625.276 222.319L623.971 226.468Z" fill="#FDA085"/>
<path opacity="0.18" d="M460.816 193.279L375.325 183.173L377.064 175.744L462.58 185.054L460.816 193.279Z" fill="#FDA085"/>
<path opacity="0.18" d="M620.831 243.183L367.667 216.12L368.972 211.972L622.136 239.035L620.831 243.183Z" fill="#FDA085"/>
<g opacity="0.66">
<path opacity="0.18" d="M447.215 260.044L361.724 249.961L363.463 242.508L448.979 251.819L447.215 260.044Z" fill="#FDA085"/>
<path opacity="0.18" d="M609.694 294.729L356.53 267.666L357.859 263.493L611.023 290.58L609.694 294.729Z" fill="#FDA085"/>
<path opacity="0.18" d="M603.921 314.073L350.757 287.011L352.085 282.862L605.225 309.925L603.921 314.073Z" fill="#FDA085"/>
</g>
<path opacity="0.18" d="M599.018 355.873L346.12 322.901L347.424 318.776L600.322 351.749L599.018 355.873Z" fill="#FDA085"/>
<path d="M458.69 331.512C458.69 331.512 199.97 417.043 164.605 340.268C129.239 263.493 322.905 242.46 322.905 242.46C322.905 242.46 96.6032 264.964 147.381 359.805C198.159 454.646 474.126 360.866 474.126 360.866L458.69 331.512Z" fill="white"/>
<path d="M459.294 327.966C459.403 331.48 460.365 334.916 462.097 337.976L468.474 351.58C469.834 354.965 471.744 358.103 474.127 360.867C475.994 362.75 478.279 364.168 480.797 365.006C483.315 365.844 485.995 366.079 488.621 365.691C489.859 365.609 491.056 365.212 492.097 364.536C493.138 363.86 493.987 362.929 494.563 361.831C495.65 359.009 493.815 355.994 492.341 353.365C488.379 346.298 486.688 338.242 484.804 330.378C483.355 324.252 480.408 315.617 472.919 314.749C466.3 313.977 459.681 321.526 459.294 327.966Z" fill="#FDA085"/>
<path d="M524.276 296.273C524.276 296.273 469.536 246.271 416.029 296.273C416.029 296.273 457.385 290.942 470.14 313.688L524.276 296.273Z" fill="#FDA085"/>
<path d="M546.646 341.98C546.646 341.98 544.037 416.03 470.817 419.165C470.817 419.165 503.598 393.429 496.279 368.392L546.646 341.98Z" fill="#FDA085"/>
<path d="M470.14 313.736C470.14 313.736 642.741 214.842 739.779 230.665C739.779 230.665 717.844 301.868 496.205 368.392L470.14 313.736Z" fill="white"/>
<path d="M739.9 230.617C739.9 230.617 717.965 301.82 496.326 368.344L488.427 351.773L470.14 313.735C470.14 313.735 623.343 225.841 722.217 228.976C728.141 229.137 734.047 229.685 739.9 230.617Z" fill="url(#paint7_linear)"/>
<path d="M739.9 230.617C724.56 250.709 671.608 287.734 562.758 327.219C556.606 329.47 550.269 331.721 543.746 333.972C526.595 339.89 508.155 345.823 488.427 351.773L470.165 313.735C470.165 313.735 489.031 302.423 517.874 288.047C533.093 280.449 551.09 272.007 570.56 263.927C624.889 241.374 690.741 221.475 739.9 230.617Z" fill="white"/>
<path d="M606.893 267.545C597.689 271.38 587.35 270.753 577.397 271.404C574.439 271.522 571.504 271.983 568.652 272.779C563.024 274.954 557.89 278.235 553.554 282.427C552.966 282.831 552.525 283.415 552.298 284.091C552.233 284.794 552.403 285.498 552.781 286.093C554.985 290.577 557.52 294.891 560.367 298.998C563.749 303.822 567.734 308.959 567.614 314.893C567.27 319.436 565.504 323.757 562.565 327.243L561.84 328.256C558.355 332.941 554.571 337.396 550.511 341.594C547.515 344.681 549.448 354.112 542.201 351.845C535.896 349.891 538.964 342.414 541.114 338.483L543.529 333.996L547.588 326.495C550.68 320.826 553.82 314.097 551.211 308.187C549.375 304.063 545.148 301.578 541.186 299.359C533.709 294.935 525.871 291.15 517.754 288.047C532.973 280.449 550.97 272.007 570.44 263.927C583.151 264.992 595.92 265.177 608.656 264.482C609.719 265.495 608.221 266.99 606.893 267.545Z" fill="url(#paint8_linear)"/>
<path d="M585.393 310.142C596.359 310.142 605.249 301.265 605.249 290.315C605.249 279.365 596.359 270.488 585.393 270.488C574.426 270.488 565.536 279.365 565.536 290.315C565.536 301.265 574.426 310.142 585.393 310.142Z" fill="#FDA085"/>
<path d="M585.393 303.147C592.864 303.147 598.921 297.099 598.921 289.639C598.921 282.179 592.864 276.132 585.393 276.132C577.922 276.132 571.865 282.179 571.865 289.639C571.865 297.099 577.922 303.147 585.393 303.147Z" fill="url(#paint9_linear)"/>
<path d="M555.704 247.139C555.704 247.26 552.854 246.777 552.926 246.922C553.578 247.689 554.407 248.285 555.342 248.659C558.76 250.037 562.261 251.197 565.826 252.132C569.377 252.494 571.092 249.141 572.203 246.319C573.097 244.052 574.015 241.785 574.957 239.541C575.68 238.099 576.138 236.538 576.31 234.934C576.346 234.566 576.296 234.195 576.165 233.849C575.935 233.404 575.547 233.061 575.078 232.884C574.366 232.595 573.568 232.595 572.856 232.884C571.551 233.439 570.947 234.91 570.295 236.165C568.773 239.035 566.382 241.375 565.077 244.341C564.101 244.402 563.14 244.082 562.396 243.449L558.168 240.699C557.965 240.537 557.724 240.43 557.468 240.386C557.259 240.375 557.051 240.416 556.861 240.504C556.672 240.592 556.507 240.725 556.381 240.892C555.621 241.809 555.165 242.938 555.076 244.124C554.955 244.729 554.955 245.352 555.076 245.957C555.227 246.38 555.439 246.778 555.704 247.139Z" fill="#FCAB9A"/>
<path d="M558.965 240.578L560.463 241.495C560.68 241.495 560.897 241.736 560.97 241.977C561.018 242.151 561.018 242.334 560.97 242.508L559.979 246.898C559.678 248.863 558.971 250.744 557.902 252.421C557.322 253.217 553.071 250.275 552.346 249.889C550.538 248.691 548.959 247.179 547.684 245.427C547.094 244.713 546.643 243.894 546.355 243.015C545.919 240.789 546.26 238.482 547.321 236.478C549.012 233.173 551.863 234.814 554.013 236.84C555.543 238.238 557.201 239.49 558.965 240.578Z" fill="#FDA085"/>
<path d="M531.692 350.133C531.766 350.449 531.935 350.735 532.176 350.953C535.62 354.307 539.725 356.911 544.23 358.599C544.503 358.752 544.81 358.834 545.124 358.84C545.424 358.777 545.692 358.609 545.878 358.365C546.064 358.122 546.156 357.82 546.138 357.514C546.078 356.902 545.852 356.319 545.486 355.825C544.6 354.424 543.606 353.094 542.515 351.846C541.497 351.006 540.847 349.803 540.703 348.493C540.798 347.84 540.968 347.201 541.21 346.587C541.935 343.862 537.393 343.307 535.485 343.958C534.406 344.612 533.499 345.513 532.839 346.587C532.18 347.661 531.786 348.877 531.692 350.133Z" fill="#FCAB9A"/>
<path d="M520.58 273.527C520.58 273.527 512.342 285.008 520.821 295.235C526.691 302.326 535.509 307.151 543.625 311.203C545.051 311.926 546.742 312.505 548.119 313.374C550.8 315.062 549.157 316.485 547.732 318.728C544.157 324.469 540.549 330.169 536.91 335.83C534.806 338.695 533.363 341.99 532.682 345.478L541.886 348.276C546.845 339.835 552.501 331.824 558.796 324.324C561.526 321.092 565.053 317.088 564.545 312.602C563.909 308.449 562.08 304.569 559.279 301.434L542.055 281.462L520.58 273.527Z" fill="#473F47"/>
<path d="M560.584 218.653C560.873 219.497 561.695 220.173 561.816 221.065C561.936 221.958 561.018 223.019 560.415 224.008C559.811 224.997 559.4 226.902 558.579 228.229C558.432 228.521 558.194 228.757 557.902 228.904C557.639 229 557.361 229.049 557.081 229.049C555.983 229.017 554.894 228.839 553.844 228.518C553.657 228.4 553.436 228.349 553.216 228.374C553.032 228.482 552.894 228.653 552.829 228.856C551.601 231.393 551.012 234.192 551.114 237.009C551.114 237.925 551.114 239.083 550.365 239.541C550.093 239.719 549.771 239.803 549.447 239.782C547.321 239.782 545.703 237.877 544.616 235.995C543.726 234.304 543.037 232.515 542.563 230.665C542.39 230.128 542.324 229.563 542.369 229.001C542.482 228.346 542.711 227.717 543.046 227.143C544.118 225.053 544.983 222.864 545.63 220.607C546.194 217.65 547.204 214.795 548.626 212.141C549.178 211.297 549.98 210.648 550.921 210.283C551.995 210.049 553.114 210.107 554.158 210.452C556.34 210.801 558.304 211.976 559.641 213.733C560.052 214.36 560.245 217.568 560.584 218.653Z" fill="#FCAB9A"/>
<path d="M539.398 282.958C537.553 283.252 535.666 283.145 533.866 282.644C531.228 282.117 528.528 281.963 525.846 282.186C524.253 282.585 522.694 283.109 521.184 283.754C519.959 284.083 518.676 284.144 517.425 283.931C516.174 283.719 514.984 283.239 513.937 282.524C513.937 282.162 513.937 281.776 513.937 281.414C514.299 278.182 512.946 273.599 513.937 270.488C517.488 258.066 520.507 248.779 527.585 238.118C529.615 235.055 537.61 231.123 540.896 229.483C541.643 229.083 542.466 228.844 543.311 228.784C544.285 228.823 545.236 229.087 546.09 229.556C549.012 230.979 550.148 233.632 551.573 236.382C553.234 239.183 554.364 242.265 554.907 245.475C555.269 249.624 556.743 253.507 554.375 257.366C551.114 262.793 545.703 266.46 542.683 272.321C542.148 273.168 541.848 274.142 541.814 275.143C541.814 276.542 542.804 277.82 542.804 279.219C542.705 280.122 542.322 280.97 541.71 281.642C541.098 282.314 540.289 282.775 539.398 282.958Z" fill="#FDA085"/>
<path d="M558.023 263.396C559.183 263.927 560.439 264.385 561.429 264.771C567.107 266.577 572.993 267.647 578.943 267.955C586.428 268.899 593.992 269.036 601.506 268.365C604.575 268.13 607.549 267.198 610.202 265.639C610.975 265.133 611.772 264.216 611.386 263.372C611.161 262.996 610.823 262.7 610.419 262.528C607.518 261 604.246 260.314 600.974 260.55C600.974 259.416 600.684 257.969 599.573 257.873C598.462 257.776 597.81 259.296 597.157 260.285C595.708 262.697 592.326 262.962 589.621 262.938C583.367 263.03 577.124 262.39 571.02 261.032C567.96 260.304 564.993 259.227 562.178 257.824C560.367 256.908 556.719 253.121 554.931 255.147C553.144 257.173 551.477 258.524 553.893 260.671C555.123 261.783 556.516 262.702 558.023 263.396Z" fill="#FCAB9A"/>
<path d="M548.602 240.12C548.602 240.12 558.072 253.459 559.449 254.255C560.826 255.051 550.945 264.747 550.945 264.747C550.945 264.747 539.495 252.373 538.166 246.054C536.838 239.734 542.756 235.393 548.602 240.12Z" fill="#FDA085"/>
<path d="M559.569 212.43C559.162 212.986 558.646 213.452 558.052 213.8C557.457 214.149 556.798 214.372 556.114 214.456C554.924 214.646 553.721 214.75 552.515 214.77C552.515 214.77 552.298 214.77 552.225 214.77C552.182 214.819 552.148 214.876 552.128 214.938C552.107 215.001 552.099 215.066 552.104 215.132C552.054 216.058 551.813 216.964 551.398 217.794C550.982 218.624 550.401 219.36 549.689 219.956C549.502 220.073 549.351 220.24 549.254 220.438C549.156 220.72 549.156 221.025 549.254 221.307C549.423 222.272 549.423 223.26 549.254 224.225C549.116 225.206 548.658 226.113 547.949 226.806C547.773 226.928 547.645 227.107 547.587 227.313C547.586 227.492 547.636 227.667 547.732 227.819C548.065 228.827 547.995 229.924 547.539 230.882C546.63 230.186 545.578 229.7 544.459 229.458C543.34 229.216 542.18 229.225 541.065 229.483C540.387 229.542 539.744 229.812 539.229 230.255C535.992 233.656 533.335 237.684 529.928 240.965C528.479 242.364 526.861 243.594 525.508 245.113C523.468 247.598 521.837 250.39 520.676 253.387C519.791 255.735 518.614 257.963 517.174 260.02C516.45 261.042 515.531 261.911 514.47 262.577C513.408 263.244 512.226 263.694 510.99 263.903C509.819 263.999 508.642 263.852 507.531 263.47C506.421 263.088 505.402 262.48 504.54 261.684C503.031 260.304 501.955 258.517 501.441 256.54C500.927 254.563 500.996 252.479 501.641 250.54C501.956 249.94 502.042 249.246 501.882 248.587C501.694 248.222 501.431 247.901 501.109 247.646C499.629 246.105 498.802 244.053 498.802 241.917C498.802 239.782 499.629 237.729 501.109 236.189C502.728 234.669 506.617 233.198 506.835 230.689C507.052 228.181 504.805 225.697 505.723 222.802C506.056 221.922 506.538 221.106 507.149 220.39C508.313 218.682 509.892 217.296 511.738 216.362C513.606 215.733 515.565 215.416 517.536 215.421C523.865 214.987 530.484 213.009 534.663 208.185C535.604 206.935 536.637 205.758 537.755 204.664C539.066 203.651 540.558 202.898 542.152 202.445C545.984 200.981 550.213 200.921 554.085 202.276C555.431 202.837 556.632 203.694 557.598 204.785C558.565 205.875 559.271 207.169 559.666 208.571C559.927 209.184 560.053 209.845 560.037 210.511C560.02 211.177 559.861 211.831 559.569 212.43Z" fill="#FC682D"/>
<path d="M558.868 222.875C557.939 222.843 557.011 222.763 556.09 222.633C555.824 223.14 557.032 225.045 557.298 225.19C557.425 225.3 557.588 225.361 557.757 225.361C557.926 225.361 558.089 225.3 558.216 225.19C558.323 225.038 558.397 224.866 558.433 224.684L558.868 222.85" fill="white"/>
<path d="M556.694 218.774C557.095 218.774 557.419 218.45 557.419 218.05C557.419 217.651 557.095 217.327 556.694 217.327C556.294 217.327 555.97 217.651 555.97 218.05C555.97 218.45 556.294 218.774 556.694 218.774Z" fill="#231F20"/>
<path d="M573.951 227.172L572.907 226.973C572.252 226.849 571.62 227.278 571.495 227.932L570.166 234.899C570.042 235.553 570.472 236.184 571.127 236.309L572.171 236.507C572.826 236.632 573.459 236.202 573.584 235.548L574.912 228.582C575.037 227.928 574.607 227.296 573.951 227.172Z" fill="#FDA085"/>
<path d="M571.84 227.747C571.206 227.814 570.602 228.054 570.095 228.442C569.588 228.829 569.197 229.348 568.966 229.942C568.766 230.715 568.807 231.531 569.083 232.281C569.359 233.031 569.858 233.679 570.512 234.139C571.84 235.029 573.366 235.583 574.957 235.755C575.189 235.834 575.437 235.858 575.68 235.825C575.924 235.791 576.156 235.701 576.358 235.562C576.566 235.333 576.7 235.047 576.744 234.742C577.124 233.667 577.28 232.526 577.203 231.389C576.872 230.255 576.155 229.271 575.177 228.606C574.198 227.942 573.019 227.638 571.84 227.747Z" fill="#FCAB9A"/>
<path d="M567.444 222.561L567.202 225.31C567.123 225.675 567.189 226.056 567.388 226.371C567.587 226.687 567.902 226.912 568.265 226.999C572.895 227.323 577.424 228.5 581.624 230.472C583.901 231.751 586.067 233.22 588.098 234.862C588.919 235.513 590.103 234.862 590.296 233.463L592.446 218.991C592.639 217.712 591.722 216.82 590.755 217.302C586.721 219.353 577.662 223.115 569.28 220.8C568.386 220.583 567.54 221.427 567.444 222.561Z" fill="#FDA085"/>
<path d="M532.272 347.166C531.115 347.909 530.259 349.037 529.856 350.35C529.723 350.757 529.723 351.197 529.856 351.604C530.026 351.967 530.283 352.282 530.605 352.521C534.468 355.957 538.814 358.809 543.505 360.987C544.1 361.291 544.747 361.479 545.413 361.542C545.743 361.579 546.077 361.53 546.382 361.398C546.687 361.267 546.953 361.059 547.152 360.794C547.382 360.408 547.499 359.965 547.49 359.516C547.517 358.688 547.375 357.863 547.074 357.091C546.773 356.319 546.319 355.616 545.739 355.024C545.159 354.431 544.466 353.962 543.7 353.644C542.934 353.326 542.112 353.165 541.282 353.172C540.687 353.22 540.089 353.22 539.495 353.172C538.938 353.031 538.413 352.785 537.949 352.448C536.679 351.71 535.482 350.854 534.373 349.892C533.625 349.021 532.924 348.111 532.272 347.166Z" fill="#473F47"/>
</g>
<defs>
<linearGradient id="paint0_linear" x1="-258.575" y1="-86.2751" x2="1553.25" y2="1270.86" gradientUnits="userSpaceOnUse">
<stop offset="0.01"/>
<stop offset="0.08" stop-opacity="0.69"/>
<stop offset="0.21" stop-opacity="0.32"/>
<stop offset="1" stop-opacity="0"/>
</linearGradient>
<linearGradient id="paint1_linear" x1="94391.5" y1="34222.7" x2="101317" y2="91605.1" gradientUnits="userSpaceOnUse">
<stop offset="0.01"/>
<stop offset="0.08" stop-opacity="0.69"/>
<stop offset="0.21" stop-opacity="0.32"/>
<stop offset="1" stop-opacity="0"/>
</linearGradient>
<linearGradient id="paint2_linear" x1="78626.8" y1="9051.46" x2="76833.3" y2="49764.2" gradientUnits="userSpaceOnUse">
<stop offset="0.01"/>
<stop offset="0.08" stop-opacity="0.69"/>
<stop offset="0.21" stop-opacity="0.32"/>
<stop offset="1" stop-opacity="0"/>
</linearGradient>
<linearGradient id="paint3_linear" x1="78005.6" y1="9039.8" x2="78742.2" y2="29149.4" gradientUnits="userSpaceOnUse">
<stop offset="0.01"/>
<stop offset="0.08" stop-opacity="0.69"/>
<stop offset="0.21" stop-opacity="0.32"/>
<stop offset="1" stop-opacity="0"/>
</linearGradient>
<linearGradient id="paint4_linear" x1="28464.9" y1="9662.88" x2="27266.5" y2="29904.3" gradientUnits="userSpaceOnUse">
<stop offset="0.01"/>
<stop offset="0.08" stop-opacity="0.69"/>
<stop offset="0.21" stop-opacity="0.32"/>
<stop offset="1" stop-opacity="0"/>
</linearGradient>
<linearGradient id="paint5_linear" x1="13082.9" y1="6762.58" x2="12903.5" y2="8316.73" gradientUnits="userSpaceOnUse">
<stop offset="0.01"/>
<stop offset="0.08" stop-opacity="0.69"/>
<stop offset="0.21" stop-opacity="0.32"/>
<stop offset="1" stop-opacity="0"/>
</linearGradient>
<linearGradient id="paint6_linear" x1="94189.3" y1="9965.01" x2="114379" y2="241628" gradientUnits="userSpaceOnUse">
<stop offset="0.01"/>
<stop offset="0.08" stop-opacity="0.69"/>
<stop offset="0.21" stop-opacity="0.32"/>
<stop offset="1" stop-opacity="0"/>
</linearGradient>
<linearGradient id="paint7_linear" x1="73407.7" y1="16883.3" x2="75184.9" y2="33709.7" gradientUnits="userSpaceOnUse">
<stop offset="0.01"/>
<stop offset="0.08" stop-opacity="0.69"/>
<stop offset="0.21" stop-opacity="0.32"/>
<stop offset="1" stop-opacity="0"/>
</linearGradient>
<linearGradient id="paint8_linear" x1="20177.6" y1="14451" x2="32336.1" y2="13477.6" gradientUnits="userSpaceOnUse">
<stop offset="0.01"/>
<stop offset="0.08" stop-opacity="0.69"/>
<stop offset="0.21" stop-opacity="0.32"/>
<stop offset="1" stop-opacity="0"/>
</linearGradient>
<linearGradient id="paint9_linear" x1="6224.33" y1="2423.81" x2="9511.06" y2="5309.05" gradientUnits="userSpaceOnUse">
<stop offset="0.01"/>
<stop offset="0.08" stop-opacity="0.69"/>
<stop offset="0.21" stop-opacity="0.32"/>
<stop offset="1" stop-opacity="0"/>
</linearGradient>
<clipPath id="clip0">
<rect width="881" height="663" fill="white"/>
</clipPath>
</defs>
</svg>
