<svg width="309" height="309" viewBox="0 0 309 309" fill="none" xmlns="http://www.w3.org/2000/svg">
<g clip-path="url(#clip0)">
<rect width="309" height="309" rx="154.5" fill="#1E90FF" fill-opacity="0.5"/>
<g filter="url(#filter0_dd)">
<rect x="46" y="130" width="218" height="204" rx="10" fill="white"/>
</g>
<rect x="56" y="145" width="170" height="7" rx="3.5" fill="#C4C4C4" fill-opacity="0.3"/>
<rect x="145" y="216" width="46" height="3" rx="1.5" fill="#C4C4C4" fill-opacity="0.3"/>
<rect x="192" y="216" width="34" height="3" rx="1.5" fill="#C4C4C4" fill-opacity="0.3"/>
<rect x="145" y="221" width="34" height="3" rx="1.5" fill="#C4C4C4" fill-opacity="0.3"/>
<rect x="180" y="221" width="26" height="3" rx="1.5" fill="#C4C4C4" fill-opacity="0.3"/>
<rect x="145" y="185" width="84" height="11" rx="5.5" fill="#C4C4C4" fill-opacity="0.3"/>
<rect x="145" y="199" width="44" height="11" rx="5.5" fill="#C4C4C4" fill-opacity="0.3"/>
<rect x="145" y="229" width="29" height="5" rx="2.5" fill="#1E90FF" fill-opacity="0.5"/>
<circle cx="232.5" cy="148.5" r="3.5" fill="#FFDA55" fill-opacity="0.5"/>
<circle cx="241.5" cy="148.5" r="3.5" fill="#32EC8D" fill-opacity="0.5"/>
<circle cx="250.5" cy="148.5" r="3.5" fill="#F44242" fill-opacity="0.5"/>
<rect x="74" y="178" width="63" height="63" rx="10" fill="#C4C4C4" fill-opacity="0.3"/>
<rect x="70" y="272" width="40" height="40" rx="10" fill="#C4C4C4" fill-opacity="0.3"/>
<rect x="113" y="272" width="40" height="40" rx="10" fill="#C4C4C4" fill-opacity="0.3"/>
<rect x="156" y="272" width="40" height="40" rx="10" fill="#C4C4C4" fill-opacity="0.3"/>
<rect x="199" y="272" width="40" height="40" rx="10" fill="#C4C4C4" fill-opacity="0.3"/>
<g filter="url(#filter1_dd)">
<rect x="117" y="43" width="76" height="76" rx="10" fill="white"/>
</g>
<path d="M169.167 83.1252C169.167 85.6185 167.326 87.6868 164.917 88.0268V92.3335C164.917 93.0849 164.619 93.8056 164.087 94.337C163.556 94.8683 162.835 95.1668 162.084 95.1668H156.701V94.7418C156.701 93.7274 156.298 92.7545 155.58 92.0371C154.863 91.3198 153.89 90.9168 152.876 90.9168C150.751 90.9168 149.051 92.631 149.051 94.7418V95.1668H143.667C142.916 95.1668 142.195 94.8683 141.664 94.337C141.132 93.8056 140.834 93.0849 140.834 92.3335V86.9502H141.259C143.37 86.9502 145.084 85.2502 145.084 83.1252C145.084 81.0002 143.37 79.3002 141.259 79.3002H140.834V73.9168C140.834 73.1654 141.132 72.4447 141.664 71.9134C142.195 71.382 142.916 71.0835 143.667 71.0835H147.974C148.314 68.6752 150.382 66.8335 152.876 66.8335C155.369 66.8335 157.437 68.6752 157.777 71.0835H162.084C162.835 71.0835 163.556 71.382 164.087 71.9134C164.619 72.4447 164.917 73.1654 164.917 73.9168V78.2235C167.326 78.5635 169.167 80.6318 169.167 83.1252ZM162.084 85.2502H164.209C164.773 85.2502 165.313 85.0263 165.712 84.6278C166.11 84.2293 166.334 83.6887 166.334 83.1252C166.334 82.5616 166.11 82.0211 165.712 81.6226C165.313 81.224 164.773 81.0002 164.209 81.0002H162.084V73.9168H155.001V71.7918C155.001 71.2282 154.777 70.6877 154.378 70.2892C153.98 69.8907 153.439 69.6668 152.876 69.6668C152.312 69.6668 151.772 69.8907 151.373 70.2892C150.975 70.6877 150.751 71.2282 150.751 71.7918V73.9168H143.667V76.9202C146.161 77.8835 147.917 80.2918 147.917 83.1252C147.917 85.9585 146.146 88.3668 143.667 89.3302V92.3335H146.671C147.156 91.0823 148.008 90.0069 149.116 89.2485C150.223 88.4901 151.534 88.084 152.876 88.0835C155.709 88.0835 158.117 89.8543 159.081 92.3335H162.084V85.2502Z" fill="#1E90FF"/>
</g>
<g filter="url(#filter2_dd)">
<rect x="17" y="28" width="76" height="76" rx="10" fill="white"/>
<rect x="29" y="71" width="3" height="23" rx="1.5" fill="#C4C4C4" fill-opacity="0.4"/>
<rect x="37" y="79" width="3" height="15" rx="1.5" fill="#C4C4C4" fill-opacity="0.4"/>
<rect x="45" y="62" width="3" height="32" rx="1.5" fill="#1E90FF"/>
<rect x="53" y="70" width="3" height="24" rx="1.5" fill="#32EC8D"/>
<rect x="61" y="53" width="3" height="41" rx="1.5" fill="#C4C4C4" fill-opacity="0.4"/>
<rect x="69" y="63" width="3" height="31" rx="1.5" fill="#1E90FF"/>
<rect x="77" y="58" width="3" height="36" rx="1.5" fill="#C4C4C4" fill-opacity="0.4"/>
</g>
<g filter="url(#filter3_dd)">
<rect x="213" y="19" width="76" height="76" rx="10" fill="white"/>
</g>
<path fill-rule="evenodd" clip-rule="evenodd" d="M250.5 47C253.285 47 255.955 48.1062 257.925 50.0754C259.894 52.0445 261 54.7152 261 57.5C261 60.2848 259.894 62.9555 257.925 64.9246C255.955 66.8938 253.285 68 250.5 68C247.715 68 245.045 66.8938 243.075 64.9246C241.106 62.9555 240 60.2848 240 57.5C240 54.7152 241.106 52.0445 243.075 50.0754C245.045 48.1062 247.715 47 250.5 47ZM258.406 53.4615C257.37 51.4472 255.607 49.9019 253.474 49.1388C254.191 50.4957 254.71 51.9495 255.013 53.4615H258.406ZM259.346 58.2996C259.372 58.0339 259.385 57.767 259.385 57.5C259.383 56.6802 259.267 55.8647 259.041 55.0769H255.257C255.309 55.6116 255.346 56.1495 255.346 56.6923C255.343 57.7776 255.231 58.8599 255.013 59.9231H259.041C259.194 59.3916 259.296 58.8488 259.347 58.2996H259.346ZM253.635 58.2996L253.645 58.2172C253.7 57.7108 253.729 57.2018 253.731 56.6923C253.72 56.152 253.679 55.6127 253.608 55.0769H247.392C247.32 55.6126 247.279 56.152 247.269 56.6923C247.273 57.7799 247.399 58.8637 247.646 59.9231H253.354C253.479 59.3868 253.572 58.8456 253.635 58.2996ZM253.325 53.4615C252.945 51.753 252.258 50.1276 251.298 48.6638C251.033 48.6412 250.768 48.6154 250.5 48.6154C250.332 48.6162 250.164 48.6243 249.996 48.6396L249.702 48.6638L249.692 48.68C248.737 50.1394 248.054 51.7593 247.675 53.4615H253.325ZM245.987 53.4615C246.296 51.9506 246.822 50.492 247.547 49.1307C245.405 49.8912 243.634 51.4401 242.594 53.4615H245.987ZM241.959 55.0769C241.733 55.8648 241.617 56.6803 241.615 57.5C241.617 58.3197 241.733 59.1352 241.959 59.9231H245.987C245.768 58.86 245.656 57.7777 245.654 56.6923C245.654 56.1495 245.691 55.6116 245.743 55.0769H241.959ZM246.408 61.5385H242.596C243.207 62.7312 244.078 63.7709 245.147 64.58C246.215 65.3891 247.452 65.9469 248.765 66.2118C247.731 64.7921 246.935 63.2137 246.408 61.5385ZM250.5 65.8095C251.533 64.532 252.34 63.0876 252.888 61.5385H248.112C248.66 63.0876 249.467 64.532 250.5 65.8095ZM254.592 61.5385C254.065 63.2137 253.269 64.7921 252.235 66.2118C253.548 65.9467 254.785 65.3888 255.853 64.5797C256.921 63.7706 257.793 62.7311 258.404 61.5385H254.592Z" fill="#32EC8D" fill-opacity="0.71"/>
<defs>
<filter id="filter0_dd" x="40" y="128" width="230" height="216" filterUnits="userSpaceOnUse" color-interpolation-filters="sRGB">
<feFlood flood-opacity="0" result="BackgroundImageFix"/>
<feColorMatrix in="SourceAlpha" type="matrix" values="0 0 0 0 0 0 0 0 0 0 0 0 0 0 0 0 0 0 127 0" result="hardAlpha"/>
<feOffset dy="4"/>
<feGaussianBlur stdDeviation="3"/>
<feColorMatrix type="matrix" values="0 0 0 0 0 0 0 0 0 0 0 0 0 0 0 0 0 0 0.1 0"/>
<feBlend mode="normal" in2="BackgroundImageFix" result="effect1_dropShadow"/>
<feColorMatrix in="SourceAlpha" type="matrix" values="0 0 0 0 0 0 0 0 0 0 0 0 0 0 0 0 0 0 127 0" result="hardAlpha"/>
<feOffset dy="2"/>
<feGaussianBlur stdDeviation="2"/>
<feColorMatrix type="matrix" values="0 0 0 0 0 0 0 0 0 0 0 0 0 0 0 0 0 0 0.06 0"/>
<feBlend mode="normal" in2="effect1_dropShadow" result="effect2_dropShadow"/>
<feBlend mode="normal" in="SourceGraphic" in2="effect2_dropShadow" result="shape"/>
</filter>
<filter id="filter1_dd" x="111" y="41" width="88" height="88" filterUnits="userSpaceOnUse" color-interpolation-filters="sRGB">
<feFlood flood-opacity="0" result="BackgroundImageFix"/>
<feColorMatrix in="SourceAlpha" type="matrix" values="0 0 0 0 0 0 0 0 0 0 0 0 0 0 0 0 0 0 127 0" result="hardAlpha"/>
<feOffset dy="4"/>
<feGaussianBlur stdDeviation="3"/>
<feColorMatrix type="matrix" values="0 0 0 0 0 0 0 0 0 0 0 0 0 0 0 0 0 0 0.1 0"/>
<feBlend mode="normal" in2="BackgroundImageFix" result="effect1_dropShadow"/>
<feColorMatrix in="SourceAlpha" type="matrix" values="0 0 0 0 0 0 0 0 0 0 0 0 0 0 0 0 0 0 127 0" result="hardAlpha"/>
<feOffset dy="2"/>
<feGaussianBlur stdDeviation="2"/>
<feColorMatrix type="matrix" values="0 0 0 0 0 0 0 0 0 0 0 0 0 0 0 0 0 0 0.06 0"/>
<feBlend mode="normal" in2="effect1_dropShadow" result="effect2_dropShadow"/>
<feBlend mode="normal" in="SourceGraphic" in2="effect2_dropShadow" result="shape"/>
</filter>
<filter id="filter2_dd" x="11" y="26" width="88" height="88" filterUnits="userSpaceOnUse" color-interpolation-filters="sRGB">
<feFlood flood-opacity="0" result="BackgroundImageFix"/>
<feColorMatrix in="SourceAlpha" type="matrix" values="0 0 0 0 0 0 0 0 0 0 0 0 0 0 0 0 0 0 127 0" result="hardAlpha"/>
<feOffset dy="4"/>
<feGaussianBlur stdDeviation="3"/>
<feColorMatrix type="matrix" values="0 0 0 0 0 0 0 0 0 0 0 0 0 0 0 0 0 0 0.1 0"/>
<feBlend mode="normal" in2="BackgroundImageFix" result="effect1_dropShadow"/>
<feColorMatrix in="SourceAlpha" type="matrix" values="0 0 0 0 0 0 0 0 0 0 0 0 0 0 0 0 0 0 127 0" result="hardAlpha"/>
<feOffset dy="2"/>
<feGaussianBlur stdDeviation="2"/>
<feColorMatrix type="matrix" values="0 0 0 0 0 0 0 0 0 0 0 0 0 0 0 0 0 0 0.06 0"/>
<feBlend mode="normal" in2="effect1_dropShadow" result="effect2_dropShadow"/>
<feBlend mode="normal" in="SourceGraphic" in2="effect2_dropShadow" result="shape"/>
</filter>
<filter id="filter3_dd" x="207" y="17" width="88" height="88" filterUnits="userSpaceOnUse" color-interpolation-filters="sRGB">
<feFlood flood-opacity="0" result="BackgroundImageFix"/>
<feColorMatrix in="SourceAlpha" type="matrix" values="0 0 0 0 0 0 0 0 0 0 0 0 0 0 0 0 0 0 127 0" result="hardAlpha"/>
<feOffset dy="4"/>
<feGaussianBlur stdDeviation="3"/>
<feColorMatrix type="matrix" values="0 0 0 0 0 0 0 0 0 0 0 0 0 0 0 0 0 0 0.1 0"/>
<feBlend mode="normal" in2="BackgroundImageFix" result="effect1_dropShadow"/>
<feColorMatrix in="SourceAlpha" type="matrix" values="0 0 0 0 0 0 0 0 0 0 0 0 0 0 0 0 0 0 127 0" result="hardAlpha"/>
<feOffset dy="2"/>
<feGaussianBlur stdDeviation="2"/>
<feColorMatrix type="matrix" values="0 0 0 0 0 0 0 0 0 0 0 0 0 0 0 0 0 0 0.06 0"/>
<feBlend mode="normal" in2="effect1_dropShadow" result="effect2_dropShadow"/>
<feBlend mode="normal" in="SourceGraphic" in2="effect2_dropShadow" result="shape"/>
</filter>
<clipPath id="clip0">
<rect width="309" height="309" rx="154.5" fill="white"/>
</clipPath>
</defs>
</svg>
